<svg width="2488" height="282" viewBox="0 0 2488 282" fill="none" xmlns="http://www.w3.org/2000/svg">
<path d="M180.2 37.3C182 36.9 184 37.3 186.2 38.5C188.6 39.7 190.3 39.9 191.3 39.1C192.5 38.1 194.9 38.7 198.5 40.9C202.1 42.9 205.5 44.4 208.7 45.4C211.9 46.2 214.8 47.7 217.4 49.9C220.2 52.1 221.6 54.9 221.6 58.3C221.8 61.7 220.6 64.9 218 67.9C215.8 70.5 214.1 71.8 212.9 71.8C211.5 71.8 209.6 72.7 207.2 74.5C204.8 76.1 203.6 77.3 203.6 78.1C203.6 79.5 202.7 81.3 200.9 83.5C199.1 85.5 197.4 88 195.8 91C194.4 93.8 192.8 96 191 97.6C189.2 99.2 188.3 100.8 188.3 102.4C188.3 104 187.6 105.1 186.2 105.7C185 106.1 184.4 106.7 184.4 107.5C184.4 108.7 180.1 114.8 171.5 125.8C170.9 126.4 167.8 130.6 162.2 138.4C156.6 146 152.1 151.6 148.7 155.2C145.3 158.8 143.8 160.8 144.2 161.2C144.6 161.4 148 160.5 154.4 158.5C160.6 156.7 168 155.1 176.6 153.7C185.4 152.1 192.3 151.4 197.3 151.6C207.1 151.6 212.3 151.2 212.9 150.4C214.3 148.4 218.1 149 224.3 152.2C227.9 154 231.3 155.6 234.5 157C237.9 158.2 241.2 160.2 244.4 163L248.9 166.9L247.4 172.9C246.6 177.3 245.6 180 244.4 181C243.2 182 242.6 183.1 242.6 184.3C242.6 185.3 241.6 187 239.6 189.4C237.6 191.6 236 193.6 234.8 195.4L230.6 202C229 205 226.2 208.6 222.2 212.8C218.2 216.8 216.2 219.4 216.2 220.6C216.2 221.6 215.1 223 212.9 224.8L209.6 227.2L216.2 229.3C220.8 230.7 224.2 232.4 226.4 234.4C227.6 236 228.2 237.2 228.2 238C228.4 238.6 228.2 239.6 227.6 241C226.8 243.2 226.8 244.8 227.6 245.8C229.6 247.8 228.5 251.3 224.3 256.3C221.7 259.7 219.2 261.5 216.8 261.7C214.4 262.1 209.6 261 202.4 258.4C195.6 256.4 189.8 255.6 185 256C172.4 257.2 164.4 258.9 161 261.1C159 262.5 156.9 262.8 154.7 262C152.3 260.8 150.7 260.4 149.9 260.8C149.3 261.2 149 262.7 149 265.3C149 268.7 148.3 271.1 146.9 272.5C145.7 273.3 144.6 273.5 143.6 273.1C142.8 272.9 140.7 271.4 137.3 268.6C133.9 266 131.7 263.9 130.7 262.3C129.9 260.9 129.7 259.2 130.1 257.2C130.1 256 129.6 254.8 128.6 253.6C127.8 252.4 127.6 251.4 128 250.6C128.6 249.8 127.8 246.1 125.6 239.5C123.6 232.7 121.9 227.1 120.5 222.7C119.1 218.1 117.6 213.7 116 209.5C114.4 205.1 113.3 200.9 112.7 196.9C112.3 192.7 111.8 190.6 111.2 190.6C110.6 190.6 108.3 192.6 104.3 196.6C93.7 206.4 87.6 211.3 86 211.3C84.8 211.3 84.2 211.7 84.2 212.5C84.2 213.1 81.6 215 76.4 218.2C71.2 221.4 65 225.4 57.8 230.2C50.6 234.8 46 237.5 44 238.3C42 238.9 38.7 240.5 34.1 243.1C29.5 245.5 26.7 246.6 25.7 246.4C24.9 246.2 22.3 247 17.9 248.8C6.5 254 0.800001 255.7 0.800001 253.9C0.800001 253.3 1.1 253 1.7 253C2.5 253 4.1 251.8 6.5 249.4C9.1 247 14.6 242.8 23 236.8C37.8 226.8 52.3 216.1 66.5 204.7C80.9 193.1 92.2 183 100.4 174.4C105.6 168.8 110.4 163.5 114.8 158.5C119.2 153.3 122.4 149.1 124.4 145.9C126.6 142.7 127.4 140.9 126.8 140.5C126 139.7 123.7 138.2 119.9 136C116.5 133.8 112.7 130.6 108.5 126.4C104.5 122 102.3 118.9 101.9 117.1C101.3 115.5 103.6 113 108.8 109.6C114.2 106.2 117.5 104.8 118.7 105.4C119.9 106 123.2 107.1 128.6 108.7C134.2 110.3 138.3 111.6 140.9 112.6C143.5 113.4 145.4 113.8 146.6 113.8C147.4 113.8 150.4 110.1 155.6 102.7C161 95.3 164.3 90.3 165.5 87.7C165.9 86.9 167.7 83.8 170.9 78.4C176.7 68.4 179.9 62.1 180.5 59.5C181.1 56.7 179.6 54.5 176 52.9C174.4 52.3 173.4 51.6 173 50.8C172.8 50 172.7 48.2 172.7 45.4C172.7 42 172.9 40 173.3 39.4C173.9 38.6 176.2 37.9 180.2 37.3ZM203.6 179.5C203.4 178.9 199.1 178.4 190.7 178C182.5 177.6 178.2 177.5 177.8 177.7C177.2 178.3 164.9 181 140.9 185.8C136.7 186.8 133.7 187.3 131.9 187.3C130.7 187.3 129.9 187.6 129.5 188.2C129.1 188.6 128.9 189.5 128.9 190.9C129.1 192.1 129.4 193.9 129.8 196.3C130.4 198.5 131.3 201.5 132.5 205.3C135.1 213.9 136.4 218.8 136.4 220C136.4 221.2 137.2 223.4 138.8 226.6C140.6 229.8 141.5 232.5 141.5 234.7C141.5 236.7 141.9 237.9 142.7 238.3C143.5 238.7 145.5 238.5 148.7 237.7C151.9 236.7 154.2 235.6 155.6 234.4C156.8 233.4 158.2 232.9 159.8 232.9C161.4 232.9 164.2 232.4 168.2 231.4C172.2 230.4 175.7 228.1 178.7 224.5C181.7 220.9 183.2 218.9 183.2 218.5C183.2 217.9 184.9 215.1 188.3 210.1C191.5 205.1 195 198.9 198.8 191.5C202.8 183.9 204.4 179.9 203.6 179.5ZM139.7 21.4C141.3 18.4 143.3 15.5 145.7 12.7C148.3 9.89999 149.7 8.49999 149.9 8.49999C150.9 8.29999 152.8 9.19999 155.6 11.2C158.4 13.2 160.5 15 161.9 16.6C163.5 18.4 164.5 20 164.9 21.4C165.5 22.8 165.8 25.7 165.8 30.1C165.8 36.5 165.4 40.2 164.6 41.2C163.8 42.2 161.8 43 158.6 43.6C156 43.8 152.3 45.6 147.5 49C142.7 52.2 138.6 55.5 135.2 58.9C133 61.3 130.7 63.3 128.3 64.9C126.1 66.3 121.6 69.7 114.8 75.1C108 80.5 104.3 83.2 103.7 83.2C103.1 83.2 101.8 84.2 99.8 86.2C98.6 87 97.1 87.9 95.3 88.9C93.5 89.9 91.9 90.6 90.5 91C89.1 91.4 88.4 91.4 88.4 91C88.4 89.6 92.5 84.4 100.7 75.4C105.9 70 108.5 66.9 108.5 66.1C108.5 65.1 108.9 64.5 109.7 64.3C111.1 63.5 115.5 57.8 122.9 47.2C130.5 36.4 136.1 27.8 139.7 21.4ZM417.5 72.1C418.9 71.9 420.9 71.9 423.5 72.1C426.3 72.3 430.8 72.5 437 72.7C442.4 72.9 448.1 74.1 454.1 76.3C460.3 78.3 464.1 80.4 465.5 82.6C466.3 84 466.7 85.1 466.7 85.9C466.7 86.5 466.3 87.6 465.5 89.2C463.9 92.4 460 95.5 453.8 98.5C451.2 99.7 447.2 103.5 441.8 109.9C436.6 116.3 434 120.3 434 121.9C434 122.9 435.7 126.1 439.1 131.5C442.7 136.9 445.2 140 446.6 140.8C447.6 141.8 448.3 142.2 448.7 142C449.3 141.8 455.5 141.4 467.3 140.8C479.3 140.2 486.9 139.9 490.1 139.9C507.7 140.1 517.8 141.5 520.4 144.1C521.8 145.5 522.7 146.2 523.1 146.2C523.5 146.2 524.2 147 525.2 148.6C526.2 150.2 526.9 151.9 527.3 153.7C527.7 155.5 527.1 157.9 525.5 160.9C523.9 163.7 522.3 165.6 520.7 166.6C518.7 167.6 514 167.6 506.6 166.6C487.4 164.2 474.5 163 467.9 163C461.7 163 457.6 163.2 455.6 163.6L452.9 164.2L452.3 186.4C451.7 201.2 450.9 211.5 449.9 217.3C449.1 222.9 448.7 227.4 448.7 230.8C448.9 235.4 447.8 240 445.4 244.6C443.2 249.2 438.9 254.8 432.5 261.4C427.7 266.6 423.6 270.4 420.2 272.8C417 275.4 412.9 277.4 407.9 278.8C403.9 280.2 401.1 280.9 399.5 280.9C398.1 281.1 397 280.6 396.2 279.4C395.4 278.4 393.8 277.9 391.4 277.9C389.2 277.9 387.2 276.9 385.4 274.9C382.6 271.5 379.4 268 375.8 264.4C372.2 261 370.1 259.3 369.5 259.3C367.9 259.3 364.7 257 359.9 252.4C355.3 248 352 244.2 350 241C349 238.4 348.7 236.8 349.1 236.2C349.5 235.4 351.1 235.5 353.9 236.5C360.7 238.7 367.9 240.4 375.5 241.6C383.1 242.8 388.4 243.2 391.4 242.8C394.4 242.4 396.8 242 398.6 241.6C400 241.6 402.9 239.3 407.3 234.7C411.9 230.1 415 226.4 416.6 223.6C418.8 219.2 420.2 206.5 420.8 185.5C421.4 172.1 421.2 165.4 420.2 165.4C419.4 165.4 416.2 166.2 410.6 167.8C405.2 169.2 396.8 170.8 385.4 172.6C376 173.6 369.6 174.7 366.2 175.9C363 177.1 360.2 179.1 357.8 181.9C353.2 186.7 348.7 188.4 344.3 187C337.3 184.6 333.2 181.4 332 177.4C331.2 175 330 173 328.4 171.4C325.6 167.8 326.5 165.1 331.1 163.3L345.2 158.5C351.8 156.3 357.1 154.8 361.1 154C365.1 153.2 371.8 152 381.2 150.4C399 146.8 409.6 145 413 145C415.4 145 416.8 144.8 417.2 144.4C418.4 142.8 413.2 136.5 401.6 125.5C395.8 119.7 393.3 116.4 394.1 115.6C394.9 114.8 395 114.2 394.4 113.8C394 113.4 394.3 112.3 395.3 110.5C395.9 109.3 396.6 108.6 397.4 108.4C398.2 108.2 400 108.3 402.8 108.7C407.2 109.3 410.5 110.1 412.7 111.1C415.7 112.7 417.8 113 419 112C420.2 110.8 422.3 107.3 425.3 101.5C429.1 93.7 431 89.5 431 88.9C431 88.3 429.5 87.9 426.5 87.7C423.5 87.5 420.2 87.6 416.6 88C413 88.2 410.1 88.6 407.9 89.2C399.5 91.8 393.4 95.2 389.6 99.4C386.4 103 382 102.5 376.4 97.9C373.6 95.1 372.5 92.2 373.1 89.2C373.7 86.2 376.1 84.2 380.3 83.2C382.3 82.8 385.1 82 388.7 80.8C395.7 78.2 405.3 75.3 417.5 72.1ZM390.8 1.89999C392.6 0.899992 395.3 0.699988 398.9 1.29998C402.5 1.69999 405.4 2.59999 407.6 3.99998C411.2 6.39999 414.6 9.59999 417.8 13.6C421 17.4 422.6 20.6 422.6 23.2C422.6 24.6 423 25.6 423.8 26.2C425 27.4 427.8 28.4 432.2 29.2C436.6 30 440.7 30.4 444.5 30.4C449.5 30.4 456.2 31.2 464.6 32.8C477.2 35 484.7 36.2 487.1 36.4C489.5 36.6 491.1 36.1 491.9 34.9C493.3 33.5 494.5 32.8 495.5 32.8C496.5 32.8 497.9 33.7 499.7 35.5C504.9 40.3 511.2 43.8 518.6 46C523.4 47 525.8 48 525.8 49C525.8 50 526.4 51.1 527.6 52.3C528.8 53.3 529.2 56.3 528.8 61.3C528.6 64.9 528.3 67.3 527.9 68.5C527.5 69.7 526.4 71.1 524.6 72.7C522.6 75.3 519.9 76.8 516.5 77.2C513.1 77.6 510 76.9 507.2 75.1C504.4 73.3 502.7 71.9 502.1 70.9C501.7 69.7 500 69.3 497 69.7C494 70.1 491.1 71.1 488.3 72.7C485.5 74.3 483.4 75.1 482 75.1C480.8 75.1 479.8 75.5 479 76.3C478.2 77.1 476.8 77.1 474.8 76.3L471.8 75.1L474.8 70.6C476.4 67.8 478.4 64.5 480.8 60.7C482.6 58.1 483.5 56.5 483.5 55.9C483.7 55.1 483.3 54.4 482.3 53.8C481.1 52.6 479.9 52 478.7 52C477.5 52 473.8 51.1 467.6 49.3C461.6 47.3 454 45.9 444.8 45.1C444 44.9 443.1 44.8 442.1 44.8C432.7 44 427.1 43.7 425.3 43.9C423.7 44.1 422.6 45.2 422 47.2C422 47.4 422 47.6 422 47.8C421 51.4 420.1 53.9 419.3 55.3C418.5 56.5 417.1 57.6 415.1 58.6L411.2 61.3L407.6 59.2C405.8 57.6 403.9 55.5 401.9 52.9C399.9 50.3 398.7 48.1 398.3 46.3C397.1 42.5 394.1 41.5 389.3 43.3C386.5 44.1 383.6 44.8 380.6 45.4C372.2 46.8 365.9 48.7 361.7 51.1C357.5 53.5 354.8 56.5 353.6 60.1C352.6 63.5 351 66.3 348.8 68.5L345.5 71.8L346.1 88.6C346.5 96.4 346.6 101.3 346.4 103.3C346.2 105.3 345.5 107.2 344.3 109C341.7 112.8 338.1 114.3 333.5 113.5C329.1 112.7 325.8 109.9 323.6 105.1C322.2 101.9 321.4 97.3 321.2 91.3C321.2 85.3 321.8 80.8 323 77.8C324.4 74.6 325.6 71.4 326.6 68.2C327.4 64.4 329.1 59.9 331.7 54.7C334.3 49.3 336.2 46.2 337.4 45.4C338.2 44.4 339.2 44.2 340.4 44.8C341.8 45.2 345.7 43.8 352.1 40.6C360.1 36.8 373.4 32.8 392 28.6C393.6 28.2 394.5 27.7 394.7 27.1C395.1 26.5 395.1 25.2 394.7 23.2C393.7 16.4 392 11.4 389.6 8.19998C387.6 5.19998 388 3.09999 390.8 1.89999ZM758.3 151C758.3 150.4 760 150 763.4 149.8C767 149.6 769.3 149.6 770.3 149.8C771.3 150 775.9 150.9 784.1 152.5C790.9 153.9 795.3 155 797.3 155.8C799.3 156.4 802.9 157.8 808.1 160C813.9 162.4 819.8 167.1 825.8 174.1C832 180.9 835 186.2 834.8 190C834.8 194.4 833.4 199 830.6 203.8C827.8 208.6 824.4 212.5 820.4 215.5C815.2 218.5 811.2 219.4 808.4 218.2C805.8 217 802.5 213.4 798.5 207.4C796.3 204 793.7 200.8 790.7 197.8C787.9 194.8 785.6 191.5 783.8 187.9L779.3 179.8C778.5 178.2 777.2 176.3 775.4 174.1C771.8 170.5 768 166 764 160.6C760.2 155.2 758.3 152 758.3 151ZM730.4 67.6C730.4 66 730.7 65 731.3 64.6C731.9 64 733.7 63.7 736.7 63.7C738.7 63.7 740.4 64.1 741.8 64.9C743.2 65.7 745.5 67.7 748.7 70.9C753.3 75.7 755.9 79.2 756.5 81.4C756.9 82.8 756.3 85.7 754.7 90.1C753.3 94.3 751.9 96.7 750.5 97.3C749.5 98.1 747.3 100.7 743.9 105.1C740.7 109.5 738.5 112.3 737.3 113.5C736.1 114.5 735.6 133.8 735.8 171.4C736.2 209 736.5 228.2 736.7 229C737.1 229.6 736.6 233.1 735.2 239.5C733.8 245.7 731.9 250.2 729.5 253C724.9 257.6 719.7 259.3 713.9 258.1C708.1 257.1 704.4 253.6 702.8 247.6C702.2 245.6 701.2 242.7 699.8 238.9C698.8 236.7 698.2 235 698 233.8C698 232.4 698.3 230.1 698.9 226.9C699.9 222.9 700.6 220.9 701 220.9C701.6 220.9 702.2 219.4 702.8 216.4C704.8 203.8 705.9 194.9 706.1 189.7C706.5 184.5 706.4 177 705.8 167.2C705.4 159.4 705.1 155.4 704.9 155.2C704.9 155 704.1 155.5 702.5 156.7C701.1 157.9 699.1 159.6 696.5 161.8C694.1 164 691.4 166.5 688.4 169.3L671.9 184.3C665.9 189.5 661.7 193.3 659.3 195.7C656.9 197.9 653.6 200.4 649.4 203.2C645.4 205.8 642.8 207.8 641.6 209.2C640.4 210.4 638.5 211.7 635.9 213.1C633.5 214.5 629.8 217.2 624.8 221.2C621.4 223.8 616.4 226.7 609.8 229.9C603.2 232.9 599 234.2 597.2 233.8C596.6 233.6 598.8 231.2 603.8 226.6C610.6 221 623.3 209.5 641.9 192.1C650.5 183.5 661.7 171 675.5 154.6C689.3 138.2 698.6 126 703.4 118C705.4 115 706.1 112.8 705.5 111.4C705.1 110 705.6 107 707 102.4C708.4 97.6 709.9 94.6 711.5 93.4C713.1 91.6 715.1 90.6 717.5 90.4C720.1 90 722.3 88 724.1 84.4C728.3 77.2 730.4 71.6 730.4 67.6ZM810.2 31C813.4 29.2 818.9 30 826.7 33.4C832.1 35.8 835.4 37 836.6 37C838.2 37 840 38 842 40C844 42 845.2 44.1 845.6 46.3C846.4 48.5 845.9 51.7 844.1 55.9C842.5 60.1 840.6 62.8 838.4 64C836.4 65.4 834.2 66.1 831.8 66.1C829.6 65.9 825.8 64.9 820.4 63.1C806.2 58.9 787.9 56.6 765.5 56.2C754.3 55.6 748.4 55.1 747.8 54.7C747.2 54.1 743.9 54.3 737.9 55.3C732.1 56.1 726.9 56.7 722.3 57.1C717.7 57.3 713.3 58.1 709.1 59.5C705.1 60.9 699.2 62 691.4 62.8C683.8 63.4 678.1 64.7 674.3 66.7C670.7 68.7 667.9 69.7 665.9 69.7C663.9 69.7 659.5 70.9 652.7 73.3C645.7 75.9 640.7 77.1 637.7 76.9C634.9 76.7 632.1 75.3 629.3 72.7L623.3 67C622.3 66 620.8 64.2 618.8 61.6C616.8 58.8 616.3 56.8 617.3 55.6C618.5 54 621.3 52.4 625.7 50.8C630.1 49 634.5 47.6 638.9 46.6C655.9 43.8 672.7 41.6 689.3 40C700.9 38.8 709.5 37.8 715.1 37C720.9 36.2 734.3 35.7 755.3 35.5C789.3 34.7 807.6 33.2 810.2 31ZM1058.6 67C1067.6 66 1073.7 65.8 1076.9 66.4C1080.1 67 1084 68.7 1088.6 71.5C1092.4 74.1 1095.4 76.8 1097.6 79.6C1099.8 82.4 1100.5 84.6 1099.7 86.2C1098.1 89 1095.9 92.5 1093.1 96.7C1091.1 99.5 1089.8 102.4 1089.2 105.4C1088.6 108.2 1087 113 1084.4 119.8L1077.8 137.5C1076 142.3 1074 146.2 1071.8 149.2C1067.8 154.4 1068 159.2 1072.4 163.6C1075.2 166.2 1077.3 168 1078.7 169C1080.1 169.8 1083.7 172.2 1089.5 176.2C1095.5 180.2 1102.9 184.2 1111.7 188.2C1130.7 196.4 1144 202.8 1151.6 207.4C1159.2 212 1163 215.7 1163 218.5C1163 220.3 1162.1 221.7 1160.3 222.7C1158.7 223.7 1155.1 224.7 1149.5 225.7C1138.9 227.7 1130.1 230.9 1123.1 235.3C1120.5 236.9 1118.3 237.2 1116.5 236.2C1114.9 235 1112.5 233.5 1109.3 231.7C1096.7 224.9 1087.6 219.2 1082 214.6C1076.4 209.8 1067.9 201.3 1056.5 189.1L1049.3 181L1042.7 187.6C1038.3 192.2 1034.6 195.7 1031.6 198.1C1027 201.5 1021.3 205.4 1014.5 209.8C1007.7 214 1003.2 216.3 1001 216.7C997.8 217.5 994 218.9 989.6 220.9C980.8 224.9 976.2 224.9 975.8 220.9C975.4 218.1 980.8 212.4 992 203.8C997.2 200 1003.7 194.2 1011.5 186.4C1019.3 178.6 1026 171.4 1031.6 164.8L1036.1 158.8L1034 154.9C1032.4 152.1 1030.1 148.4 1027.1 143.8C1022.5 136.6 1018.6 129.6 1015.4 122.8C1012.2 116 1010.6 111.4 1010.6 109C1010.6 106 1011.3 104 1012.7 103C1014.3 101.8 1016.2 102 1018.4 103.6C1020.2 104.8 1024.1 108.8 1030.1 115.6C1036.3 122.4 1040.6 127.5 1043 130.9C1045.6 135.1 1047.5 136.7 1048.7 135.7C1050.5 133.7 1053.4 126.7 1057.4 114.7C1061.4 102.7 1063.7 93.6 1064.3 87.4L1064.9 82.3H1058C1053.6 82.3 1048.5 83.2 1042.7 85C1032.1 88.2 1025.3 88.8 1022.3 86.8C1020.5 85.6 1019.4 83.7 1019 81.1C1018.8 78.3 1019.4 76.3 1020.8 75.1C1022.2 73.9 1027.3 72.4 1036.1 70.6C1044.9 68.8 1052.4 67.6 1058.6 67ZM976.7 32.2C976.7 28.2 981.6 29.4 991.4 35.8C991.8 36 992.2 36.2 992.6 36.4L1002.2 43L1001.6 48.4C1001.4 52 1000.3 54.6 998.3 56.2C996.3 57.8 993.8 61.4 990.8 67C987.8 72.6 984.7 77.8 981.5 82.6C978.3 87.4 976.7 90 976.7 90.4C976.7 90.8 974.9 93.4 971.3 98.2C967.7 102.8 965.9 105.5 965.9 106.3C965.9 106.9 964.8 108.1 962.6 109.9C960.6 111.7 959.6 113 959.6 113.8C959.8 114.6 960.9 115 962.9 115C965.1 115 967.9 116.7 971.3 120.1C974.9 123.3 976.9 126.1 977.3 128.5C978.1 130.3 977.9 133.1 976.7 136.9C975.7 140.5 975 146.5 974.6 154.9C974.2 163.3 973.4 173.3 972.2 184.9C971 196.3 970.3 209.5 970.1 224.5C970.1 239.5 969.7 247.6 968.9 248.8C968.1 250.2 965.8 251.1 962 251.5C959.4 251.9 957.7 251.9 956.9 251.5C956.3 251.1 955.7 249.9 955.1 247.9C954.1 245.3 952.8 243.2 951.2 241.6C949.2 239.6 947.8 236.9 947 233.5C946.2 229.9 946.1 226.8 946.7 224.2C947.7 220.2 949.3 209.5 951.5 192.1C952.5 184.9 953.3 172.8 953.9 155.8C954.5 138.8 955 128.9 955.4 126.1C955.6 123.1 955.2 121.6 954.2 121.6C953.6 121.6 952.8 122.1 951.8 123.1C950.6 124.9 949.5 126.4 948.5 127.6C947.5 128.6 945.5 131 942.5 134.8C940.1 138 935.4 143 928.4 149.8C921.6 156.4 916.2 161.2 912.2 164.2C909.6 166.4 906.4 169.5 902.6 173.5C900 176.1 897 178.4 893.6 180.4C890.4 182.2 888.5 182.7 887.9 181.9C885.9 180.1 887.5 176 892.7 169.6C899.9 161.6 907.9 151.3 916.7 138.7C925.7 126.1 933 115 938.6 105.4C949.4 87.2 956.3 74 959.3 65.8C961.3 61 964.1 55.1 967.7 48.1C971.3 41.1 973.1 37 973.1 35.8C973.1 34.6 973.7 34 974.9 34C976.1 34 976.7 33.4 976.7 32.2ZM1358.6 67C1367.6 66 1373.7 65.8 1376.9 66.4C1380.1 67 1384 68.7 1388.6 71.5C1392.4 74.1 1395.4 76.8 1397.6 79.6C1399.8 82.4 1400.5 84.6 1399.7 86.2C1398.1 89 1395.9 92.5 1393.1 96.7C1391.1 99.5 1389.8 102.4 1389.2 105.4C1388.6 108.2 1387 113 1384.4 119.8L1377.8 137.5C1376 142.3 1374 146.2 1371.8 149.2C1367.8 154.4 1368 159.2 1372.4 163.6C1375.2 166.2 1377.3 168 1378.7 169C1380.1 169.8 1383.7 172.2 1389.5 176.2C1395.5 180.2 1402.9 184.2 1411.7 188.2C1430.7 196.4 1444 202.8 1451.6 207.4C1459.2 212 1463 215.7 1463 218.5C1463 220.3 1462.1 221.7 1460.3 222.7C1458.7 223.7 1455.1 224.7 1449.5 225.7C1438.9 227.7 1430.1 230.9 1423.1 235.3C1420.5 236.9 1418.3 237.2 1416.5 236.2C1414.9 235 1412.5 233.5 1409.3 231.7C1396.7 224.9 1387.6 219.2 1382 214.6C1376.4 209.8 1367.9 201.3 1356.5 189.1L1349.3 181L1342.7 187.6C1338.3 192.2 1334.6 195.7 1331.6 198.1C1327 201.5 1321.3 205.4 1314.5 209.8C1307.7 214 1303.2 216.3 1301 216.7C1297.8 217.5 1294 218.9 1289.6 220.9C1280.8 224.9 1276.2 224.9 1275.8 220.9C1275.4 218.1 1280.8 212.4 1292 203.8C1297.2 200 1303.7 194.2 1311.5 186.4C1319.3 178.6 1326 171.4 1331.6 164.8L1336.1 158.8L1334 154.9C1332.4 152.1 1330.1 148.4 1327.1 143.8C1322.5 136.6 1318.6 129.6 1315.4 122.8C1312.2 116 1310.6 111.4 1310.6 109C1310.6 106 1311.3 104 1312.7 103C1314.3 101.8 1316.2 102 1318.4 103.6C1320.2 104.8 1324.1 108.8 1330.1 115.6C1336.3 122.4 1340.6 127.5 1343 130.9C1345.6 135.1 1347.5 136.7 1348.7 135.7C1350.5 133.7 1353.4 126.7 1357.4 114.7C1361.4 102.7 1363.7 93.6 1364.3 87.4L1364.9 82.3H1358C1353.6 82.3 1348.5 83.2 1342.7 85C1332.1 88.2 1325.3 88.8 1322.3 86.8C1320.5 85.6 1319.4 83.7 1319 81.1C1318.8 78.3 1319.4 76.3 1320.8 75.1C1322.2 73.9 1327.3 72.4 1336.1 70.6C1344.9 68.8 1352.4 67.6 1358.6 67ZM1276.7 32.2C1276.7 28.2 1281.6 29.4 1291.4 35.8C1291.8 36 1292.2 36.2 1292.6 36.4L1302.2 43L1301.6 48.4C1301.4 52 1300.3 54.6 1298.3 56.2C1296.3 57.8 1293.8 61.4 1290.8 67C1287.8 72.6 1284.7 77.8 1281.5 82.6C1278.3 87.4 1276.7 90 1276.7 90.4C1276.7 90.8 1274.9 93.4 1271.3 98.2C1267.7 102.8 1265.9 105.5 1265.9 106.3C1265.9 106.9 1264.8 108.1 1262.6 109.9C1260.6 111.7 1259.6 113 1259.6 113.8C1259.8 114.6 1260.9 115 1262.9 115C1265.1 115 1267.9 116.7 1271.3 120.1C1274.9 123.3 1276.9 126.1 1277.3 128.5C1278.1 130.3 1277.9 133.1 1276.7 136.9C1275.7 140.5 1275 146.5 1274.6 154.9C1274.2 163.3 1273.4 173.3 1272.2 184.9C1271 196.3 1270.3 209.5 1270.1 224.5C1270.1 239.5 1269.7 247.6 1268.9 248.8C1268.1 250.2 1265.8 251.1 1262 251.5C1259.4 251.9 1257.7 251.9 1256.9 251.5C1256.3 251.1 1255.7 249.9 1255.1 247.9C1254.1 245.3 1252.8 243.2 1251.2 241.6C1249.2 239.6 1247.8 236.9 1247 233.5C1246.2 229.9 1246.1 226.8 1246.7 224.2C1247.7 220.2 1249.3 209.5 1251.5 192.1C1252.5 184.9 1253.3 172.8 1253.9 155.8C1254.5 138.8 1255 128.9 1255.4 126.1C1255.6 123.1 1255.2 121.6 1254.2 121.6C1253.6 121.6 1252.8 122.1 1251.8 123.1C1250.6 124.9 1249.5 126.4 1248.5 127.6C1247.5 128.6 1245.5 131 1242.5 134.8C1240.1 138 1235.4 143 1228.4 149.8C1221.6 156.4 1216.2 161.2 1212.2 164.2C1209.6 166.4 1206.4 169.5 1202.6 173.5C1200 176.1 1197 178.4 1193.6 180.4C1190.4 182.2 1188.5 182.7 1187.9 181.9C1185.9 180.1 1187.5 176 1192.7 169.6C1199.9 161.6 1207.9 151.3 1216.7 138.7C1225.7 126.1 1233 115 1238.6 105.4C1249.4 87.2 1256.3 74 1259.3 65.8C1261.3 61 1264.1 55.1 1267.7 48.1C1271.3 41.1 1273.1 37 1273.1 35.8C1273.1 34.6 1273.7 34 1274.9 34C1276.1 34 1276.7 33.4 1276.7 32.2ZM1666.1 124.9C1672.9 124.1 1679.9 123.8 1687.1 124C1694.3 124 1698.6 124.6 1700 125.8C1701.4 127 1702.1 129 1702.1 131.8C1702.3 134.4 1701.7 137.1 1700.3 139.9C1698.5 143.3 1696 145.4 1692.8 146.2C1689.8 146.8 1686.6 146.5 1683.2 145.3C1680.6 144.7 1673.3 144.5 1661.3 144.7C1649.5 144.7 1641 145.2 1635.8 146.2C1632.8 146.6 1630.9 147.2 1630.1 148C1629.5 148.6 1629 150.1 1628.6 152.5C1627.8 156.1 1627.5 159.4 1627.7 162.4C1628.1 164.4 1628.4 165.7 1628.6 166.3C1629 166.9 1629.7 167.1 1630.7 166.9C1632.7 166.5 1637.6 166 1645.4 165.4L1657.1 164.8L1661.3 169.9C1664.5 173.5 1665.9 176.6 1665.5 179.2C1665.1 181.6 1663 184.2 1659.2 187C1656.8 189 1654.8 190.3 1653.2 190.9C1651.6 191.5 1648.6 191.8 1644.2 191.8C1637.8 192 1633.8 192.1 1632.2 192.1C1631 192.1 1630.2 192.6 1629.8 193.6C1629.4 194.6 1629 196.6 1628.6 199.6C1628 204.4 1627.5 207.9 1627.1 210.1C1626.7 211.7 1626.7 212.8 1627.1 213.4C1627.5 214 1628.8 214.8 1631 215.8C1642 220.8 1665.9 225.3 1702.7 229.3C1715.7 230.7 1723.5 231.8 1726.1 232.6C1728.9 233.4 1731.1 233.8 1732.7 233.8C1735.7 233.8 1739.4 235.5 1743.8 238.9C1748.2 242.1 1750.4 244.7 1750.4 246.7C1750.6 247.9 1749.4 248.7 1746.8 249.1C1744.4 249.7 1742.3 250.3 1740.5 250.9C1738.7 251.7 1735.5 252.9 1730.9 254.5C1726.3 256.1 1723.7 257.2 1723.1 257.8C1722.7 258.6 1721.7 259 1720.1 259C1718.5 259 1716.2 260.8 1713.2 264.4L1708.1 269.5L1697 268.9C1690 268.5 1680.3 266.4 1667.9 262.6L1633.7 251.8C1611.7 244.8 1591.9 233.8 1574.3 218.8C1570.5 215.8 1568.1 214.1 1567.1 213.7C1566.1 213.3 1565 213.6 1563.8 214.6C1562.2 216.2 1561.4 217.5 1561.4 218.5C1561.4 219.3 1559.4 222.2 1555.4 227.2C1551.4 232 1548.5 235 1546.7 236.2C1545.5 237 1543.8 238.4 1541.6 240.4L1533.2 247.6L1523.3 255.7C1519.9 258.7 1515.6 261.6 1510.4 264.4C1505.4 267.2 1502.2 268.5 1500.8 268.3C1499.2 267.9 1499.3 266.4 1501.1 263.8C1501.9 263.2 1502.7 262.3 1503.5 261.1C1507.3 256.7 1511.9 251.7 1517.3 246.1C1537.9 223.7 1551.9 199.2 1559.3 172.6C1560.7 167.4 1561.9 163.7 1562.9 161.5C1563.3 159.7 1563.3 159 1562.9 159.4C1561.9 159.8 1558.7 160.7 1553.3 162.1C1548.5 163.5 1543.6 165.7 1538.6 168.7C1533.6 171.7 1530.9 174 1530.5 175.6C1529.7 177.6 1527.5 179 1523.9 179.8C1520.3 180.6 1517.8 180.4 1516.4 179.2C1515 177.8 1513.1 176.9 1510.7 176.5C1509.1 175.9 1507.2 174.5 1505 172.3C1502.8 169.9 1501.9 167.9 1502.3 166.3C1502.3 165.7 1505.1 163.9 1510.7 160.9C1516.3 157.7 1521.7 155.1 1526.9 153.1C1533.3 150.9 1545.3 147.5 1562.9 142.9C1580.7 138.1 1592.7 135.4 1598.9 134.8C1605.1 133.8 1611.7 133 1618.7 132.4C1625.9 131.6 1633.2 130.5 1640.6 129.1C1648.2 127.5 1656.7 126.1 1666.1 124.9ZM1601 155.8C1601 153.4 1600.8 152 1600.4 151.6C1600.2 151 1599 150.7 1596.8 150.7C1594.2 150.7 1589.4 151.6 1582.4 153.4C1575.6 155.2 1572.2 156.4 1572.2 157C1572.2 157.6 1574.3 159 1578.5 161.2C1583.5 163.6 1586.2 166.2 1586.6 169C1587.2 171.6 1585.8 176.3 1582.4 183.1C1581.2 185.7 1580.5 187.5 1580.3 188.5C1580.3 189.5 1580.8 190.7 1581.8 192.1C1582.8 193.7 1586.2 196.1 1592 199.3C1598 202.3 1601.4 203.5 1602.2 202.9C1602.6 202.3 1602.8 197.1 1602.8 187.3C1603 177.5 1602.8 170.5 1602.2 166.3C1601.6 162.3 1601.2 158.8 1601 155.8ZM1583 15.1C1591.4 12.5 1608.5 12 1634.3 13.6C1649.9 14.6 1657.7 17.7 1657.7 22.9C1657.7 24.9 1658.4 26.9 1659.8 28.9C1661.4 30.9 1661.7 32.4 1660.7 33.4C1659.7 34.2 1659.2 36 1659.2 38.8C1659.2 41.6 1658.3 45.6 1656.5 50.8C1654.7 55.8 1654.1 59.6 1654.7 62.2C1655.3 65.6 1655.5 68.7 1655.3 71.5C1655.3 74.3 1654.8 76 1653.8 76.6C1652.6 77.4 1651.8 81.5 1651.4 88.9C1651 94.1 1650.5 97.6 1649.9 99.4C1649.5 101 1648.1 103.1 1645.7 105.7C1642.3 109.5 1640.6 111.9 1640.6 112.9C1640.6 113.9 1639.2 115.6 1636.4 118C1633.6 120.4 1631.6 121.6 1630.4 121.6C1629.2 121.6 1627.8 120.5 1626.2 118.3C1625 116.9 1623.7 116 1622.3 115.6C1620.9 115.2 1617.9 115 1613.3 115C1606.5 115 1601.3 115.4 1597.7 116.2C1594.3 117 1590.5 117.9 1586.3 118.9C1582.3 119.9 1579.5 121.7 1577.9 124.3C1576.3 126.9 1575.2 128.2 1574.6 128.2C1574 128.2 1572.7 126.3 1570.7 122.5C1566.1 112.9 1563.8 97.7 1563.8 76.9C1563.8 64.1 1563.4 55.7 1562.6 51.7C1561.8 47.5 1561.1 43.9 1560.5 40.9C1559.9 37.7 1558.9 35.6 1557.5 34.6C1556.3 33.4 1556.5 31.8 1558.1 29.8C1560.3 26.8 1563.7 24 1568.3 21.4C1573.1 18.6 1578 16.5 1583 15.1ZM1615.1 24.4C1612.7 23.6 1608 23.4 1601 23.8C1594.2 24.2 1589 24.9 1585.4 25.9C1577.6 27.9 1573.7 30.4 1573.7 33.4C1573.9 33.8 1574.1 34.1 1574.3 34.3C1575.5 35.5 1576.1 40.7 1576.1 49.9C1576.1 58.9 1576.5 63.4 1577.3 63.4C1578.1 63.4 1580.2 62.3 1583.6 60.1C1587.2 57.9 1590.1 56.5 1592.3 55.9C1594.5 55.3 1595.6 54.7 1595.6 54.1C1595.6 53.3 1596.9 52.9 1599.5 52.9C1602.3 52.7 1605.1 52.8 1607.9 53.2C1610.9 53.4 1612.8 53.9 1613.6 54.7C1615.2 55.9 1615.8 58.6 1615.4 62.8C1614.8 67.4 1613.7 70.4 1612.1 71.8C1610.7 73.2 1608 73.9 1604 73.9C1599.4 73.9 1595.4 74.8 1592 76.6C1588.8 78.4 1585.8 79.3 1583 79.3H1578.5L1578.8 88.9C1579.2 95.7 1579.7 99.1 1580.3 99.1C1580.9 99.1 1583.3 98.3 1587.5 96.7C1591.7 94.9 1596.4 93.5 1601.6 92.5C1607 91.3 1610.6 90.4 1612.4 89.8C1614.2 89 1615.8 88.4 1617.2 88C1618.8 87.4 1619.6 86.1 1619.6 84.1C1619.6 82.1 1620 73.5 1620.8 58.3C1621.6 42.9 1621.3 33.5 1619.9 30.1C1618.5 26.7 1616.9 24.8 1615.1 24.4ZM1980.2 37.3C1982 36.9 1984 37.3 1986.2 38.5C1988.6 39.7 1990.3 39.9 1991.3 39.1C1992.5 38.1 1994.9 38.7 1998.5 40.9C2002.1 42.9 2005.5 44.4 2008.7 45.4C2011.9 46.2 2014.8 47.7 2017.4 49.9C2020.2 52.1 2021.6 54.9 2021.6 58.3C2021.8 61.7 2020.6 64.9 2018 67.9C2015.8 70.5 2014.1 71.8 2012.9 71.8C2011.5 71.8 2009.6 72.7 2007.2 74.5C2004.8 76.1 2003.6 77.3 2003.6 78.1C2003.6 79.5 2002.7 81.3 2000.9 83.5C1999.1 85.5 1997.4 88 1995.8 91C1994.4 93.8 1992.8 96 1991 97.6C1989.2 99.2 1988.3 100.8 1988.3 102.4C1988.3 104 1987.6 105.1 1986.2 105.7C1985 106.1 1984.4 106.7 1984.4 107.5C1984.4 108.7 1980.1 114.8 1971.5 125.8C1970.9 126.4 1967.8 130.6 1962.2 138.4C1956.6 146 1952.1 151.6 1948.7 155.2C1945.3 158.8 1943.8 160.8 1944.2 161.2C1944.6 161.4 1948 160.5 1954.4 158.5C1960.6 156.7 1968 155.1 1976.6 153.7C1985.4 152.1 1992.3 151.4 1997.3 151.6C2007.1 151.6 2012.3 151.2 2012.9 150.4C2014.3 148.4 2018.1 149 2024.3 152.2C2027.9 154 2031.3 155.6 2034.5 157C2037.9 158.2 2041.2 160.2 2044.4 163L2048.9 166.9L2047.4 172.9C2046.6 177.3 2045.6 180 2044.4 181C2043.2 182 2042.6 183.1 2042.6 184.3C2042.6 185.3 2041.6 187 2039.6 189.4C2037.6 191.6 2036 193.6 2034.8 195.4L2030.6 202C2029 205 2026.2 208.6 2022.2 212.8C2018.2 216.8 2016.2 219.4 2016.2 220.6C2016.2 221.6 2015.1 223 2012.9 224.8L2009.6 227.2L2016.2 229.3C2020.8 230.7 2024.2 232.4 2026.4 234.4C2027.6 236 2028.2 237.2 2028.2 238C2028.4 238.6 2028.2 239.6 2027.6 241C2026.8 243.2 2026.8 244.8 2027.6 245.8C2029.6 247.8 2028.5 251.3 2024.3 256.3C2021.7 259.7 2019.2 261.5 2016.8 261.7C2014.4 262.1 2009.6 261 2002.4 258.4C1995.6 256.4 1989.8 255.6 1985 256C1972.4 257.2 1964.4 258.9 1961 261.1C1959 262.5 1956.9 262.8 1954.7 262C1952.3 260.8 1950.7 260.4 1949.9 260.8C1949.3 261.2 1949 262.7 1949 265.3C1949 268.7 1948.3 271.1 1946.9 272.5C1945.7 273.3 1944.6 273.5 1943.6 273.1C1942.8 272.9 1940.7 271.4 1937.3 268.6C1933.9 266 1931.7 263.9 1930.7 262.3C1929.9 260.9 1929.7 259.2 1930.1 257.2C1930.1 256 1929.6 254.8 1928.6 253.6C1927.8 252.4 1927.6 251.4 1928 250.6C1928.6 249.8 1927.8 246.1 1925.6 239.5C1923.6 232.7 1921.9 227.1 1920.5 222.7C1919.1 218.1 1917.6 213.7 1916 209.5C1914.4 205.1 1913.3 200.9 1912.7 196.9C1912.3 192.7 1911.8 190.6 1911.2 190.6C1910.6 190.6 1908.3 192.6 1904.3 196.6C1893.7 206.4 1887.6 211.3 1886 211.3C1884.8 211.3 1884.2 211.7 1884.2 212.5C1884.2 213.1 1881.6 215 1876.4 218.2C1871.2 221.4 1865 225.4 1857.8 230.2C1850.6 234.8 1846 237.5 1844 238.3C1842 238.9 1838.7 240.5 1834.1 243.1C1829.5 245.5 1826.7 246.6 1825.7 246.4C1824.9 246.2 1822.3 247 1817.9 248.8C1806.5 254 1800.8 255.7 1800.8 253.9C1800.8 253.3 1801.1 253 1801.7 253C1802.5 253 1804.1 251.8 1806.5 249.4C1809.1 247 1814.6 242.8 1823 236.8C1837.8 226.8 1852.3 216.1 1866.5 204.7C1880.9 193.1 1892.2 183 1900.4 174.4C1905.6 168.8 1910.4 163.5 1914.8 158.5C1919.2 153.3 1922.4 149.1 1924.4 145.9C1926.6 142.7 1927.4 140.9 1926.8 140.5C1926 139.7 1923.7 138.2 1919.9 136C1916.5 133.8 1912.7 130.6 1908.5 126.4C1904.5 122 1902.3 118.9 1901.9 117.1C1901.3 115.5 1903.6 113 1908.8 109.6C1914.2 106.2 1917.5 104.8 1918.7 105.4C1919.9 106 1923.2 107.1 1928.6 108.7C1934.2 110.3 1938.3 111.6 1940.9 112.6C1943.5 113.4 1945.4 113.8 1946.6 113.8C1947.4 113.8 1950.4 110.1 1955.6 102.7C1961 95.3 1964.3 90.3 1965.5 87.7C1965.9 86.9 1967.7 83.8 1970.9 78.4C1976.7 68.4 1979.9 62.1 1980.5 59.5C1981.1 56.7 1979.6 54.5 1976 52.9C1974.4 52.3 1973.4 51.6 1973 50.8C1972.8 50 1972.7 48.2 1972.7 45.4C1972.7 42 1972.9 40 1973.3 39.4C1973.9 38.6 1976.2 37.9 1980.2 37.3ZM2003.6 179.5C2003.4 178.9 1999.1 178.4 1990.7 178C1982.5 177.6 1978.2 177.5 1977.8 177.7C1977.2 178.3 1964.9 181 1940.9 185.8C1936.7 186.8 1933.7 187.3 1931.9 187.3C1930.7 187.3 1929.9 187.6 1929.5 188.2C1929.1 188.6 1928.9 189.5 1928.9 190.9C1929.1 192.1 1929.4 193.9 1929.8 196.3C1930.4 198.5 1931.3 201.5 1932.5 205.3C1935.1 213.9 1936.4 218.8 1936.4 220C1936.4 221.2 1937.2 223.4 1938.8 226.6C1940.6 229.8 1941.5 232.5 1941.5 234.7C1941.5 236.7 1941.9 237.9 1942.7 238.3C1943.5 238.7 1945.5 238.5 1948.7 237.7C1951.9 236.7 1954.2 235.6 1955.6 234.4C1956.8 233.4 1958.2 232.9 1959.8 232.9C1961.4 232.9 1964.2 232.4 1968.2 231.4C1972.2 230.4 1975.7 228.1 1978.7 224.5C1981.7 220.9 1983.2 218.9 1983.2 218.5C1983.2 217.9 1984.9 215.1 1988.3 210.1C1991.5 205.1 1995 198.9 1998.8 191.5C2002.8 183.9 2004.4 179.9 2003.6 179.5ZM1939.7 21.4C1941.3 18.4 1943.3 15.5 1945.7 12.7C1948.3 9.89999 1949.7 8.49999 1949.9 8.49999C1950.9 8.29999 1952.8 9.19999 1955.6 11.2C1958.4 13.2 1960.5 15 1961.9 16.6C1963.5 18.4 1964.5 20 1964.9 21.4C1965.5 22.8 1965.8 25.7 1965.8 30.1C1965.8 36.5 1965.4 40.2 1964.6 41.2C1963.8 42.2 1961.8 43 1958.6 43.6C1956 43.8 1952.3 45.6 1947.5 49C1942.7 52.2 1938.6 55.5 1935.2 58.9C1933 61.3 1930.7 63.3 1928.3 64.9C1926.1 66.3 1921.6 69.7 1914.8 75.1C1908 80.5 1904.3 83.2 1903.7 83.2C1903.1 83.2 1901.8 84.2 1899.8 86.2C1898.6 87 1897.1 87.9 1895.3 88.9C1893.5 89.9 1891.9 90.6 1890.5 91C1889.1 91.4 1888.4 91.4 1888.4 91C1888.4 89.6 1892.5 84.4 1900.7 75.4C1905.9 70 1908.5 66.9 1908.5 66.1C1908.5 65.1 1908.9 64.5 1909.7 64.3C1911.1 63.5 1915.5 57.8 1922.9 47.2C1930.5 36.4 1936.1 27.8 1939.7 21.4ZM2217.5 72.1C2218.9 71.9 2220.9 71.9 2223.5 72.1C2226.3 72.3 2230.8 72.5 2237 72.7C2242.4 72.9 2248.1 74.1 2254.1 76.3C2260.3 78.3 2264.1 80.4 2265.5 82.6C2266.3 84 2266.7 85.1 2266.7 85.9C2266.7 86.5 2266.3 87.6 2265.5 89.2C2263.9 92.4 2260 95.5 2253.8 98.5C2251.2 99.7 2247.2 103.5 2241.8 109.9C2236.6 116.3 2234 120.3 2234 121.9C2234 122.9 2235.7 126.1 2239.1 131.5C2242.7 136.9 2245.2 140 2246.6 140.8C2247.6 141.8 2248.3 142.2 2248.7 142C2249.3 141.8 2255.5 141.4 2267.3 140.8C2279.3 140.2 2286.9 139.9 2290.1 139.9C2307.7 140.1 2317.8 141.5 2320.4 144.1C2321.8 145.5 2322.7 146.2 2323.1 146.2C2323.5 146.2 2324.2 147 2325.2 148.6C2326.2 150.2 2326.9 151.9 2327.3 153.7C2327.7 155.5 2327.1 157.9 2325.5 160.9C2323.9 163.7 2322.3 165.6 2320.7 166.6C2318.7 167.6 2314 167.6 2306.6 166.6C2287.4 164.2 2274.5 163 2267.9 163C2261.7 163 2257.6 163.2 2255.6 163.6L2252.9 164.2L2252.3 186.4C2251.7 201.2 2250.9 211.5 2249.9 217.3C2249.1 222.9 2248.7 227.4 2248.7 230.8C2248.9 235.4 2247.8 240 2245.4 244.6C2243.2 249.2 2238.9 254.8 2232.5 261.4C2227.7 266.6 2223.6 270.4 2220.2 272.8C2217 275.4 2212.9 277.4 2207.9 278.8C2203.9 280.2 2201.1 280.9 2199.5 280.9C2198.1 281.1 2197 280.6 2196.2 279.4C2195.4 278.4 2193.8 277.9 2191.4 277.9C2189.2 277.9 2187.2 276.9 2185.4 274.9C2182.6 271.5 2179.4 268 2175.8 264.4C2172.2 261 2170.1 259.3 2169.5 259.3C2167.9 259.3 2164.7 257 2159.9 252.4C2155.3 248 2152 244.2 2150 241C2149 238.4 2148.7 236.8 2149.1 236.2C2149.5 235.4 2151.1 235.5 2153.9 236.5C2160.7 238.7 2167.9 240.4 2175.5 241.6C2183.1 242.8 2188.4 243.2 2191.4 242.8C2194.4 242.4 2196.8 242 2198.6 241.6C2200 241.6 2202.9 239.3 2207.3 234.7C2211.9 230.1 2215 226.4 2216.6 223.6C2218.8 219.2 2220.2 206.5 2220.8 185.5C2221.4 172.1 2221.2 165.4 2220.2 165.4C2219.4 165.4 2216.2 166.2 2210.6 167.8C2205.2 169.2 2196.8 170.8 2185.4 172.6C2176 173.6 2169.6 174.7 2166.2 175.9C2163 177.1 2160.2 179.1 2157.8 181.9C2153.2 186.7 2148.7 188.4 2144.3 187C2137.3 184.6 2133.2 181.4 2132 177.4C2131.2 175 2130 173 2128.4 171.4C2125.6 167.8 2126.5 165.1 2131.1 163.3L2145.2 158.5C2151.8 156.3 2157.1 154.8 2161.1 154C2165.1 153.2 2171.8 152 2181.2 150.4C2199 146.8 2209.6 145 2213 145C2215.4 145 2216.8 144.8 2217.2 144.4C2218.4 142.8 2213.2 136.5 2201.6 125.5C2195.8 119.7 2193.3 116.4 2194.1 115.6C2194.9 114.8 2195 114.2 2194.4 113.8C2194 113.4 2194.3 112.3 2195.3 110.5C2195.9 109.3 2196.6 108.6 2197.4 108.4C2198.2 108.2 2200 108.3 2202.8 108.7C2207.2 109.3 2210.5 110.1 2212.7 111.1C2215.7 112.7 2217.8 113 2219 112C2220.2 110.8 2222.3 107.3 2225.3 101.5C2229.1 93.7 2231 89.5 2231 88.9C2231 88.3 2229.5 87.9 2226.5 87.7C2223.5 87.5 2220.2 87.6 2216.6 88C2213 88.2 2210.1 88.6 2207.9 89.2C2199.5 91.8 2193.4 95.2 2189.6 99.4C2186.4 103 2182 102.5 2176.4 97.9C2173.6 95.1 2172.5 92.2 2173.1 89.2C2173.7 86.2 2176.1 84.2 2180.3 83.2C2182.3 82.8 2185.1 82 2188.7 80.8C2195.7 78.2 2205.3 75.3 2217.5 72.1ZM2190.8 1.89999C2192.6 0.899992 2195.3 0.699988 2198.9 1.29998C2202.5 1.69999 2205.4 2.59999 2207.6 3.99998C2211.2 6.39999 2214.6 9.59999 2217.8 13.6C2221 17.4 2222.6 20.6 2222.6 23.2C2222.6 24.6 2223 25.6 2223.8 26.2C2225 27.4 2227.8 28.4 2232.2 29.2C2236.6 30 2240.7 30.4 2244.5 30.4C2249.5 30.4 2256.2 31.2 2264.6 32.8C2277.2 35 2284.7 36.2 2287.1 36.4C2289.5 36.6 2291.1 36.1 2291.9 34.9C2293.3 33.5 2294.5 32.8 2295.5 32.8C2296.5 32.8 2297.9 33.7 2299.7 35.5C2304.9 40.3 2311.2 43.8 2318.6 46C2323.4 47 2325.8 48 2325.8 49C2325.8 50 2326.4 51.1 2327.6 52.3C2328.8 53.3 2329.2 56.3 2328.8 61.3C2328.6 64.9 2328.3 67.3 2327.9 68.5C2327.5 69.7 2326.4 71.1 2324.6 72.7C2322.6 75.3 2319.9 76.8 2316.5 77.2C2313.1 77.6 2310 76.9 2307.2 75.1C2304.4 73.3 2302.7 71.9 2302.1 70.9C2301.7 69.7 2300 69.3 2297 69.7C2294 70.1 2291.1 71.1 2288.3 72.7C2285.5 74.3 2283.4 75.1 2282 75.1C2280.8 75.1 2279.8 75.5 2279 76.3C2278.2 77.1 2276.8 77.1 2274.8 76.3L2271.8 75.1L2274.8 70.6C2276.4 67.8 2278.4 64.5 2280.8 60.7C2282.6 58.1 2283.5 56.5 2283.5 55.9C2283.7 55.1 2283.3 54.4 2282.3 53.8C2281.1 52.6 2279.9 52 2278.7 52C2277.5 52 2273.8 51.1 2267.6 49.3C2261.6 47.3 2254 45.9 2244.8 45.1C2244 44.9 2243.1 44.8 2242.1 44.8C2232.7 44 2227.1 43.7 2225.3 43.9C2223.7 44.1 2222.6 45.2 2222 47.2C2222 47.4 2222 47.6 2222 47.8C2221 51.4 2220.1 53.9 2219.3 55.3C2218.5 56.5 2217.1 57.6 2215.1 58.6L2211.2 61.3L2207.6 59.2C2205.8 57.6 2203.9 55.5 2201.9 52.9C2199.9 50.3 2198.7 48.1 2198.3 46.3C2197.1 42.5 2194.1 41.5 2189.3 43.3C2186.5 44.1 2183.6 44.8 2180.6 45.4C2172.2 46.8 2165.9 48.7 2161.7 51.1C2157.5 53.5 2154.8 56.5 2153.6 60.1C2152.6 63.5 2151 66.3 2148.8 68.5L2145.5 71.8L2146.1 88.6C2146.5 96.4 2146.6 101.3 2146.4 103.3C2146.2 105.3 2145.5 107.2 2144.3 109C2141.7 112.8 2138.1 114.3 2133.5 113.5C2129.1 112.7 2125.8 109.9 2123.6 105.1C2122.2 101.9 2121.4 97.3 2121.2 91.3C2121.2 85.3 2121.8 80.8 2123 77.8C2124.4 74.6 2125.6 71.4 2126.6 68.2C2127.4 64.4 2129.1 59.9 2131.7 54.7C2134.3 49.3 2136.2 46.2 2137.4 45.4C2138.2 44.4 2139.2 44.2 2140.4 44.8C2141.8 45.2 2145.7 43.8 2152.1 40.6C2160.1 36.8 2173.4 32.8 2192 28.6C2193.6 28.2 2194.5 27.7 2194.7 27.1C2195.1 26.5 2195.1 25.2 2194.7 23.2C2193.7 16.4 2192 11.4 2189.6 8.19998C2187.6 5.19998 2188 3.09999 2190.8 1.89999ZM2457.5 165.7C2465.7 165.7 2472.8 169 2478.8 175.6C2484.8 182 2487.8 189.8 2487.8 199C2487.8 206.8 2485.1 215.5 2479.7 225.1C2476.9 230.1 2472.6 234.3 2466.8 237.7C2461.2 240.9 2454.7 242.5 2447.3 242.5C2435.5 242.5 2426.6 238.1 2420.6 229.3C2414.8 220.5 2411.9 211.9 2411.9 203.5C2411.9 188.1 2421.3 176.7 2440.1 169.3V169C2440.1 166.8 2445.9 165.7 2457.5 165.7ZM2446.4 185.2C2443 185.2 2439.6 186.9 2436.2 190.3C2433 193.7 2431.4 197.9 2431.4 202.9C2431.4 213.9 2436.5 219.4 2446.7 219.4C2452.9 219.4 2457.8 217.5 2461.4 213.7C2465 209.9 2466.8 205.5 2466.8 200.5C2466.8 197.5 2466.2 195.4 2465 194.2C2463.8 193 2462.8 192.1 2462 191.5C2461.4 190.9 2460.3 190.3 2458.7 189.7C2457.1 188.9 2455.9 188.4 2455.1 188.2C2451.5 186.8 2448.6 185.8 2446.4 185.2Z" fill="#CF623F"/>
</svg>
