<svg width="7136" height="1469" viewBox="0 0 7136 1469" fill="none" xmlns="http://www.w3.org/2000/svg">
<path d="M1244.7 512.738C1248.78 511.832 1253.31 512.738 1258.29 515.456C1263.73 518.174 1267.58 518.627 1269.84 516.815C1272.56 514.55 1278 515.909 1286.15 520.892C1294.31 525.423 1302.01 528.82 1309.26 531.085C1316.51 532.898 1323.07 536.295 1328.96 541.279C1335.31 546.262 1338.48 552.604 1338.48 560.306C1338.93 568.007 1336.21 575.255 1330.32 582.051C1325.34 587.94 1321.49 590.885 1318.77 590.885C1315.6 590.885 1311.3 592.923 1305.86 597.001C1300.42 600.625 1297.71 603.343 1297.71 605.155C1297.71 608.326 1295.67 612.403 1291.59 617.387C1287.51 621.917 1283.66 627.58 1280.04 634.375C1276.87 640.717 1273.24 645.701 1269.16 649.325C1265.09 652.949 1263.05 656.573 1263.05 660.198C1263.05 663.822 1261.46 666.313 1258.29 667.672C1255.57 668.579 1254.22 669.938 1254.22 671.75C1254.22 674.468 1244.48 688.285 1224.99 713.201C1223.64 714.561 1216.61 724.074 1203.93 741.742C1191.24 758.957 1181.05 771.642 1173.35 779.796C1165.65 787.951 1162.25 792.481 1163.16 793.387C1164.06 793.84 1171.76 791.801 1186.26 787.271C1200.31 783.194 1217.07 779.57 1236.55 776.398C1256.48 772.774 1272.11 771.189 1283.44 771.642C1305.63 771.642 1317.41 770.736 1318.77 768.924C1321.94 764.393 1330.55 765.752 1344.59 773.001C1352.75 777.078 1360.45 780.702 1367.7 783.873C1375.4 786.592 1382.87 791.122 1390.12 797.464L1400.32 806.298L1396.92 819.889C1395.11 829.855 1392.84 835.971 1390.12 838.236C1387.4 840.502 1386.05 842.993 1386.05 845.711C1386.05 847.976 1383.78 851.827 1379.25 857.263C1374.72 862.247 1371.1 866.777 1368.38 870.854L1358.86 885.804C1355.24 892.599 1348.9 900.754 1339.84 910.267C1330.78 919.328 1326.25 925.217 1326.25 927.935C1326.25 930.2 1323.75 933.372 1318.77 937.449L1311.3 942.885L1326.25 947.642C1336.67 950.813 1344.37 954.664 1349.35 959.194C1352.07 962.818 1353.43 965.536 1353.43 967.348C1353.88 968.708 1353.43 970.973 1352.07 974.144C1350.26 979.127 1350.26 982.751 1352.07 985.016C1356.6 989.547 1354.11 997.475 1344.59 1008.8C1338.7 1016.5 1333.04 1020.58 1327.61 1021.03C1322.17 1021.94 1311.3 1019.45 1294.99 1013.56C1279.58 1009.03 1266.45 1007.21 1255.57 1008.12C1227.03 1010.84 1208.91 1014.69 1201.21 1019.67C1196.68 1022.84 1191.92 1023.52 1186.94 1021.71C1181.5 1018.99 1177.88 1018.09 1176.07 1018.99C1174.71 1019.9 1174.03 1023.3 1174.03 1029.19C1174.03 1036.89 1172.44 1042.32 1169.27 1045.5C1166.55 1047.31 1164.06 1047.76 1161.8 1046.85C1159.99 1046.4 1155.23 1043 1147.53 1036.66C1139.83 1030.77 1134.84 1026.02 1132.58 1022.39C1130.77 1019.22 1130.31 1015.37 1131.22 1010.84C1131.22 1008.12 1130.09 1005.4 1127.82 1002.68C1126.01 999.966 1125.56 997.701 1126.46 995.889C1127.82 994.077 1126.01 985.696 1121.03 970.746C1116.5 955.343 1112.64 942.659 1109.47 932.692C1106.3 922.273 1102.9 912.306 1099.28 902.792C1095.66 892.826 1093.16 883.312 1091.81 874.252C1090.9 864.738 1089.77 859.982 1088.41 859.982C1087.05 859.982 1081.84 864.512 1072.78 873.572C1048.77 895.771 1034.95 906.87 1031.33 906.87C1028.61 906.87 1027.25 907.776 1027.25 909.588C1027.25 910.947 1021.36 915.251 1009.58 922.499C997.803 929.747 983.759 938.808 967.45 949.681C951.141 960.1 940.722 966.216 936.192 968.028C931.661 969.387 924.186 973.011 913.767 978.901C903.347 984.337 897.005 986.829 894.74 986.376C892.928 985.923 887.038 987.735 877.072 991.812C851.249 1003.59 838.338 1007.44 838.338 1003.36C838.338 1002 839.018 1001.33 840.377 1001.33C842.189 1001.33 845.813 998.607 851.249 993.171C857.139 987.735 869.597 978.221 888.624 964.63C922.148 941.979 954.992 917.742 987.157 891.92C1019.77 865.644 1045.37 842.767 1063.94 823.287C1075.72 810.602 1086.6 798.597 1096.56 787.271C1106.53 775.492 1113.78 765.979 1118.31 758.731C1123.29 751.482 1125.1 747.405 1123.74 746.499C1121.93 744.687 1116.72 741.289 1108.11 736.306C1100.41 731.322 1091.81 724.074 1082.29 714.561C1073.23 704.594 1068.25 697.572 1067.34 693.495C1065.98 689.871 1071.19 684.208 1082.97 676.506C1095.2 668.805 1102.68 665.634 1105.4 666.993C1108.11 668.352 1115.59 670.844 1127.82 674.468C1140.51 678.092 1149.79 681.037 1155.68 683.302C1161.57 685.114 1165.88 686.02 1168.59 686.02C1170.41 686.02 1177.2 677.639 1188.98 660.877C1201.21 644.115 1208.69 632.79 1211.4 626.9C1212.31 625.088 1216.39 618.066 1223.64 605.835C1236.77 583.183 1244.02 568.913 1245.38 563.024C1246.74 556.681 1243.34 551.698 1235.19 548.074C1231.56 546.715 1229.3 545.129 1228.39 543.317C1227.94 541.505 1227.71 537.428 1227.71 531.085C1227.71 523.384 1228.17 518.854 1229.07 517.495C1230.43 515.683 1235.64 514.097 1244.7 512.738ZM1297.71 834.839C1297.25 833.48 1287.51 832.347 1268.49 831.441C1249.91 830.535 1240.17 830.308 1239.27 830.761C1237.91 832.121 1210.05 838.236 1155.68 849.109C1146.17 851.374 1139.37 852.507 1135.3 852.507C1132.58 852.507 1130.77 853.186 1129.86 854.545C1128.95 855.451 1128.5 857.49 1128.5 860.661C1128.95 863.379 1129.63 867.456 1130.54 872.893C1131.9 877.876 1133.94 884.671 1136.66 893.279C1142.54 912.759 1145.49 923.858 1145.49 926.576C1145.49 929.294 1147.3 934.278 1150.93 941.526C1155 948.774 1157.04 954.89 1157.04 959.874C1157.04 964.404 1157.95 967.122 1159.76 968.028C1161.57 968.934 1166.1 968.481 1173.35 966.669C1180.6 964.404 1185.81 961.912 1188.98 959.194C1191.7 956.929 1194.87 955.796 1198.49 955.796C1202.12 955.796 1208.46 954.664 1217.52 952.399C1226.58 950.134 1234.51 944.924 1241.3 936.769C1248.1 928.615 1251.5 924.085 1251.5 923.179C1251.5 921.819 1255.35 915.477 1263.05 904.152C1270.3 892.826 1278.23 878.782 1286.83 862.02C1295.89 844.805 1299.52 835.745 1297.71 834.839ZM1152.96 476.722C1156.59 469.927 1161.12 463.358 1166.55 457.016C1172.44 450.674 1175.62 447.502 1176.07 447.502C1178.33 447.049 1182.64 449.088 1188.98 453.618C1195.32 458.148 1200.08 462.226 1203.25 465.85C1206.87 469.927 1209.14 473.551 1210.05 476.722C1211.4 479.894 1212.08 486.462 1212.08 496.429C1212.08 510.926 1211.18 519.307 1209.37 521.572C1207.55 523.837 1203.02 525.649 1195.77 527.008C1189.89 527.461 1181.5 531.538 1170.63 539.24C1159.76 546.488 1150.47 553.963 1142.77 561.665C1137.79 567.101 1132.58 571.631 1127.14 575.255C1122.16 578.427 1111.97 586.128 1096.56 598.36C1081.16 610.591 1072.78 616.707 1071.42 616.707C1070.06 616.707 1067.12 618.972 1062.59 623.503C1059.87 625.315 1056.47 627.353 1052.39 629.618C1048.32 631.884 1044.69 633.469 1041.52 634.375C1038.35 635.281 1036.76 635.281 1036.76 634.375C1036.76 631.204 1046.05 619.425 1064.62 599.039C1076.4 586.808 1082.29 579.786 1082.29 577.974C1082.29 575.708 1083.2 574.349 1085.01 573.896C1088.18 572.084 1098.15 559.173 1114.91 535.163C1132.12 510.699 1144.81 491.219 1152.96 476.722ZM1782.22 591.564C1785.39 591.111 1789.92 591.111 1795.81 591.564C1802.15 592.017 1812.34 592.47 1826.39 592.923C1838.62 593.376 1851.53 596.095 1865.12 601.078C1879.16 605.608 1887.77 610.365 1890.94 615.348C1892.75 618.519 1893.66 621.011 1893.66 622.823C1893.66 624.182 1892.75 626.674 1890.94 630.298C1887.32 637.546 1878.48 644.568 1864.44 651.364C1858.55 654.082 1849.49 662.689 1837.26 677.186C1825.48 691.683 1819.59 700.743 1819.59 704.367C1819.59 706.633 1823.44 713.881 1831.14 726.113C1839.3 738.344 1844.96 745.366 1848.13 747.178C1850.4 749.443 1851.98 750.35 1852.89 749.897C1854.25 749.443 1868.29 748.537 1895.02 747.178C1922.2 745.819 1939.42 745.14 1946.66 745.14C1986.53 745.593 2009.41 748.764 2015.3 754.653C2018.47 757.824 2020.51 759.41 2021.41 759.41C2022.32 759.41 2023.9 761.222 2026.17 764.846C2028.43 768.471 2030.02 772.321 2030.93 776.398C2031.83 780.476 2030.47 785.912 2026.85 792.707C2023.22 799.05 2019.6 803.353 2015.98 805.619C2011.45 807.884 2000.8 807.884 1984.04 805.619C1940.55 800.182 1911.33 797.464 1896.38 797.464C1882.33 797.464 1873.05 797.917 1868.52 798.823L1862.4 800.182L1861.04 850.468C1859.68 883.992 1857.87 907.323 1855.61 920.46C1853.79 933.145 1852.89 943.338 1852.89 951.04C1853.34 961.459 1850.85 971.879 1845.41 982.298C1840.43 992.718 1830.69 1005.4 1816.19 1020.35C1805.32 1032.13 1796.03 1040.74 1788.33 1046.17C1781.08 1052.06 1771.8 1056.59 1760.47 1059.77C1751.41 1062.94 1745.07 1064.52 1741.44 1064.52C1738.27 1064.98 1735.78 1063.84 1733.97 1061.12C1732.16 1058.86 1728.53 1057.73 1723.1 1057.73C1718.11 1057.73 1713.58 1055.46 1709.51 1050.93C1703.16 1043.23 1695.91 1035.3 1687.76 1027.15C1679.61 1019.45 1674.85 1015.6 1673.49 1015.6C1669.87 1015.6 1662.62 1010.39 1651.74 999.966C1641.32 990 1633.85 981.392 1629.32 974.144C1627.05 968.255 1626.38 964.63 1627.28 963.271C1628.19 961.459 1631.81 961.686 1638.15 963.951C1653.56 968.934 1669.87 972.785 1687.08 975.503C1704.3 978.221 1716.3 979.127 1723.1 978.221C1729.89 977.315 1735.33 976.409 1739.4 975.503C1742.58 975.503 1749.14 970.293 1759.11 959.874C1769.53 949.454 1776.55 941.073 1780.18 934.731C1785.16 924.764 1788.33 895.997 1789.69 848.429C1791.05 818.077 1790.6 802.9 1788.33 802.9C1786.52 802.9 1779.27 804.713 1766.59 808.337C1754.35 811.508 1735.33 815.132 1709.51 819.209C1688.21 821.474 1673.72 823.966 1666.01 826.684C1658.77 829.402 1652.42 833.933 1646.99 840.275C1636.57 851.148 1626.38 854.998 1616.41 851.827C1600.55 846.391 1591.27 839.142 1588.55 830.082C1586.74 824.646 1584.02 820.115 1580.39 816.491C1574.05 808.337 1576.09 802.221 1586.51 798.144L1618.45 787.271C1633.4 782.288 1645.4 778.89 1654.46 777.078C1663.52 775.266 1678.7 772.548 1699.99 768.924C1740.31 760.769 1764.32 756.692 1772.02 756.692C1777.46 756.692 1780.63 756.239 1781.54 755.333C1784.25 751.709 1772.48 737.438 1746.2 712.522C1733.06 699.384 1727.4 691.909 1729.21 690.097C1731.02 688.285 1731.25 686.926 1729.89 686.02C1728.99 685.114 1729.66 682.622 1731.93 678.545C1733.29 675.827 1734.87 674.241 1736.69 673.788C1738.5 673.335 1742.58 673.562 1748.92 674.468C1758.88 675.827 1766.36 677.639 1771.34 679.904C1778.14 683.528 1782.9 684.208 1785.61 681.943C1788.33 679.225 1793.09 671.297 1799.88 658.159C1808.49 640.491 1812.79 630.977 1812.79 629.618C1812.79 628.259 1809.4 627.353 1802.6 626.9C1795.81 626.447 1788.33 626.674 1780.18 627.58C1772.02 628.033 1765.45 628.939 1760.47 630.298C1741.44 636.187 1727.63 643.889 1719.02 653.402C1711.77 661.557 1701.8 660.424 1689.12 650.005C1682.78 643.662 1680.29 637.093 1681.64 630.298C1683 623.503 1688.44 618.972 1697.95 616.707C1702.48 615.801 1708.83 613.989 1716.98 611.271C1732.84 605.382 1754.58 598.813 1782.22 591.564ZM1721.74 432.553C1725.81 430.287 1731.93 429.834 1740.08 431.193C1748.24 432.099 1754.81 434.138 1759.79 437.309C1767.95 442.746 1775.65 449.994 1782.9 459.054C1790.14 467.662 1793.77 474.91 1793.77 480.8C1793.77 483.971 1794.67 486.236 1796.49 487.595C1799.2 490.313 1805.55 492.578 1815.51 494.39C1825.48 496.203 1834.77 497.109 1843.37 497.109C1854.7 497.109 1869.88 498.921 1888.9 502.545C1917.44 507.528 1934.43 510.246 1939.87 510.699C1945.3 511.152 1948.93 510.02 1950.74 507.302C1953.91 504.13 1956.63 502.545 1958.9 502.545C1961.16 502.545 1964.33 504.583 1968.41 508.661C1980.19 519.533 1994.46 527.461 2011.22 532.445C2022.09 534.71 2027.53 536.975 2027.53 539.24C2027.53 541.505 2028.89 543.997 2031.61 546.715C2034.32 548.98 2035.23 555.775 2034.32 567.101C2033.87 575.255 2033.19 580.692 2032.29 583.41C2031.38 586.128 2028.89 589.299 2024.81 592.923C2020.28 598.813 2014.16 602.21 2006.46 603.116C1998.76 604.022 1991.74 602.437 1985.4 598.36C1979.06 594.282 1975.2 591.111 1973.85 588.846C1972.94 586.128 1969.09 585.222 1962.29 586.128C1955.5 587.034 1948.93 589.299 1942.59 592.923C1936.24 596.548 1931.49 598.36 1928.32 598.36C1925.6 598.36 1923.33 599.266 1921.52 601.078C1919.71 602.89 1916.54 602.89 1912.01 601.078L1905.21 598.36L1912.01 588.167C1915.63 581.824 1920.16 574.349 1925.6 565.742C1929.68 559.853 1931.71 556.228 1931.71 554.869C1932.17 553.057 1931.26 551.472 1929 550.112C1926.28 547.394 1923.56 546.035 1920.84 546.035C1918.12 546.035 1909.74 543.997 1895.7 539.919C1882.11 535.389 1864.89 532.218 1844.05 530.406C1842.24 529.953 1840.2 529.726 1837.94 529.726C1816.65 527.914 1803.96 527.235 1799.88 527.688C1796.26 528.141 1793.77 530.632 1792.41 535.163C1792.41 535.616 1792.41 536.069 1792.41 536.522C1790.14 544.676 1788.1 550.339 1786.29 553.51C1784.48 556.228 1781.31 558.72 1776.78 560.985L1767.95 567.101L1759.79 562.344C1755.71 558.72 1751.41 553.963 1746.88 548.074C1742.35 542.185 1739.63 537.201 1738.73 533.124C1736.01 524.517 1729.21 522.251 1718.34 526.329C1712 528.141 1705.43 529.726 1698.63 531.085C1679.61 534.257 1665.34 538.56 1655.82 543.997C1646.31 549.433 1640.19 556.228 1637.47 564.383C1635.21 572.084 1631.58 578.427 1626.6 583.41L1619.13 590.885L1620.49 628.939C1621.39 646.607 1621.62 657.706 1621.17 662.236C1620.71 666.766 1619.13 671.07 1616.41 675.147C1610.52 683.755 1602.36 687.153 1591.95 685.34C1581.98 683.528 1574.5 677.186 1569.52 666.313C1566.35 659.065 1564.54 648.645 1564.08 635.055C1564.08 621.464 1565.44 611.271 1568.16 604.476C1571.33 597.227 1574.05 589.979 1576.32 582.73C1578.13 574.123 1581.98 563.93 1587.87 552.151C1593.76 539.919 1598.06 532.898 1600.78 531.085C1602.59 528.82 1604.86 528.367 1607.57 529.726C1610.75 530.632 1619.58 527.461 1634.08 520.213C1652.2 511.605 1682.32 502.545 1724.45 493.031C1728.08 492.125 1730.12 490.993 1730.57 489.634C1731.48 488.275 1731.48 485.33 1730.57 480.8C1728.31 465.397 1724.45 454.071 1719.02 446.823C1714.49 440.027 1715.39 435.271 1721.74 432.553ZM2554.17 770.283C2554.17 768.924 2558.02 768.018 2565.72 767.564C2573.88 767.111 2579.09 767.111 2581.35 767.564C2583.62 768.018 2594.04 770.056 2612.61 773.68C2628.01 776.851 2637.98 779.343 2642.51 781.155C2647.04 782.514 2655.19 785.685 2666.97 790.669C2680.11 796.105 2693.48 806.751 2707.07 822.607C2721.11 838.01 2727.91 850.015 2727.45 858.623C2727.45 868.589 2724.28 879.009 2717.94 889.881C2711.6 900.754 2703.89 909.588 2694.83 916.383C2683.06 923.179 2674 925.217 2667.65 922.499C2661.76 919.781 2654.29 911.626 2645.23 898.036C2640.24 890.334 2634.36 883.086 2627.56 876.29C2621.22 869.495 2616.01 862.02 2611.93 853.866L2601.74 835.518C2599.93 831.894 2596.98 827.59 2592.9 822.607C2584.75 814.453 2576.14 804.26 2567.08 792.028C2558.47 779.796 2554.17 772.548 2554.17 770.283ZM2490.97 581.371C2490.97 577.747 2491.65 575.482 2493.01 574.576C2494.37 573.217 2498.45 572.537 2505.24 572.537C2509.77 572.537 2513.62 573.443 2516.8 575.255C2519.97 577.067 2525.18 581.598 2532.42 588.846C2542.84 599.719 2548.73 607.647 2550.09 612.63C2551 615.801 2549.64 622.37 2546.02 632.337C2542.84 641.85 2539.67 647.286 2536.5 648.645C2534.24 650.458 2529.25 656.347 2521.55 666.313C2514.3 676.28 2509.32 682.622 2506.6 685.34C2503.88 687.606 2502.75 731.322 2503.2 816.491C2504.11 901.66 2504.79 945.15 2505.24 946.962C2506.15 948.321 2505.02 956.249 2501.85 970.746C2498.67 984.79 2494.37 994.983 2488.93 1001.33C2478.51 1011.74 2466.74 1015.6 2453.6 1012.88C2440.46 1010.61 2432.08 1002.68 2428.46 989.094C2427.1 984.563 2424.83 977.995 2421.66 969.387C2419.4 964.404 2418.04 960.553 2417.58 957.835C2417.58 954.664 2418.26 949.454 2419.62 942.206C2421.89 933.145 2423.47 928.615 2424.38 928.615C2425.74 928.615 2427.1 925.217 2428.46 918.422C2432.99 889.881 2435.48 869.722 2435.93 857.943C2436.84 846.164 2436.61 829.176 2435.25 806.978C2434.35 789.31 2433.67 780.249 2433.21 779.796C2433.21 779.343 2431.4 780.476 2427.78 783.194C2424.61 785.912 2420.07 789.763 2414.19 794.746C2408.75 799.729 2402.63 805.392 2395.84 811.734L2358.46 845.711C2344.87 857.49 2335.36 866.097 2329.92 871.534C2324.49 876.517 2317.01 882.18 2307.5 888.522C2298.44 894.411 2292.55 898.942 2289.83 902.113C2287.11 904.831 2282.81 907.776 2276.92 910.947C2271.48 914.118 2263.1 920.234 2251.78 929.294C2244.07 935.184 2232.75 941.753 2217.8 949.001C2202.85 955.796 2193.34 958.741 2189.26 957.835C2187.9 957.382 2192.88 951.946 2204.21 941.526C2219.61 928.841 2248.38 902.792 2290.51 863.379C2309.99 843.899 2335.36 815.585 2366.62 778.437C2397.88 741.289 2418.94 713.655 2429.81 695.534C2434.35 688.738 2435.93 683.755 2434.57 680.584C2433.67 677.413 2434.8 670.617 2437.97 660.198C2441.14 649.325 2444.54 642.53 2448.16 639.811C2451.79 635.734 2456.32 633.469 2461.75 633.016C2467.64 632.11 2472.63 627.58 2476.7 619.425C2486.22 603.116 2490.97 590.432 2490.97 581.371ZM2671.73 498.468C2678.98 494.39 2691.44 496.203 2709.1 503.904C2721.34 509.34 2728.81 512.058 2731.53 512.058C2735.15 512.058 2739.23 514.324 2743.76 518.854C2748.29 523.384 2751.01 528.141 2751.92 533.124C2753.73 538.107 2752.6 545.356 2748.52 554.869C2744.89 564.383 2740.59 570.499 2735.61 573.217C2731.08 576.388 2726.09 577.974 2720.66 577.974C2715.67 577.521 2707.07 575.255 2694.83 571.178C2662.67 561.665 2621.22 556.455 2570.48 555.549C2545.11 554.19 2531.75 553.057 2530.39 552.151C2529.03 550.792 2521.55 551.245 2507.96 553.51C2494.82 555.322 2483.05 556.681 2472.63 557.587C2462.21 558.04 2452.24 559.853 2442.73 563.024C2433.67 566.195 2420.3 568.687 2402.63 570.499C2385.42 571.858 2372.51 574.802 2363.9 579.333C2355.75 583.863 2349.4 586.128 2344.87 586.128C2340.34 586.128 2330.38 588.846 2314.97 594.282C2299.12 600.172 2287.79 602.89 2281 602.437C2274.65 601.984 2268.31 598.813 2261.97 592.923L2248.38 580.012C2246.11 577.747 2242.72 573.67 2238.19 567.78C2233.65 561.438 2232.52 556.908 2234.79 554.19C2237.51 550.566 2243.85 546.941 2253.81 543.317C2263.78 539.24 2273.75 536.069 2283.71 533.804C2322.22 527.461 2360.28 522.478 2397.88 518.854C2424.15 516.136 2443.63 513.87 2456.32 512.058C2469.45 510.246 2499.81 509.114 2547.37 508.661C2624.39 506.849 2665.84 503.451 2671.73 498.468ZM3234.39 580.012C3254.77 577.747 3268.59 577.294 3275.84 578.653C3283.09 580.012 3291.92 583.863 3302.34 590.205C3310.95 596.095 3317.74 602.21 3322.73 608.553C3327.71 614.895 3329.3 619.878 3327.48 623.503C3323.86 629.845 3318.88 637.773 3312.53 647.286C3308 653.629 3305.06 660.198 3303.7 666.993C3302.34 673.335 3298.72 684.208 3292.83 699.611L3277.88 739.703C3273.8 750.576 3269.27 759.41 3264.29 766.205C3255.23 777.984 3255.68 788.857 3265.65 798.823C3271.99 804.713 3276.75 808.79 3279.92 811.055C3283.09 812.867 3291.24 818.303 3304.38 827.364C3317.97 836.424 3334.73 845.485 3354.67 854.545C3397.7 873.119 3427.83 887.616 3445.04 898.036C3462.26 908.455 3470.87 916.836 3470.87 923.179C3470.87 927.256 3468.83 930.427 3464.75 932.692C3461.13 934.957 3452.97 937.222 3440.29 939.487C3416.28 944.018 3396.34 951.266 3380.49 961.233C3374.6 964.857 3369.62 965.536 3365.54 963.271C3361.91 960.553 3356.48 957.155 3349.23 953.078C3320.69 937.675 3300.08 924.764 3287.39 914.345C3274.71 903.472 3255.45 884.218 3229.63 856.584L3213.32 838.236L3198.37 853.186C3188.41 863.606 3180.02 871.534 3173.23 876.97C3162.81 884.671 3149.9 893.505 3134.5 903.472C3119.09 912.985 3108.9 918.195 3103.92 919.101C3096.67 920.913 3088.06 924.085 3078.09 928.615C3058.16 937.675 3047.74 937.675 3046.83 928.615C3045.93 922.273 3058.16 909.361 3083.53 889.881C3095.31 881.274 3110.03 868.136 3127.7 850.468C3145.37 832.8 3160.54 816.491 3173.23 801.541L3183.42 787.951L3178.67 779.117C3175.04 772.774 3169.83 764.393 3163.04 753.974C3152.62 737.665 3143.78 721.809 3136.53 706.406C3129.29 691.003 3125.66 680.584 3125.66 675.147C3125.66 668.352 3127.25 663.822 3130.42 661.557C3134.04 658.838 3138.35 659.292 3143.33 662.916C3147.41 665.634 3156.24 674.694 3169.83 690.097C3183.87 705.5 3193.61 717.052 3199.05 724.754C3204.94 734.267 3209.24 737.891 3211.96 735.626C3216.04 731.096 3222.61 715.24 3231.67 688.059C3240.73 660.877 3245.94 640.264 3247.3 626.221L3248.66 614.669H3233.03C3223.06 614.669 3211.51 616.707 3198.37 620.784C3174.36 628.033 3158.96 629.392 3152.16 624.862C3148.09 622.143 3145.59 617.84 3144.69 611.95C3144.24 605.608 3145.59 601.078 3148.77 598.36C3151.94 595.642 3163.49 592.244 3183.42 588.167C3203.35 584.089 3220.34 581.371 3234.39 580.012ZM3048.87 501.186C3048.87 492.125 3059.97 494.843 3082.17 509.34C3083.08 509.793 3083.98 510.246 3084.89 510.699L3106.63 525.649L3105.28 537.881C3104.82 546.035 3102.33 551.925 3097.8 555.549C3093.27 559.173 3087.61 567.327 3080.81 580.012C3074.02 592.697 3066.99 604.475 3059.75 615.348C3052.5 626.221 3048.87 632.11 3048.87 633.016C3048.87 633.922 3044.8 639.811 3036.64 650.684C3028.49 661.104 3024.41 667.219 3024.41 669.032C3024.41 670.391 3021.92 673.109 3016.94 677.186C3012.4 681.263 3010.14 684.208 3010.14 686.02C3010.59 687.832 3013.08 688.738 3017.61 688.738C3022.6 688.738 3028.94 692.589 3036.64 700.29C3044.8 707.539 3049.33 713.881 3050.23 719.317C3052.04 723.395 3051.59 729.737 3048.87 738.344C3046.61 746.499 3045.02 760.09 3044.12 779.117C3043.21 798.144 3041.4 820.795 3038.68 847.07C3035.96 872.893 3034.38 902.792 3033.92 936.769C3033.92 970.746 3033.02 989.094 3031.21 991.812C3029.39 994.983 3024.18 997.022 3015.58 997.928C3009.69 998.834 3005.84 998.834 3004.02 997.928C3002.66 997.022 3001.31 994.303 2999.95 989.773C2997.68 983.884 2994.74 979.127 2991.11 975.503C2986.58 970.973 2983.41 964.857 2981.6 957.155C2979.79 949.001 2979.56 941.979 2980.92 936.09C2983.18 927.029 2986.81 902.792 2991.79 863.379C2994.06 847.07 2995.87 819.662 2997.23 781.155C2998.59 742.648 2999.72 720.223 3000.63 713.881C3001.08 707.086 3000.17 703.688 2997.91 703.688C2996.55 703.688 2994.74 704.821 2992.47 707.086C2989.75 711.163 2987.26 714.561 2985 717.279C2982.73 719.544 2978.2 724.98 2971.41 733.588C2965.97 740.836 2955.32 752.162 2939.47 767.564C2924.07 782.514 2911.83 793.387 2902.77 800.182C2896.88 805.166 2889.64 812.187 2881.03 821.248C2875.14 827.137 2868.34 832.347 2860.64 836.877C2853.39 840.955 2849.09 842.087 2847.73 840.275C2843.2 836.198 2846.82 826.911 2858.6 812.414C2874.91 794.293 2893.03 770.962 2912.97 742.422C2933.35 713.881 2949.89 688.738 2962.57 666.993C2987.04 625.768 3002.66 595.868 3009.46 577.294C3013.99 566.421 3020.33 553.057 3028.49 537.201C3036.64 521.345 3040.72 512.058 3040.72 509.34C3040.72 506.622 3042.08 505.263 3044.8 505.263C3047.51 505.263 3048.87 503.904 3048.87 501.186ZM3913.92 580.012C3934.31 577.747 3948.13 577.294 3955.38 578.653C3962.62 580.012 3971.46 583.863 3981.88 590.205C3990.49 596.095 3997.28 602.21 4002.26 608.553C4007.25 614.895 4008.83 619.878 4007.02 623.503C4003.4 629.845 3998.41 637.773 3992.07 647.286C3987.54 653.629 3984.6 660.198 3983.24 666.993C3981.88 673.335 3978.25 684.208 3972.36 699.611L3957.41 739.703C3953.34 750.576 3948.81 759.41 3943.82 766.205C3934.76 777.984 3935.22 788.857 3945.18 798.823C3951.53 804.713 3956.28 808.79 3959.45 811.055C3962.62 812.867 3970.78 818.303 3983.92 827.364C3997.51 836.424 4014.27 845.485 4034.2 854.545C4077.24 873.119 4107.37 887.616 4124.58 898.036C4141.8 908.455 4150.4 916.836 4150.4 923.179C4150.4 927.256 4148.36 930.427 4144.29 932.692C4140.66 934.957 4132.51 937.222 4119.82 939.487C4095.81 944.018 4075.88 951.266 4060.03 961.233C4054.14 964.857 4049.15 965.536 4045.08 963.271C4041.45 960.553 4036.01 957.155 4028.77 953.078C4000.23 937.675 3979.61 924.764 3966.93 914.345C3954.24 903.472 3934.99 884.218 3909.17 856.584L3892.86 838.236L3877.91 853.186C3867.94 863.606 3859.56 871.534 3852.77 876.97C3842.35 884.671 3829.44 893.505 3814.03 903.472C3798.63 912.985 3788.44 918.195 3783.45 919.101C3776.2 920.913 3767.6 924.085 3757.63 928.615C3737.7 937.675 3727.28 937.675 3726.37 928.615C3725.47 922.273 3737.7 909.361 3763.07 889.881C3774.85 881.274 3789.57 868.136 3807.24 850.468C3824.91 832.8 3840.08 816.491 3852.77 801.541L3862.96 787.951L3858.2 779.117C3854.58 772.774 3849.37 764.393 3842.57 753.974C3832.15 737.665 3823.32 721.809 3816.07 706.406C3808.82 691.003 3805.2 680.584 3805.2 675.147C3805.2 668.352 3806.78 663.822 3809.96 661.557C3813.58 658.838 3817.88 659.292 3822.87 662.916C3826.94 665.634 3835.78 674.694 3849.37 690.097C3863.41 705.5 3873.15 717.052 3878.59 724.754C3884.48 734.267 3888.78 737.891 3891.5 735.626C3895.58 731.096 3902.15 715.24 3911.21 688.059C3920.27 660.877 3925.48 640.264 3926.84 626.221L3928.19 614.669H3912.57C3902.6 614.669 3891.05 616.707 3877.91 620.784C3853.9 628.033 3838.5 629.392 3831.7 624.862C3827.62 622.143 3825.13 617.84 3824.23 611.95C3823.77 605.608 3825.13 601.078 3828.3 598.36C3831.47 595.642 3843.03 592.244 3862.96 588.167C3882.89 584.089 3899.88 581.371 3913.92 580.012ZM3728.41 501.186C3728.41 492.125 3739.51 494.843 3761.71 509.34C3762.61 509.793 3763.52 510.246 3764.43 510.699L3786.17 525.649L3784.81 537.881C3784.36 546.035 3781.87 551.925 3777.34 555.549C3772.81 559.173 3767.14 567.327 3760.35 580.012C3753.55 592.697 3746.53 604.475 3739.28 615.348C3732.04 626.221 3728.41 632.11 3728.41 633.016C3728.41 633.922 3724.33 639.811 3716.18 650.684C3708.02 661.104 3703.95 667.219 3703.95 669.032C3703.95 670.391 3701.46 673.109 3696.47 677.186C3691.94 681.263 3689.68 684.208 3689.68 686.02C3690.13 687.832 3692.62 688.738 3697.15 688.738C3702.14 688.738 3708.48 692.589 3716.18 700.29C3724.33 707.539 3728.86 713.881 3729.77 719.317C3731.58 723.395 3731.13 729.737 3728.41 738.344C3726.15 746.499 3724.56 760.09 3723.65 779.117C3722.75 798.144 3720.94 820.795 3718.22 847.07C3715.5 872.893 3713.91 902.792 3713.46 936.769C3713.46 970.746 3712.55 989.094 3710.74 991.812C3708.93 994.983 3703.72 997.022 3695.11 997.928C3689.22 998.834 3685.37 998.834 3683.56 997.928C3682.2 997.022 3680.84 994.303 3679.48 989.773C3677.22 983.884 3674.27 979.127 3670.65 975.503C3666.12 970.973 3662.95 964.857 3661.14 957.155C3659.32 949.001 3659.1 941.979 3660.46 936.09C3662.72 927.029 3666.35 902.792 3671.33 863.379C3673.59 847.07 3675.41 819.662 3676.77 781.155C3678.13 742.648 3679.26 720.223 3680.16 713.881C3680.62 707.086 3679.71 703.688 3677.45 703.688C3676.09 703.688 3674.27 704.821 3672.01 707.086C3669.29 711.163 3666.8 714.561 3664.53 717.279C3662.27 719.544 3657.74 724.98 3650.94 733.588C3645.51 740.836 3634.86 752.162 3619.01 767.564C3603.6 782.514 3591.37 793.387 3582.31 800.182C3576.42 805.166 3569.17 812.187 3560.57 821.248C3554.68 827.137 3547.88 832.347 3540.18 836.877C3532.93 840.955 3528.63 842.087 3527.27 840.275C3522.74 836.198 3526.36 826.911 3538.14 812.414C3554.45 794.293 3572.57 770.962 3592.5 742.422C3612.89 713.881 3629.42 688.738 3642.11 666.993C3666.57 625.768 3682.2 595.868 3689 577.294C3693.53 566.421 3699.87 553.057 3708.02 537.201C3716.18 521.345 3720.26 512.058 3720.26 509.34C3720.26 506.622 3721.62 505.263 3724.33 505.263C3727.05 505.263 3728.41 503.904 3728.41 501.186ZM4610.45 711.163C4625.85 709.351 4641.71 708.671 4658.02 709.124C4674.33 709.124 4684.07 710.483 4687.24 713.201C4690.41 715.92 4691.99 720.45 4691.99 726.792C4692.45 732.682 4691.09 738.797 4687.92 745.14C4683.84 752.841 4678.18 757.598 4670.93 759.41C4664.13 760.769 4656.89 760.09 4649.18 757.371C4643.29 756.012 4626.76 755.559 4599.58 756.012C4572.85 756.012 4553.6 757.145 4541.82 759.41C4535.02 760.316 4530.72 761.675 4528.91 763.487C4527.55 764.846 4526.41 768.244 4525.51 773.68C4523.7 781.835 4523.02 789.31 4523.47 796.105C4524.38 800.635 4525.06 803.58 4525.51 804.939C4526.41 806.298 4528 806.751 4530.26 806.298C4534.8 805.392 4545.89 804.26 4563.56 802.9L4590.06 801.541L4599.58 813.094C4606.83 821.248 4610 828.27 4609.09 834.159C4608.19 839.595 4603.43 845.485 4594.82 851.827C4589.38 856.357 4584.85 859.302 4581.23 860.661C4577.61 862.02 4570.81 862.7 4560.84 862.7C4546.35 863.153 4537.29 863.379 4533.66 863.379C4530.94 863.379 4529.13 864.512 4528.23 866.777C4527.32 869.042 4526.41 873.572 4525.51 880.368C4524.15 891.24 4523.02 899.168 4522.11 904.152C4521.2 907.776 4521.2 910.267 4522.11 911.626C4523.02 912.986 4525.96 914.798 4530.94 917.063C4555.86 928.388 4610 938.581 4693.35 947.642C4722.8 950.813 4740.47 953.305 4746.36 955.117C4752.7 956.929 4757.68 957.835 4761.31 957.835C4768.1 957.835 4776.48 961.686 4786.45 969.387C4796.42 976.636 4801.4 982.525 4801.4 987.055C4801.85 989.773 4799.14 991.585 4793.25 992.491C4787.81 993.85 4783.05 995.21 4778.98 996.569C4774.9 998.381 4767.65 1001.1 4757.23 1004.72C4746.81 1008.35 4740.92 1010.84 4739.56 1012.2C4738.66 1014.01 4736.39 1014.92 4732.77 1014.92C4729.14 1014.92 4723.93 1018.99 4717.14 1027.15L4705.59 1038.7L4680.44 1037.34C4664.59 1036.43 4642.62 1031.68 4614.53 1023.07L4537.06 998.607C4487.23 982.751 4442.38 957.835 4402.51 923.858C4393.9 917.063 4388.47 913.212 4386.2 912.306C4383.94 911.4 4381.45 912.079 4378.73 914.345C4375.1 917.969 4373.29 920.913 4373.29 923.179C4373.29 924.991 4368.76 931.56 4359.7 942.885C4350.64 953.758 4344.07 960.553 4339.99 963.271C4337.28 965.083 4333.43 968.255 4328.44 972.785L4309.42 989.094L4286.99 1007.44C4279.29 1014.24 4269.55 1020.81 4257.77 1027.15C4246.44 1033.49 4239.2 1036.43 4236.03 1035.98C4232.4 1035.08 4232.63 1031.68 4236.7 1025.79C4238.52 1024.43 4240.33 1022.39 4242.14 1019.67C4250.75 1009.71 4261.17 998.381 4273.4 985.696C4320.06 934.957 4351.77 879.462 4368.53 819.209C4371.71 807.431 4374.42 799.05 4376.69 794.066C4377.6 789.989 4377.6 788.404 4376.69 789.31C4374.42 790.216 4367.18 792.254 4354.94 795.426C4344.07 798.597 4332.97 803.58 4321.65 810.375C4310.32 817.171 4304.21 822.381 4303.3 826.005C4301.49 830.535 4296.5 833.706 4288.35 835.518C4280.2 837.33 4274.53 836.877 4271.36 834.159C4268.19 830.988 4263.89 828.949 4258.45 828.043C4254.83 826.684 4250.52 823.513 4245.54 818.53C4240.56 813.093 4238.52 808.563 4239.42 804.939C4239.42 803.58 4245.77 799.503 4258.45 792.707C4271.13 785.459 4283.37 779.57 4295.14 775.039C4309.64 770.056 4336.82 762.355 4376.69 751.935C4417.01 741.063 4444.19 734.947 4458.23 733.588C4472.28 731.322 4487.23 729.51 4503.08 728.151C4519.39 726.339 4535.93 723.848 4552.69 720.676C4569.9 717.052 4589.16 713.881 4610.45 711.163ZM4462.99 781.155C4462.99 775.719 4462.54 772.548 4461.63 771.642C4461.18 770.283 4458.46 769.603 4453.48 769.603C4447.59 769.603 4436.72 771.642 4420.86 775.719C4405.46 779.796 4397.76 782.514 4397.76 783.873C4397.76 785.232 4402.51 788.404 4412.03 793.387C4423.35 798.823 4429.47 804.713 4430.37 811.055C4431.73 816.944 4428.56 827.59 4420.86 842.993C4418.14 848.882 4416.56 852.96 4416.1 855.225C4416.1 857.49 4417.24 860.208 4419.5 863.379C4421.77 867.003 4429.47 872.44 4442.6 879.688C4456.2 886.484 4463.9 889.202 4465.71 887.843C4466.61 886.484 4467.07 874.705 4467.07 852.507C4467.52 830.308 4467.07 814.453 4465.71 804.939C4464.35 795.879 4463.44 787.951 4462.99 781.155ZM4422.22 462.452C4441.25 456.563 4479.98 455.43 4538.42 459.054C4573.76 461.32 4591.42 468.341 4591.42 480.12C4591.42 484.65 4593.01 489.181 4596.18 493.711C4599.8 498.241 4600.48 501.639 4598.22 503.904C4595.95 505.716 4594.82 509.793 4594.82 516.136C4594.82 522.478 4592.78 531.538 4588.71 543.317C4584.63 554.643 4583.27 563.25 4584.63 569.14C4585.99 576.841 4586.44 583.863 4585.99 590.205C4585.99 596.548 4584.85 600.398 4582.59 601.757C4579.87 603.569 4578.06 612.856 4577.15 629.618C4576.25 641.397 4575.11 649.325 4573.76 653.402C4572.85 657.026 4569.68 661.783 4564.24 667.672C4556.54 676.28 4552.69 681.716 4552.69 683.981C4552.69 686.246 4549.52 690.097 4543.18 695.534C4536.83 700.97 4532.3 703.688 4529.59 703.688C4526.87 703.688 4523.7 701.196 4520.07 696.213C4517.35 693.042 4514.41 691.003 4511.24 690.097C4508.07 689.191 4501.27 688.738 4490.85 688.738C4475.45 688.738 4463.67 689.644 4455.52 691.456C4447.81 693.268 4439.21 695.307 4429.69 697.572C4420.63 699.837 4414.29 703.914 4410.67 709.804C4407.04 715.693 4404.55 718.638 4403.19 718.638C4401.83 718.638 4398.89 714.334 4394.36 705.727C4383.94 683.981 4378.73 649.551 4378.73 602.437C4378.73 573.443 4377.82 554.416 4376.01 545.356C4374.2 535.842 4372.61 527.688 4371.25 520.892C4369.89 513.644 4367.63 508.887 4364.46 506.622C4361.74 503.904 4362.19 500.28 4365.82 495.75C4370.8 488.954 4378.5 482.612 4388.92 476.722C4399.79 470.38 4410.89 465.623 4422.22 462.452ZM4494.93 483.518C4489.49 481.706 4478.85 481.253 4462.99 482.159C4447.59 483.065 4435.81 484.65 4427.65 486.916C4409.99 491.446 4401.15 497.109 4401.15 503.904C4401.61 504.81 4402.06 505.49 4402.51 505.943C4405.23 508.661 4406.59 520.439 4406.59 541.279C4406.59 561.665 4407.5 571.858 4409.31 571.858C4411.12 571.858 4415.88 569.366 4423.58 564.383C4431.73 559.4 4438.3 556.228 4443.28 554.869C4448.27 553.51 4450.76 552.151 4450.76 550.792C4450.76 548.98 4453.7 548.074 4459.59 548.074C4465.94 547.621 4472.28 547.847 4478.62 548.753C4485.42 549.206 4489.72 550.339 4491.53 552.151C4495.16 554.869 4496.51 560.985 4495.61 570.499C4494.25 580.918 4491.76 587.714 4488.13 590.885C4484.96 594.056 4478.85 595.642 4469.79 595.642C4459.37 595.642 4450.31 597.68 4442.6 601.757C4435.36 605.835 4428.56 607.873 4422.22 607.873H4412.03L4412.7 629.618C4413.61 645.021 4414.74 652.723 4416.1 652.723C4417.46 652.723 4422.9 650.911 4432.41 647.286C4441.93 643.209 4452.57 640.038 4464.35 637.773C4476.58 635.055 4484.74 633.016 4488.81 631.657C4492.89 629.845 4496.51 628.486 4499.69 627.58C4503.31 626.221 4505.12 623.276 4505.12 618.746C4505.12 614.216 4506.03 594.735 4507.84 560.306C4509.65 525.423 4508.97 504.13 4505.8 496.429C4502.63 488.728 4499.01 484.424 4494.93 483.518ZM5321.93 512.738C5326 511.832 5330.53 512.738 5335.52 515.456C5340.95 518.174 5344.8 518.627 5347.07 516.815C5349.79 514.55 5355.22 515.909 5363.38 520.892C5371.53 525.423 5379.23 528.82 5386.48 531.085C5393.73 532.898 5400.3 536.295 5406.19 541.279C5412.53 546.262 5415.7 552.604 5415.7 560.306C5416.16 568.007 5413.44 575.255 5407.55 582.051C5402.56 587.94 5398.71 590.885 5396 590.885C5392.82 590.885 5388.52 592.923 5383.08 597.001C5377.65 600.625 5374.93 603.343 5374.93 605.155C5374.93 608.326 5372.89 612.403 5368.81 617.387C5364.74 621.917 5360.89 627.58 5357.26 634.375C5354.09 640.717 5350.47 645.701 5346.39 649.325C5342.31 652.949 5340.27 656.573 5340.27 660.198C5340.27 663.822 5338.69 666.313 5335.52 667.672C5332.8 668.579 5331.44 669.938 5331.44 671.75C5331.44 674.468 5321.7 688.285 5302.22 713.201C5300.86 714.561 5293.84 724.074 5281.15 741.742C5268.47 758.957 5258.28 771.642 5250.57 779.796C5242.87 787.951 5239.48 792.481 5240.38 793.387C5241.29 793.84 5248.99 791.801 5263.49 787.271C5277.53 783.194 5294.29 779.57 5313.77 776.398C5333.7 772.774 5349.33 771.189 5360.66 771.642C5382.86 771.642 5394.64 770.736 5396 768.924C5399.17 764.393 5407.77 765.752 5421.82 773.001C5429.97 777.078 5437.67 780.702 5444.92 783.873C5452.62 786.592 5460.1 791.122 5467.35 797.464L5477.54 806.298L5474.14 819.889C5472.33 829.855 5470.07 835.971 5467.35 838.236C5464.63 840.502 5463.27 842.993 5463.27 845.711C5463.27 847.976 5461 851.827 5456.47 857.263C5451.94 862.247 5448.32 866.777 5445.6 870.854L5436.09 885.804C5432.46 892.599 5426.12 900.754 5417.06 910.267C5408 919.328 5403.47 925.217 5403.47 927.935C5403.47 930.2 5400.98 933.372 5396 937.449L5388.52 942.885L5403.47 947.642C5413.89 950.813 5421.59 954.664 5426.57 959.194C5429.29 962.818 5430.65 965.536 5430.65 967.348C5431.11 968.708 5430.65 970.973 5429.29 974.144C5427.48 979.127 5427.48 982.751 5429.29 985.016C5433.82 989.547 5431.33 997.475 5421.82 1008.8C5415.93 1016.5 5410.27 1020.58 5404.83 1021.03C5399.39 1021.94 5388.52 1019.45 5372.21 1013.56C5356.81 1009.03 5343.67 1007.21 5332.8 1008.12C5304.26 1010.84 5286.14 1014.69 5278.44 1019.67C5273.91 1022.84 5269.15 1023.52 5264.17 1021.71C5258.73 1018.99 5255.1 1018.09 5253.29 1018.99C5251.93 1019.9 5251.25 1023.3 5251.25 1029.19C5251.25 1036.89 5249.67 1042.32 5246.5 1045.5C5243.78 1047.31 5241.29 1047.76 5239.02 1046.85C5237.21 1046.4 5232.45 1043 5224.75 1036.66C5217.05 1030.77 5212.07 1026.02 5209.8 1022.39C5207.99 1019.22 5207.54 1015.37 5208.44 1010.84C5208.44 1008.12 5207.31 1005.4 5205.05 1002.68C5203.23 999.966 5202.78 997.701 5203.69 995.889C5205.05 994.077 5203.23 985.696 5198.25 970.746C5193.72 955.343 5189.87 942.659 5186.7 932.692C5183.53 922.273 5180.13 912.306 5176.51 902.792C5172.88 892.826 5170.39 883.312 5169.03 874.252C5168.12 864.738 5166.99 859.982 5165.63 859.982C5164.27 859.982 5159.06 864.512 5150 873.572C5125.99 895.771 5112.18 906.87 5108.55 906.87C5105.83 906.87 5104.47 907.776 5104.47 909.588C5104.47 910.947 5098.58 915.251 5086.81 922.499C5075.03 929.747 5060.98 938.808 5044.67 949.681C5028.37 960.1 5017.95 966.216 5013.42 968.028C5008.89 969.387 5001.41 973.011 4990.99 978.901C4980.57 984.337 4974.23 986.829 4971.96 986.376C4970.15 985.923 4964.26 987.735 4954.3 991.812C4928.47 1003.59 4915.56 1007.44 4915.56 1003.36C4915.56 1002 4916.24 1001.33 4917.6 1001.33C4919.41 1001.33 4923.04 998.607 4928.47 993.171C4934.36 987.735 4946.82 978.221 4965.85 964.63C4999.37 941.979 5032.22 917.742 5064.38 891.92C5097 865.644 5122.6 842.767 5141.17 823.287C5152.95 810.602 5163.82 798.597 5173.79 787.271C5183.75 775.492 5191 765.979 5195.53 758.731C5200.52 751.482 5202.33 747.405 5200.97 746.499C5199.16 744.687 5193.95 741.289 5185.34 736.306C5177.64 731.322 5169.03 724.074 5159.52 714.561C5150.46 704.594 5145.47 697.572 5144.57 693.495C5143.21 689.871 5148.42 684.208 5160.2 676.506C5172.43 668.805 5179.9 665.634 5182.62 666.993C5185.34 668.352 5192.81 670.844 5205.05 674.468C5217.73 678.092 5227.02 681.037 5232.91 683.302C5238.8 685.114 5243.1 686.02 5245.82 686.02C5247.63 686.02 5254.43 677.639 5266.2 660.877C5278.44 644.115 5285.91 632.79 5288.63 626.9C5289.53 625.088 5293.61 618.066 5300.86 605.835C5314 583.183 5321.25 568.913 5322.61 563.024C5323.96 556.681 5320.57 551.698 5312.41 548.074C5308.79 546.715 5306.52 545.129 5305.62 543.317C5305.16 541.505 5304.94 537.428 5304.94 531.085C5304.94 523.384 5305.39 518.854 5306.3 517.495C5307.66 515.683 5312.87 514.097 5321.93 512.738ZM5374.93 834.839C5374.48 833.48 5364.74 832.347 5345.71 831.441C5327.14 830.535 5317.4 830.308 5316.49 830.761C5315.13 832.121 5287.27 838.236 5232.91 849.109C5223.39 851.374 5216.6 852.507 5212.52 852.507C5209.8 852.507 5207.99 853.186 5207.08 854.545C5206.18 855.451 5205.73 857.49 5205.73 860.661C5206.18 863.379 5206.86 867.456 5207.76 872.893C5209.12 877.876 5211.16 884.671 5213.88 893.279C5219.77 912.759 5222.71 923.858 5222.71 926.576C5222.71 929.294 5224.53 934.278 5228.15 941.526C5232.23 948.774 5234.27 954.89 5234.27 959.874C5234.27 964.404 5235.17 967.122 5236.98 968.028C5238.8 968.934 5243.33 968.481 5250.57 966.669C5257.82 964.404 5263.03 961.912 5266.2 959.194C5268.92 956.929 5272.09 955.796 5275.72 955.796C5279.34 955.796 5285.68 954.664 5294.74 952.399C5303.81 950.134 5311.73 944.924 5318.53 936.769C5325.32 928.615 5328.72 924.085 5328.72 923.179C5328.72 921.819 5332.57 915.477 5340.27 904.152C5347.52 892.826 5355.45 878.782 5364.06 862.02C5373.12 844.805 5376.74 835.745 5374.93 834.839ZM5230.19 476.722C5233.81 469.927 5238.34 463.358 5243.78 457.016C5249.67 450.674 5252.84 447.502 5253.29 447.502C5255.56 447.049 5259.86 449.088 5266.2 453.618C5272.55 458.148 5277.3 462.226 5280.47 465.85C5284.1 469.927 5286.36 473.551 5287.27 476.722C5288.63 479.894 5289.31 486.462 5289.31 496.429C5289.31 510.926 5288.4 519.307 5286.59 521.572C5284.78 523.837 5280.25 525.649 5273 527.008C5267.11 527.461 5258.73 531.538 5247.86 539.24C5236.98 546.488 5227.7 553.963 5220 561.665C5215.01 567.101 5209.8 571.631 5204.37 575.255C5199.38 578.427 5189.19 586.128 5173.79 598.36C5158.38 610.591 5150 616.707 5148.64 616.707C5147.29 616.707 5144.34 618.972 5139.81 623.503C5137.09 625.315 5133.69 627.353 5129.62 629.618C5125.54 631.884 5121.92 633.469 5118.74 634.375C5115.57 635.281 5113.99 635.281 5113.99 634.375C5113.99 631.204 5123.27 619.425 5141.85 599.039C5153.63 586.808 5159.52 579.786 5159.52 577.974C5159.52 575.708 5160.42 574.349 5162.23 573.896C5165.41 572.084 5175.37 559.173 5192.13 535.163C5209.35 510.699 5222.03 491.219 5230.19 476.722ZM5859.44 591.564C5862.61 591.111 5867.14 591.111 5873.03 591.564C5879.37 592.017 5889.57 592.47 5903.61 592.923C5915.84 593.376 5928.75 596.095 5942.34 601.078C5956.39 605.608 5964.99 610.365 5968.17 615.348C5969.98 618.519 5970.88 621.011 5970.88 622.823C5970.88 624.182 5969.98 626.674 5968.17 630.298C5964.54 637.546 5955.71 644.568 5941.66 651.364C5935.77 654.082 5926.71 662.689 5914.48 677.186C5902.7 691.683 5896.81 700.743 5896.81 704.367C5896.81 706.633 5900.67 713.881 5908.37 726.113C5916.52 738.344 5922.18 745.366 5925.36 747.178C5927.62 749.443 5929.21 750.35 5930.11 749.897C5931.47 749.443 5945.51 748.537 5972.24 747.178C5999.42 745.819 6016.64 745.14 6023.89 745.14C6063.75 745.593 6086.63 748.764 6092.52 754.653C6095.69 757.824 6097.73 759.41 6098.64 759.41C6099.54 759.41 6101.13 761.222 6103.39 764.846C6105.66 768.471 6107.24 772.321 6108.15 776.398C6109.06 780.476 6107.7 785.912 6104.07 792.707C6100.45 799.05 6096.83 803.353 6093.2 805.619C6088.67 807.884 6078.02 807.884 6061.26 805.619C6017.77 800.182 5988.55 797.464 5973.6 797.464C5959.56 797.464 5950.27 797.917 5945.74 798.823L5939.63 800.182L5938.27 850.468C5936.91 883.992 5935.1 907.323 5932.83 920.46C5931.02 933.145 5930.11 943.338 5930.11 951.04C5930.56 961.459 5928.07 971.879 5922.64 982.298C5917.65 992.718 5907.91 1005.4 5893.42 1020.35C5882.54 1032.13 5873.26 1040.74 5865.56 1046.17C5858.31 1052.06 5849.02 1056.59 5837.69 1059.77C5828.63 1062.94 5822.29 1064.52 5818.67 1064.52C5815.5 1064.98 5813 1063.84 5811.19 1061.12C5809.38 1058.86 5805.76 1057.73 5800.32 1057.73C5795.34 1057.73 5790.81 1055.46 5786.73 1050.93C5780.39 1043.23 5773.14 1035.3 5764.98 1027.15C5756.83 1019.45 5752.07 1015.6 5750.71 1015.6C5747.09 1015.6 5739.84 1010.39 5728.97 999.966C5718.55 990 5711.07 981.392 5706.54 974.144C5704.28 968.255 5703.6 964.63 5704.51 963.271C5705.41 961.459 5709.04 961.686 5715.38 963.951C5730.78 968.934 5747.09 972.785 5764.3 975.503C5781.52 978.221 5793.52 979.127 5800.32 978.221C5807.12 977.315 5812.55 976.409 5816.63 975.503C5819.8 975.503 5826.37 970.293 5836.34 959.874C5846.76 949.454 5853.78 941.073 5857.4 934.731C5862.38 924.764 5865.56 895.997 5866.91 848.429C5868.27 818.077 5867.82 802.9 5865.56 802.9C5863.74 802.9 5856.5 804.713 5843.81 808.337C5831.58 811.508 5812.55 815.132 5786.73 819.209C5765.44 821.474 5750.94 823.966 5743.24 826.684C5735.99 829.402 5729.65 833.933 5724.21 840.275C5713.79 851.148 5703.6 854.998 5693.63 851.827C5677.78 846.391 5668.49 839.142 5665.77 830.082C5663.96 824.646 5661.24 820.115 5657.62 816.491C5651.27 808.337 5653.31 802.221 5663.73 798.144L5695.67 787.271C5710.62 782.288 5722.63 778.89 5731.69 777.078C5740.75 775.266 5755.92 772.548 5777.22 768.924C5817.54 760.769 5841.55 756.692 5849.25 756.692C5854.68 756.692 5857.85 756.239 5858.76 755.333C5861.48 751.709 5849.7 737.438 5823.42 712.522C5810.29 699.384 5804.62 691.909 5806.44 690.097C5808.25 688.285 5808.47 686.926 5807.12 686.02C5806.21 685.114 5806.89 682.622 5809.15 678.545C5810.51 675.827 5812.1 674.241 5813.91 673.788C5815.72 673.335 5819.8 673.562 5826.14 674.468C5836.11 675.827 5843.58 677.639 5848.57 679.904C5855.36 683.528 5860.12 684.208 5862.84 681.943C5865.56 679.225 5870.31 671.297 5877.11 658.159C5885.72 640.491 5890.02 630.977 5890.02 629.618C5890.02 628.259 5886.62 627.353 5879.83 626.9C5873.03 626.447 5865.56 626.674 5857.4 627.58C5849.25 628.033 5842.68 628.939 5837.69 630.298C5818.67 636.187 5804.85 643.889 5796.24 653.402C5788.99 661.557 5779.03 660.424 5766.34 650.005C5760 643.662 5757.51 637.093 5758.87 630.298C5760.23 623.503 5765.66 618.972 5775.18 616.707C5779.71 615.801 5786.05 613.989 5794.2 611.271C5810.06 605.382 5831.81 598.813 5859.44 591.564ZM5798.96 432.553C5803.04 430.287 5809.15 429.834 5817.31 431.193C5825.46 432.099 5832.03 434.138 5837.02 437.309C5845.17 442.746 5852.87 449.994 5860.12 459.054C5867.37 467.662 5870.99 474.91 5870.99 480.8C5870.99 483.971 5871.9 486.236 5873.71 487.595C5876.43 490.313 5882.77 492.578 5892.74 494.39C5902.7 496.203 5911.99 497.109 5920.6 497.109C5931.92 497.109 5947.1 498.921 5966.13 502.545C5994.67 507.528 6011.66 510.246 6017.09 510.699C6022.53 511.152 6026.15 510.02 6027.97 507.302C6031.14 504.13 6033.85 502.545 6036.12 502.545C6038.38 502.545 6041.56 504.583 6045.63 508.661C6057.41 519.533 6071.68 527.461 6088.44 532.445C6099.32 534.71 6104.75 536.975 6104.75 539.24C6104.75 541.505 6106.11 543.997 6108.83 546.715C6111.55 548.98 6112.45 555.775 6111.55 567.101C6111.1 575.255 6110.42 580.692 6109.51 583.41C6108.6 586.128 6106.11 589.299 6102.03 592.923C6097.5 598.813 6091.39 602.21 6083.69 603.116C6075.99 604.022 6068.96 602.437 6062.62 598.36C6056.28 594.282 6052.43 591.111 6051.07 588.846C6050.16 586.128 6046.31 585.222 6039.52 586.128C6032.72 587.034 6026.15 589.299 6019.81 592.923C6013.47 596.548 6008.71 598.36 6005.54 598.36C6002.82 598.36 6000.56 599.266 5998.75 601.078C5996.93 602.89 5993.76 602.89 5989.23 601.078L5982.44 598.36L5989.23 588.167C5992.86 581.824 5997.39 574.349 6002.82 565.742C6006.9 559.853 6008.94 556.228 6008.94 554.869C6009.39 553.057 6008.49 551.472 6006.22 550.112C6003.5 547.394 6000.78 546.035 5998.07 546.035C5995.35 546.035 5986.97 543.997 5972.92 539.919C5959.33 535.389 5942.12 532.218 5921.28 530.406C5919.47 529.953 5917.43 529.726 5915.16 529.726C5893.87 527.914 5881.19 527.235 5877.11 527.688C5873.48 528.141 5870.99 530.632 5869.63 535.163C5869.63 535.616 5869.63 536.069 5869.63 536.522C5867.37 544.676 5865.33 550.339 5863.52 553.51C5861.71 556.228 5858.53 558.72 5854 560.985L5845.17 567.101L5837.02 562.344C5832.94 558.72 5828.63 553.963 5824.1 548.074C5819.57 542.185 5816.86 537.201 5815.95 533.124C5813.23 524.517 5806.44 522.251 5795.56 526.329C5789.22 528.141 5782.65 529.726 5775.86 531.085C5756.83 534.257 5742.56 538.56 5733.05 543.997C5723.53 549.433 5717.42 556.228 5714.7 564.383C5712.43 572.084 5708.81 578.427 5703.83 583.41L5696.35 590.885L5697.71 628.939C5698.62 646.607 5698.84 657.706 5698.39 662.236C5697.94 666.766 5696.35 671.07 5693.63 675.147C5687.74 683.755 5679.59 687.153 5669.17 685.34C5659.2 683.528 5651.73 677.186 5646.74 666.313C5643.57 659.065 5641.76 648.645 5641.31 635.055C5641.31 621.464 5642.67 611.271 5645.39 604.476C5648.56 597.227 5651.27 589.979 5653.54 582.73C5655.35 574.123 5659.2 563.93 5665.09 552.151C5670.98 539.919 5675.29 532.898 5678 531.085C5679.82 528.82 5682.08 528.367 5684.8 529.726C5687.97 530.632 5696.8 527.461 5711.3 520.213C5729.42 511.605 5759.55 502.545 5801.68 493.031C5805.3 492.125 5807.34 490.993 5807.8 489.634C5808.7 488.275 5808.7 485.33 5807.8 480.8C5805.53 465.397 5801.68 454.071 5796.24 446.823C5791.71 440.027 5792.62 435.271 5798.96 432.553ZM6275.32 957.835C6264.44 957.835 6255.16 952.625 6247.46 942.206C6240.21 931.333 6236.58 918.648 6236.58 904.152C6236.58 888.749 6240.21 876.064 6247.46 866.097C6255.16 855.678 6264.44 850.468 6275.32 850.468C6285.74 850.468 6294.57 855.678 6301.82 866.097C6309.52 876.064 6313.37 888.749 6313.37 904.152C6313.37 918.648 6309.52 931.333 6301.82 942.206C6294.57 952.625 6285.74 957.835 6275.32 957.835Z" fill="#CF623F"/>
</svg>
