<svg width="2470" height="81" viewBox="0 0 2470 81" fill="none" xmlns="http://www.w3.org/2000/svg">
<rect width="2469" height="81" fill="black"/>
<path d="M45.5756 37.3023H42.436V34.1628H45.5756V37.3023ZM45.5756 34.1628V31.0233H48.7151V34.1628H45.5756ZM20.4593 27.8837V24.7442H51.8546V31.0233H48.7151V27.8837H20.4593ZM29.8779 59.2791V56.1395H36.157V40.4419H39.2965V59.2791H29.8779ZM39.2965 40.4419V37.3023H42.436V40.4419H39.2965ZM61.261 59.2791V34.1628H70.6796V31.0233H73.8191V34.1628H76.9587V59.2791H70.6796V56.1395H73.8191V49.8605H64.4005V59.2791H61.261ZM61.261 31.0233V27.8837H64.4005V31.0233H61.261ZM89.5168 46.7209V49.8605H95.7959V53H89.5168V59.2791H86.3773V53H80.0982V49.8605H86.3773V46.7209H80.0982V40.4419H83.2377V43.5814H86.3773V40.4419H89.5168V43.5814H95.7959V46.7209H89.5168ZM89.5168 37.3023V34.1628H92.6563V27.8837H86.3773V34.1628H83.2377V27.8837H80.0982V24.7442H95.7959V37.3023H89.5168ZM73.8191 46.7209V43.5814H70.6796V46.7209H73.8191ZM73.8191 37.3023H70.6796V40.4419H73.8191V37.3023ZM73.8191 31.0233V27.8837H64.4005V24.7442H76.9587V31.0233H73.8191ZM83.2377 37.3023H80.0982V34.1628H83.2377V37.3023ZM67.54 46.7209V43.5814H64.4005V46.7209H67.54ZM67.54 37.3023H64.4005V40.4419H67.54V37.3023ZM102.063 49.8605V31.0233H117.76V24.7442H120.9V31.0233H136.598V49.8605H120.9V59.2791H117.76V49.8605H102.063ZM105.202 46.7209H117.76V34.1628H105.202V46.7209ZM133.458 46.7209V34.1628H120.9V46.7209H133.458ZM142.864 59.2791V56.1395H149.143V59.2791H142.864ZM142.864 34.1628V31.0233H158.562V24.7442H161.702V31.0233H177.399V34.1628H171.12V40.4419H167.981V34.1628H152.283V40.4419H149.143V34.1628H142.864ZM171.12 53V56.1395H164.841V53H171.12ZM171.12 56.1395H177.399V59.2791H171.12V56.1395ZM149.143 56.1395V53H155.422V56.1395H149.143ZM155.422 46.7209V43.5814H158.562V46.7209H155.422ZM155.422 53V49.8605H158.562V53H155.422ZM155.422 40.4419V43.5814H152.283V40.4419H155.422ZM161.702 46.7209V49.8605H158.562V46.7209H161.702ZM161.702 49.8605H164.841V53H161.702V49.8605ZM161.702 43.5814H164.841V46.7209H161.702V43.5814ZM167.981 40.4419V43.5814H164.841V40.4419H167.981ZM183.666 49.8605V46.7209H189.945V43.5814H196.224V40.4419H202.503V43.5814H215.061V59.2791H189.945V49.8605H183.666ZM183.666 37.3023V34.1628H189.945V37.3023H183.666ZM211.922 46.7209H193.085V56.1395H211.922V46.7209ZM211.922 34.1628H208.782V31.0233H193.085V24.7442H196.224V27.8837H211.922V34.1628ZM189.945 37.3023H196.224V40.4419H189.945V37.3023ZM189.945 34.1628V31.0233H193.085V34.1628H189.945ZM202.503 40.4419V37.3023H205.643V40.4419H202.503ZM208.782 37.3023H205.643V34.1628H208.782V37.3023ZM237.026 46.7209V49.8605H230.747V46.7209H237.026ZM237.026 49.8605H240.165V56.1395H237.026V49.8605ZM237.026 56.1395V59.2791H230.747V56.1395H237.026ZM227.607 49.8605H230.747V56.1395H227.607V49.8605ZM290.386 37.3023H287.246V34.1628H290.386V37.3023ZM290.386 34.1628V31.0233H293.525V34.1628H290.386ZM265.269 27.8837V24.7442H296.665V31.0233H293.525V27.8837H265.269ZM274.688 59.2791V56.1395H280.967V40.4419H284.107V59.2791H274.688ZM284.107 40.4419V37.3023H287.246V40.4419H284.107ZM306.071 59.2791V34.1628H315.49V31.0233H318.629V34.1628H321.769V59.2791H315.49V56.1395H318.629V49.8605H309.211V59.2791H306.071ZM306.071 31.0233V27.8837H309.211V31.0233H306.071ZM334.327 46.7209V49.8605H340.606V53H334.327V59.2791H331.187V53H324.908V49.8605H331.187V46.7209H324.908V40.4419H328.048V43.5814H331.187V40.4419H334.327V43.5814H340.606V46.7209H334.327ZM334.327 37.3023V34.1628H337.466V27.8837H331.187V34.1628H328.048V27.8837H324.908V24.7442H340.606V37.3023H334.327ZM318.629 46.7209V43.5814H315.49V46.7209H318.629ZM318.629 37.3023H315.49V40.4419H318.629V37.3023ZM318.629 31.0233V27.8837H309.211V24.7442H321.769V31.0233H318.629ZM328.048 37.3023H324.908V34.1628H328.048V37.3023ZM312.35 46.7209V43.5814H309.211V46.7209H312.35ZM312.35 37.3023H309.211V40.4419H312.35V37.3023ZM346.873 49.8605V31.0233H362.57V24.7442H365.71V31.0233H381.408V49.8605H365.71V59.2791H362.57V49.8605H346.873ZM350.012 46.7209H362.57V34.1628H350.012V46.7209ZM378.268 46.7209V34.1628H365.71V46.7209H378.268ZM387.674 59.2791V56.1395H393.954V59.2791H387.674ZM387.674 34.1628V31.0233H403.372V24.7442H406.512V31.0233H422.209V34.1628H415.93V40.4419H412.791V34.1628H397.093V40.4419H393.954V34.1628H387.674ZM415.93 53V56.1395H409.651V53H415.93ZM415.93 56.1395H422.209V59.2791H415.93V56.1395ZM393.954 56.1395V53H400.233V56.1395H393.954ZM400.233 46.7209V43.5814H403.372V46.7209H400.233ZM400.233 53V49.8605H403.372V53H400.233ZM400.233 40.4419V43.5814H397.093V40.4419H400.233ZM406.512 46.7209V49.8605H403.372V46.7209H406.512ZM406.512 49.8605H409.651V53H406.512V49.8605ZM406.512 43.5814H409.651V46.7209H406.512V43.5814ZM412.791 40.4419V43.5814H409.651V40.4419H412.791ZM428.476 49.8605V46.7209H434.755V43.5814H441.034V40.4419H447.313V43.5814H459.872V59.2791H434.755V49.8605H428.476ZM428.476 37.3023V34.1628H434.755V37.3023H428.476ZM456.732 46.7209H437.895V56.1395H456.732V46.7209ZM456.732 34.1628H453.592V31.0233H437.895V24.7442H441.034V27.8837H456.732V34.1628ZM434.755 37.3023H441.034V40.4419H434.755V37.3023ZM434.755 34.1628V31.0233H437.895V34.1628H434.755ZM447.313 40.4419V37.3023H450.453V40.4419H447.313ZM453.592 37.3023H450.453V34.1628H453.592V37.3023ZM481.836 46.7209V49.8605H475.557V46.7209H481.836ZM481.836 49.8605H484.976V56.1395H481.836V49.8605ZM481.836 56.1395V59.2791H475.557V56.1395H481.836ZM472.417 49.8605H475.557V56.1395H472.417V49.8605ZM535.196 37.3023H532.056V34.1628H535.196V37.3023ZM535.196 34.1628V31.0233H538.335V34.1628H535.196ZM510.08 27.8837V24.7442H541.475V31.0233H538.335V27.8837H510.08ZM519.498 59.2791V56.1395H525.777V40.4419H528.917V59.2791H519.498ZM528.917 40.4419V37.3023H532.056V40.4419H528.917ZM550.881 59.2791V34.1628H560.3V31.0233H563.439V34.1628H566.579V59.2791H560.3V56.1395H563.439V49.8605H554.021V59.2791H550.881ZM550.881 31.0233V27.8837H554.021V31.0233H550.881ZM579.137 46.7209V49.8605H585.416V53H579.137V59.2791H575.998V53H569.718V49.8605H575.998V46.7209H569.718V40.4419H572.858V43.5814H575.998V40.4419H579.137V43.5814H585.416V46.7209H579.137ZM579.137 37.3023V34.1628H582.277V27.8837H575.998V34.1628H572.858V27.8837H569.718V24.7442H585.416V37.3023H579.137ZM563.439 46.7209V43.5814H560.3V46.7209H563.439ZM563.439 37.3023H560.3V40.4419H563.439V37.3023ZM563.439 31.0233V27.8837H554.021V24.7442H566.579V31.0233H563.439ZM572.858 37.3023H569.718V34.1628H572.858V37.3023ZM557.16 46.7209V43.5814H554.021V46.7209H557.16ZM557.16 37.3023H554.021V40.4419H557.16V37.3023ZM591.683 49.8605V31.0233H607.381V24.7442H610.52V31.0233H626.218V49.8605H610.52V59.2791H607.381V49.8605H591.683ZM594.822 46.7209H607.381V34.1628H594.822V46.7209ZM623.078 46.7209V34.1628H610.52V46.7209H623.078ZM632.485 59.2791V56.1395H638.764V59.2791H632.485ZM632.485 34.1628V31.0233H648.182V24.7442H651.322V31.0233H667.02V34.1628H660.74V40.4419H657.601V34.1628H641.903V40.4419H638.764V34.1628H632.485ZM660.74 53V56.1395H654.461V53H660.74ZM660.74 56.1395H667.02V59.2791H660.74V56.1395ZM638.764 56.1395V53H645.043V56.1395H638.764ZM645.043 46.7209V43.5814H648.182V46.7209H645.043ZM645.043 53V49.8605H648.182V53H645.043ZM645.043 40.4419V43.5814H641.903V40.4419H645.043ZM651.322 46.7209V49.8605H648.182V46.7209H651.322ZM651.322 49.8605H654.461V53H651.322V49.8605ZM651.322 43.5814H654.461V46.7209H651.322V43.5814ZM657.601 40.4419V43.5814H654.461V40.4419H657.601ZM673.286 49.8605V46.7209H679.565V43.5814H685.844V40.4419H692.124V43.5814H704.682V59.2791H679.565V49.8605H673.286ZM673.286 37.3023V34.1628H679.565V37.3023H673.286ZM701.542 46.7209H682.705V56.1395H701.542V46.7209ZM701.542 34.1628H698.403V31.0233H682.705V24.7442H685.844V27.8837H701.542V34.1628ZM679.565 37.3023H685.844V40.4419H679.565V37.3023ZM679.565 34.1628V31.0233H682.705V34.1628H679.565ZM692.124 40.4419V37.3023H695.263V40.4419H692.124ZM698.403 37.3023H695.263V34.1628H698.403V37.3023ZM726.646 46.7209V49.8605H720.367V46.7209H726.646ZM726.646 49.8605H729.786V56.1395H726.646V49.8605ZM726.646 56.1395V59.2791H720.367V56.1395H726.646ZM717.228 49.8605H720.367V56.1395H717.228V49.8605ZM780.006 37.3023H776.866V34.1628H780.006V37.3023ZM780.006 34.1628V31.0233H783.146V34.1628H780.006ZM754.89 27.8837V24.7442H786.285V31.0233H783.146V27.8837H754.89ZM764.308 59.2791V56.1395H770.587V40.4419H773.727V59.2791H764.308ZM773.727 40.4419V37.3023H776.866V40.4419H773.727ZM795.691 59.2791V34.1628H805.11V31.0233H808.25V34.1628H811.389V59.2791H805.11V56.1395H808.25V49.8605H798.831V59.2791H795.691ZM795.691 31.0233V27.8837H798.831V31.0233H795.691ZM823.947 46.7209V49.8605H830.226V53H823.947V59.2791H820.808V53H814.529V49.8605H820.808V46.7209H814.529V40.4419H817.668V43.5814H820.808V40.4419H823.947V43.5814H830.226V46.7209H823.947ZM823.947 37.3023V34.1628H827.087V27.8837H820.808V34.1628H817.668V27.8837H814.529V24.7442H830.226V37.3023H823.947ZM808.25 46.7209V43.5814H805.11V46.7209H808.25ZM808.25 37.3023H805.11V40.4419H808.25V37.3023ZM808.25 31.0233V27.8837H798.831V24.7442H811.389V31.0233H808.25ZM817.668 37.3023H814.529V34.1628H817.668V37.3023ZM801.97 46.7209V43.5814H798.831V46.7209H801.97ZM801.97 37.3023H798.831V40.4419H801.97V37.3023ZM836.493 49.8605V31.0233H852.191V24.7442H855.33V31.0233H871.028V49.8605H855.33V59.2791H852.191V49.8605H836.493ZM839.633 46.7209H852.191V34.1628H839.633V46.7209ZM867.888 46.7209V34.1628H855.33V46.7209H867.888ZM877.295 59.2791V56.1395H883.574V59.2791H877.295ZM877.295 34.1628V31.0233H892.992V24.7442H896.132V31.0233H911.83V34.1628H905.551V40.4419H902.411V34.1628H886.713V40.4419H883.574V34.1628H877.295ZM905.551 53V56.1395H899.271V53H905.551ZM905.551 56.1395H911.83V59.2791H905.551V56.1395ZM883.574 56.1395V53H889.853V56.1395H883.574ZM889.853 46.7209V43.5814H892.992V46.7209H889.853ZM889.853 53V49.8605H892.992V53H889.853ZM889.853 40.4419V43.5814H886.713V40.4419H889.853ZM896.132 46.7209V49.8605H892.992V46.7209H896.132ZM896.132 49.8605H899.271V53H896.132V49.8605ZM896.132 43.5814H899.271V46.7209H896.132V43.5814ZM902.411 40.4419V43.5814H899.271V40.4419H902.411ZM918.096 49.8605V46.7209H924.376V43.5814H930.655V40.4419H936.934V43.5814H949.492V59.2791H924.376V49.8605H918.096ZM918.096 37.3023V34.1628H924.376V37.3023H918.096ZM946.352 46.7209H927.515V56.1395H946.352V46.7209ZM946.352 34.1628H943.213V31.0233H927.515V24.7442H930.655V27.8837H946.352V34.1628ZM924.376 37.3023H930.655V40.4419H924.376V37.3023ZM924.376 34.1628V31.0233H927.515V34.1628H924.376ZM936.934 40.4419V37.3023H940.073V40.4419H936.934ZM943.213 37.3023H940.073V34.1628H943.213V37.3023ZM971.456 46.7209V49.8605H965.177V46.7209H971.456ZM971.456 49.8605H974.596V56.1395H971.456V49.8605ZM971.456 56.1395V59.2791H965.177V56.1395H971.456ZM962.038 49.8605H965.177V56.1395H962.038V49.8605ZM1024.82 37.3023H1021.68V34.1628H1024.82V37.3023ZM1024.82 34.1628V31.0233H1027.96V34.1628H1024.82ZM999.7 27.8837V24.7442H1031.1V31.0233H1027.96V27.8837H999.7ZM1009.12 59.2791V56.1395H1015.4V40.4419H1018.54V59.2791H1009.12ZM1018.54 40.4419V37.3023H1021.68V40.4419H1018.54ZM1040.5 59.2791V34.1628H1049.92V31.0233H1053.06V34.1628H1056.2V59.2791H1049.92V56.1395H1053.06V49.8605H1043.64V59.2791H1040.5ZM1040.5 31.0233V27.8837H1043.64V31.0233H1040.5ZM1068.76 46.7209V49.8605H1075.04V53H1068.76V59.2791H1065.62V53H1059.34V49.8605H1065.62V46.7209H1059.34V40.4419H1062.48V43.5814H1065.62V40.4419H1068.76V43.5814H1075.04V46.7209H1068.76ZM1068.76 37.3023V34.1628H1071.9V27.8837H1065.62V34.1628H1062.48V27.8837H1059.34V24.7442H1075.04V37.3023H1068.76ZM1053.06 46.7209V43.5814H1049.92V46.7209H1053.06ZM1053.06 37.3023H1049.92V40.4419H1053.06V37.3023ZM1053.06 31.0233V27.8837H1043.64V24.7442H1056.2V31.0233H1053.06ZM1062.48 37.3023H1059.34V34.1628H1062.48V37.3023ZM1046.78 46.7209V43.5814H1043.64V46.7209H1046.78ZM1046.78 37.3023H1043.64V40.4419H1046.78V37.3023ZM1081.3 49.8605V31.0233H1097V24.7442H1100.14V31.0233H1115.84V49.8605H1100.14V59.2791H1097V49.8605H1081.3ZM1084.44 46.7209H1097V34.1628H1084.44V46.7209ZM1112.7 46.7209V34.1628H1100.14V46.7209H1112.7ZM1122.1 59.2791V56.1395H1128.38V59.2791H1122.1ZM1122.1 34.1628V31.0233H1137.8V24.7442H1140.94V31.0233H1156.64V34.1628H1150.36V40.4419H1147.22V34.1628H1131.52V40.4419H1128.38V34.1628H1122.1ZM1150.36 53V56.1395H1144.08V53H1150.36ZM1150.36 56.1395H1156.64V59.2791H1150.36V56.1395ZM1128.38 56.1395V53H1134.66V56.1395H1128.38ZM1134.66 46.7209V43.5814H1137.8V46.7209H1134.66ZM1134.66 53V49.8605H1137.8V53H1134.66ZM1134.66 40.4419V43.5814H1131.52V40.4419H1134.66ZM1140.94 46.7209V49.8605H1137.8V46.7209H1140.94ZM1140.94 49.8605H1144.08V53H1140.94V49.8605ZM1140.94 43.5814H1144.08V46.7209H1140.94V43.5814ZM1147.22 40.4419V43.5814H1144.08V40.4419H1147.22ZM1162.91 49.8605V46.7209H1169.19V43.5814H1175.46V40.4419H1181.74V43.5814H1194.3V59.2791H1169.19V49.8605H1162.91ZM1162.91 37.3023V34.1628H1169.19V37.3023H1162.91ZM1191.16 46.7209H1172.33V56.1395H1191.16V46.7209ZM1191.16 34.1628H1188.02V31.0233H1172.33V24.7442H1175.46V27.8837H1191.16V34.1628ZM1169.19 37.3023H1175.46V40.4419H1169.19V37.3023ZM1169.19 34.1628V31.0233H1172.33V34.1628H1169.19ZM1181.74 40.4419V37.3023H1184.88V40.4419H1181.74ZM1188.02 37.3023H1184.88V34.1628H1188.02V37.3023ZM1216.27 46.7209V49.8605H1209.99V46.7209H1216.27ZM1216.27 49.8605H1219.41V56.1395H1216.27V49.8605ZM1216.27 56.1395V59.2791H1209.99V56.1395H1216.27ZM1206.85 49.8605H1209.99V56.1395H1206.85V49.8605ZM1269.63 37.3023H1266.49V34.1628H1269.63V37.3023ZM1269.63 34.1628V31.0233H1272.77V34.1628H1269.63ZM1244.51 27.8837V24.7442H1275.91V31.0233H1272.77V27.8837H1244.51ZM1253.93 59.2791V56.1395H1260.21V40.4419H1263.35V59.2791H1253.93ZM1263.35 40.4419V37.3023H1266.49V40.4419H1263.35ZM1285.31 59.2791V34.1628H1294.73V31.0233H1297.87V34.1628H1301.01V59.2791H1294.73V56.1395H1297.87V49.8605H1288.45V59.2791H1285.31ZM1285.31 31.0233V27.8837H1288.45V31.0233H1285.31ZM1313.57 46.7209V49.8605H1319.85V53H1313.57V59.2791H1310.43V53H1304.15V49.8605H1310.43V46.7209H1304.15V40.4419H1307.29V43.5814H1310.43V40.4419H1313.57V43.5814H1319.85V46.7209H1313.57ZM1313.57 37.3023V34.1628H1316.71V27.8837H1310.43V34.1628H1307.29V27.8837H1304.15V24.7442H1319.85V37.3023H1313.57ZM1297.87 46.7209V43.5814H1294.73V46.7209H1297.87ZM1297.87 37.3023H1294.73V40.4419H1297.87V37.3023ZM1297.87 31.0233V27.8837H1288.45V24.7442H1301.01V31.0233H1297.87ZM1307.29 37.3023H1304.15V34.1628H1307.29V37.3023ZM1291.59 46.7209V43.5814H1288.45V46.7209H1291.59ZM1291.59 37.3023H1288.45V40.4419H1291.59V37.3023ZM1326.11 49.8605V31.0233H1341.81V24.7442H1344.95V31.0233H1360.65V49.8605H1344.95V59.2791H1341.81V49.8605H1326.11ZM1329.25 46.7209H1341.81V34.1628H1329.25V46.7209ZM1357.51 46.7209V34.1628H1344.95V46.7209H1357.51ZM1366.91 59.2791V56.1395H1373.19V59.2791H1366.91ZM1366.91 34.1628V31.0233H1382.61V24.7442H1385.75V31.0233H1401.45V34.1628H1395.17V40.4419H1392.03V34.1628H1376.33V40.4419H1373.19V34.1628H1366.91ZM1395.17 53V56.1395H1388.89V53H1395.17ZM1395.17 56.1395H1401.45V59.2791H1395.17V56.1395ZM1373.19 56.1395V53H1379.47V56.1395H1373.19ZM1379.47 46.7209V43.5814H1382.61V46.7209H1379.47ZM1379.47 53V49.8605H1382.61V53H1379.47ZM1379.47 40.4419V43.5814H1376.33V40.4419H1379.47ZM1385.75 46.7209V49.8605H1382.61V46.7209H1385.75ZM1385.75 49.8605H1388.89V53H1385.75V49.8605ZM1385.75 43.5814H1388.89V46.7209H1385.75V43.5814ZM1392.03 40.4419V43.5814H1388.89V40.4419H1392.03ZM1407.72 49.8605V46.7209H1414V43.5814H1420.27V40.4419H1426.55V43.5814H1439.11V59.2791H1414V49.8605H1407.72ZM1407.72 37.3023V34.1628H1414V37.3023H1407.72ZM1435.97 46.7209H1417.14V56.1395H1435.97V46.7209ZM1435.97 34.1628H1432.83V31.0233H1417.14V24.7442H1420.27V27.8837H1435.97V34.1628ZM1414 37.3023H1420.27V40.4419H1414V37.3023ZM1414 34.1628V31.0233H1417.14V34.1628H1414ZM1426.55 40.4419V37.3023H1429.69V40.4419H1426.55ZM1432.83 37.3023H1429.69V34.1628H1432.83V37.3023ZM1461.08 46.7209V49.8605H1454.8V46.7209H1461.08ZM1461.08 49.8605H1464.22V56.1395H1461.08V49.8605ZM1461.08 56.1395V59.2791H1454.8V56.1395H1461.08ZM1451.66 49.8605H1454.8V56.1395H1451.66V49.8605ZM1514.44 37.3023H1511.3V34.1628H1514.44V37.3023ZM1514.44 34.1628V31.0233H1517.58V34.1628H1514.44ZM1489.32 27.8837V24.7442H1520.72V31.0233H1517.58V27.8837H1489.32ZM1498.74 59.2791V56.1395H1505.02V40.4419H1508.16V59.2791H1498.74ZM1508.16 40.4419V37.3023H1511.3V40.4419H1508.16ZM1530.12 59.2791V34.1628H1539.54V31.0233H1542.68V34.1628H1545.82V59.2791H1539.54V56.1395H1542.68V49.8605H1533.26V59.2791H1530.12ZM1530.12 31.0233V27.8837H1533.26V31.0233H1530.12ZM1558.38 46.7209V49.8605H1564.66V53H1558.38V59.2791H1555.24V53H1548.96V49.8605H1555.24V46.7209H1548.96V40.4419H1552.1V43.5814H1555.24V40.4419H1558.38V43.5814H1564.66V46.7209H1558.38ZM1558.38 37.3023V34.1628H1561.52V27.8837H1555.24V34.1628H1552.1V27.8837H1548.96V24.7442H1564.66V37.3023H1558.38ZM1542.68 46.7209V43.5814H1539.54V46.7209H1542.68ZM1542.68 37.3023H1539.54V40.4419H1542.68V37.3023ZM1542.68 31.0233V27.8837H1533.26V24.7442H1545.82V31.0233H1542.68ZM1552.1 37.3023H1548.96V34.1628H1552.1V37.3023ZM1536.4 46.7209V43.5814H1533.26V46.7209H1536.4ZM1536.4 37.3023H1533.26V40.4419H1536.4V37.3023ZM1570.92 49.8605V31.0233H1586.62V24.7442H1589.76V31.0233H1605.46V49.8605H1589.76V59.2791H1586.62V49.8605H1570.92ZM1574.06 46.7209H1586.62V34.1628H1574.06V46.7209ZM1602.32 46.7209V34.1628H1589.76V46.7209H1602.32ZM1611.73 59.2791V56.1395H1618V59.2791H1611.73ZM1611.73 34.1628V31.0233H1627.42V24.7442H1630.56V31.0233H1646.26V34.1628H1639.98V40.4419H1636.84V34.1628H1621.14V40.4419H1618V34.1628H1611.73ZM1639.98 53V56.1395H1633.7V53H1639.98ZM1639.98 56.1395H1646.26V59.2791H1639.98V56.1395ZM1618 56.1395V53H1624.28V56.1395H1618ZM1624.28 46.7209V43.5814H1627.42V46.7209H1624.28ZM1624.28 53V49.8605H1627.42V53H1624.28ZM1624.28 40.4419V43.5814H1621.14V40.4419H1624.28ZM1630.56 46.7209V49.8605H1627.42V46.7209H1630.56ZM1630.56 49.8605H1633.7V53H1630.56V49.8605ZM1630.56 43.5814H1633.7V46.7209H1630.56V43.5814ZM1636.84 40.4419V43.5814H1633.7V40.4419H1636.84ZM1652.53 49.8605V46.7209H1658.81V43.5814H1665.09V40.4419H1671.36V43.5814H1683.92V59.2791H1658.81V49.8605H1652.53ZM1652.53 37.3023V34.1628H1658.81V37.3023H1652.53ZM1680.78 46.7209H1661.95V56.1395H1680.78V46.7209ZM1680.78 34.1628H1677.64V31.0233H1661.95V24.7442H1665.09V27.8837H1680.78V34.1628ZM1658.81 37.3023H1665.09V40.4419H1658.81V37.3023ZM1658.81 34.1628V31.0233H1661.95V34.1628H1658.81ZM1671.36 40.4419V37.3023H1674.5V40.4419H1671.36ZM1677.64 37.3023H1674.5V34.1628H1677.64V37.3023ZM1705.89 46.7209V49.8605H1699.61V46.7209H1705.89ZM1705.89 49.8605H1709.03V56.1395H1705.89V49.8605ZM1705.89 56.1395V59.2791H1699.61V56.1395H1705.89ZM1696.47 49.8605H1699.61V56.1395H1696.47V49.8605ZM1759.25 37.3023H1756.11V34.1628H1759.25V37.3023ZM1759.25 34.1628V31.0233H1762.39V34.1628H1759.25ZM1734.13 27.8837V24.7442H1765.53V31.0233H1762.39V27.8837H1734.13ZM1743.55 59.2791V56.1395H1749.83V40.4419H1752.97V59.2791H1743.55ZM1752.97 40.4419V37.3023H1756.11V40.4419H1752.97ZM1774.93 59.2791V34.1628H1784.35V31.0233H1787.49V34.1628H1790.63V59.2791H1784.35V56.1395H1787.49V49.8605H1778.07V59.2791H1774.93ZM1774.93 31.0233V27.8837H1778.07V31.0233H1774.93ZM1803.19 46.7209V49.8605H1809.47V53H1803.19V59.2791H1800.05V53H1793.77V49.8605H1800.05V46.7209H1793.77V40.4419H1796.91V43.5814H1800.05V40.4419H1803.19V43.5814H1809.47V46.7209H1803.19ZM1803.19 37.3023V34.1628H1806.33V27.8837H1800.05V34.1628H1796.91V27.8837H1793.77V24.7442H1809.47V37.3023H1803.19ZM1787.49 46.7209V43.5814H1784.35V46.7209H1787.49ZM1787.49 37.3023H1784.35V40.4419H1787.49V37.3023ZM1787.49 31.0233V27.8837H1778.07V24.7442H1790.63V31.0233H1787.49ZM1796.91 37.3023H1793.77V34.1628H1796.91V37.3023ZM1781.21 46.7209V43.5814H1778.07V46.7209H1781.21ZM1781.21 37.3023H1778.07V40.4419H1781.21V37.3023ZM1815.73 49.8605V31.0233H1831.43V24.7442H1834.57V31.0233H1850.27V49.8605H1834.57V59.2791H1831.43V49.8605H1815.73ZM1818.87 46.7209H1831.43V34.1628H1818.87V46.7209ZM1847.13 46.7209V34.1628H1834.57V46.7209H1847.13ZM1856.54 59.2791V56.1395H1862.81V59.2791H1856.54ZM1856.54 34.1628V31.0233H1872.23V24.7442H1875.37V31.0233H1891.07V34.1628H1884.79V40.4419H1881.65V34.1628H1865.95V40.4419H1862.81V34.1628H1856.54ZM1884.79 53V56.1395H1878.51V53H1884.79ZM1884.79 56.1395H1891.07V59.2791H1884.79V56.1395ZM1862.81 56.1395V53H1869.09V56.1395H1862.81ZM1869.09 46.7209V43.5814H1872.23V46.7209H1869.09ZM1869.09 53V49.8605H1872.23V53H1869.09ZM1869.09 40.4419V43.5814H1865.95V40.4419H1869.09ZM1875.37 46.7209V49.8605H1872.23V46.7209H1875.37ZM1875.37 49.8605H1878.51V53H1875.37V49.8605ZM1875.37 43.5814H1878.51V46.7209H1875.37V43.5814ZM1881.65 40.4419V43.5814H1878.51V40.4419H1881.65ZM1897.34 49.8605V46.7209H1903.62V43.5814H1909.9V40.4419H1916.17V43.5814H1928.73V59.2791H1903.62V49.8605H1897.34ZM1897.34 37.3023V34.1628H1903.62V37.3023H1897.34ZM1925.59 46.7209H1906.76V56.1395H1925.59V46.7209ZM1925.59 34.1628H1922.45V31.0233H1906.76V24.7442H1909.9V27.8837H1925.59V34.1628ZM1903.62 37.3023H1909.9V40.4419H1903.62V37.3023ZM1903.62 34.1628V31.0233H1906.76V34.1628H1903.62ZM1916.17 40.4419V37.3023H1919.31V40.4419H1916.17ZM1922.45 37.3023H1919.31V34.1628H1922.45V37.3023ZM1950.7 46.7209V49.8605H1944.42V46.7209H1950.7ZM1950.7 49.8605H1953.84V56.1395H1950.7V49.8605ZM1950.7 56.1395V59.2791H1944.42V56.1395H1950.7ZM1941.28 49.8605H1944.42V56.1395H1941.28V49.8605ZM2004.06 37.3023H2000.92V34.1628H2004.06V37.3023ZM2004.06 34.1628V31.0233H2007.2V34.1628H2004.06ZM1978.94 27.8837V24.7442H2010.34V31.0233H2007.2V27.8837H1978.94ZM1988.36 59.2791V56.1395H1994.64V40.4419H1997.78V59.2791H1988.36ZM1997.78 40.4419V37.3023H2000.92V40.4419H1997.78ZM2019.74 59.2791V34.1628H2029.16V31.0233H2032.3V34.1628H2035.44V59.2791H2029.16V56.1395H2032.3V49.8605H2022.88V59.2791H2019.74ZM2019.74 31.0233V27.8837H2022.88V31.0233H2019.74ZM2048 46.7209V49.8605H2054.28V53H2048V59.2791H2044.86V53H2038.58V49.8605H2044.86V46.7209H2038.58V40.4419H2041.72V43.5814H2044.86V40.4419H2048V43.5814H2054.28V46.7209H2048ZM2048 37.3023V34.1628H2051.14V27.8837H2044.86V34.1628H2041.72V27.8837H2038.58V24.7442H2054.28V37.3023H2048ZM2032.3 46.7209V43.5814H2029.16V46.7209H2032.3ZM2032.3 37.3023H2029.16V40.4419H2032.3V37.3023ZM2032.3 31.0233V27.8837H2022.88V24.7442H2035.44V31.0233H2032.3ZM2041.72 37.3023H2038.58V34.1628H2041.72V37.3023ZM2026.02 46.7209V43.5814H2022.88V46.7209H2026.02ZM2026.02 37.3023H2022.88V40.4419H2026.02V37.3023ZM2060.54 49.8605V31.0233H2076.24V24.7442H2079.38V31.0233H2095.08V49.8605H2079.38V59.2791H2076.24V49.8605H2060.54ZM2063.68 46.7209H2076.24V34.1628H2063.68V46.7209ZM2091.94 46.7209V34.1628H2079.38V46.7209H2091.94ZM2101.35 59.2791V56.1395H2107.62V59.2791H2101.35ZM2101.35 34.1628V31.0233H2117.04V24.7442H2120.18V31.0233H2135.88V34.1628H2129.6V40.4419H2126.46V34.1628H2110.76V40.4419H2107.62V34.1628H2101.35ZM2129.6 53V56.1395H2123.32V53H2129.6ZM2129.6 56.1395H2135.88V59.2791H2129.6V56.1395ZM2107.62 56.1395V53H2113.9V56.1395H2107.62ZM2113.9 46.7209V43.5814H2117.04V46.7209H2113.9ZM2113.9 53V49.8605H2117.04V53H2113.9ZM2113.9 40.4419V43.5814H2110.76V40.4419H2113.9ZM2120.18 46.7209V49.8605H2117.04V46.7209H2120.18ZM2120.18 49.8605H2123.32V53H2120.18V49.8605ZM2120.18 43.5814H2123.32V46.7209H2120.18V43.5814ZM2126.46 40.4419V43.5814H2123.32V40.4419H2126.46ZM2142.15 49.8605V46.7209H2148.43V43.5814H2154.71V40.4419H2160.98V43.5814H2173.54V59.2791H2148.43V49.8605H2142.15ZM2142.15 37.3023V34.1628H2148.43V37.3023H2142.15ZM2170.4 46.7209H2151.57V56.1395H2170.4V46.7209ZM2170.4 34.1628H2167.26V31.0233H2151.57V24.7442H2154.71V27.8837H2170.4V34.1628ZM2148.43 37.3023H2154.71V40.4419H2148.43V37.3023ZM2148.43 34.1628V31.0233H2151.57V34.1628H2148.43ZM2160.98 40.4419V37.3023H2164.12V40.4419H2160.98ZM2167.26 37.3023H2164.12V34.1628H2167.26V37.3023ZM2195.51 46.7209V49.8605H2189.23V46.7209H2195.51ZM2195.51 49.8605H2198.65V56.1395H2195.51V49.8605ZM2195.51 56.1395V59.2791H2189.23V56.1395H2195.51ZM2186.09 49.8605H2189.23V56.1395H2186.09V49.8605ZM2248.87 37.3023H2245.73V34.1628H2248.87V37.3023ZM2248.87 34.1628V31.0233H2252.01V34.1628H2248.87ZM2223.75 27.8837V24.7442H2255.15V31.0233H2252.01V27.8837H2223.75ZM2233.17 59.2791V56.1395H2239.45V40.4419H2242.59V59.2791H2233.17ZM2242.59 40.4419V37.3023H2245.73V40.4419H2242.59ZM2264.55 59.2791V34.1628H2273.97V31.0233H2277.11V34.1628H2280.25V59.2791H2273.97V56.1395H2277.11V49.8605H2267.69V59.2791H2264.55ZM2264.55 31.0233V27.8837H2267.69V31.0233H2264.55ZM2292.81 46.7209V49.8605H2299.09V53H2292.81V59.2791H2289.67V53H2283.39V49.8605H2289.67V46.7209H2283.39V40.4419H2286.53V43.5814H2289.67V40.4419H2292.81V43.5814H2299.09V46.7209H2292.81ZM2292.81 37.3023V34.1628H2295.95V27.8837H2289.67V34.1628H2286.53V27.8837H2283.39V24.7442H2299.09V37.3023H2292.81ZM2277.11 46.7209V43.5814H2273.97V46.7209H2277.11ZM2277.11 37.3023H2273.97V40.4419H2277.11V37.3023ZM2277.11 31.0233V27.8837H2267.69V24.7442H2280.25V31.0233H2277.11ZM2286.53 37.3023H2283.39V34.1628H2286.53V37.3023ZM2270.83 46.7209V43.5814H2267.69V46.7209H2270.83ZM2270.83 37.3023H2267.69V40.4419H2270.83V37.3023ZM2305.35 49.8605V31.0233H2321.05V24.7442H2324.19V31.0233H2339.89V49.8605H2324.19V59.2791H2321.05V49.8605H2305.35ZM2308.49 46.7209H2321.05V34.1628H2308.49V46.7209ZM2336.75 46.7209V34.1628H2324.19V46.7209H2336.75ZM2346.16 59.2791V56.1395H2352.43V59.2791H2346.16ZM2346.16 34.1628V31.0233H2361.85V24.7442H2364.99V31.0233H2380.69V34.1628H2374.41V40.4419H2371.27V34.1628H2355.57V40.4419H2352.43V34.1628H2346.16ZM2374.41 53V56.1395H2368.13V53H2374.41ZM2374.41 56.1395H2380.69V59.2791H2374.41V56.1395ZM2352.43 56.1395V53H2358.71V56.1395H2352.43ZM2358.71 46.7209V43.5814H2361.85V46.7209H2358.71ZM2358.71 53V49.8605H2361.85V53H2358.71ZM2358.71 40.4419V43.5814H2355.57V40.4419H2358.71ZM2364.99 46.7209V49.8605H2361.85V46.7209H2364.99ZM2364.99 49.8605H2368.13V53H2364.99V49.8605ZM2364.99 43.5814H2368.13V46.7209H2364.99V43.5814ZM2371.27 40.4419V43.5814H2368.13V40.4419H2371.27ZM2386.96 49.8605V46.7209H2393.24V43.5814H2399.52V40.4419H2405.79V43.5814H2418.35V59.2791H2393.24V49.8605H2386.96ZM2386.96 37.3023V34.1628H2393.24V37.3023H2386.96ZM2415.21 46.7209H2396.38V56.1395H2415.21V46.7209ZM2415.21 34.1628H2412.07V31.0233H2396.38V24.7442H2399.52V27.8837H2415.21V34.1628ZM2393.24 37.3023H2399.52V40.4419H2393.24V37.3023ZM2393.24 34.1628V31.0233H2396.38V34.1628H2393.24ZM2405.79 40.4419V37.3023H2408.93V40.4419H2405.79ZM2412.07 37.3023H2408.93V34.1628H2412.07V37.3023ZM2440.32 46.7209V49.8605H2434.04V46.7209H2440.32ZM2440.32 49.8605H2443.46V56.1395H2440.32V49.8605ZM2440.32 56.1395V59.2791H2434.04V56.1395H2440.32ZM2430.9 49.8605H2434.04V56.1395H2430.9V49.8605Z" fill="#CF623F"/>
</svg>
