<svg width="4441" height="81" viewBox="0 0 4441 81" fill="none" xmlns="http://www.w3.org/2000/svg">
<rect width="4440" height="81" fill="black"/>
<path d="M20.4593 49.8605V31.0233H36.157V24.7442H39.2965V31.0233H54.9942V49.8605H39.2965V59.2791H36.157V49.8605H20.4593ZM23.5988 46.7209H36.157V34.1628H23.5988V46.7209ZM51.8546 46.7209V34.1628H39.2965V46.7209H51.8546ZM61.261 59.2791V56.1395H67.54V59.2791H61.261ZM61.261 34.1628V31.0233H76.9587V24.7442H80.0982V31.0233H95.7959V34.1628H89.5168V40.4419H86.3773V34.1628H70.6796V40.4419H67.54V34.1628H61.261ZM89.5168 53V56.1395H83.2377V53H89.5168ZM89.5168 56.1395H95.7959V59.2791H89.5168V56.1395ZM67.54 56.1395V53H73.8191V56.1395H67.54ZM73.8191 46.7209V43.5814H76.9587V46.7209H73.8191ZM73.8191 53V49.8605H76.9587V53H73.8191ZM73.8191 40.4419V43.5814H70.6796V40.4419H73.8191ZM80.0982 46.7209V49.8605H76.9587V46.7209H80.0982ZM80.0982 49.8605H83.2377V53H80.0982V49.8605ZM80.0982 43.5814H83.2377V46.7209H80.0982V43.5814ZM86.3773 40.4419V43.5814H83.2377V40.4419H86.3773ZM102.063 49.8605V46.7209H108.342V43.5814H114.621V40.4419H120.9V43.5814H133.458V59.2791H108.342V49.8605H102.063ZM102.063 37.3023V34.1628H108.342V37.3023H102.063ZM130.318 46.7209H111.481V56.1395H130.318V46.7209ZM130.318 34.1628H127.179V31.0233H111.481V24.7442H114.621V27.8837H130.318V34.1628ZM108.342 37.3023H114.621V40.4419H108.342V37.3023ZM108.342 34.1628V31.0233H111.481V34.1628H108.342ZM120.9 40.4419V37.3023H124.039V40.4419H120.9ZM127.179 37.3023H124.039V34.1628H127.179V37.3023ZM142.864 49.8605V46.7209H158.562V43.5814H161.702V46.7209H177.399V49.8605H161.702V59.2791H152.283V56.1395H158.562V49.8605H142.864ZM142.864 37.3023V27.8837H158.562V24.7442H161.702V27.8837H177.399V37.3023H174.26V31.0233H146.004V37.3023H142.864ZM171.12 40.4419H167.981V37.3023H149.143V34.1628H171.12V40.4419ZM161.702 43.5814V40.4419H167.981V43.5814H161.702ZM196.224 56.1395H193.085V53H189.945V46.7209H196.224V56.1395ZM189.945 59.2791V56.1395H193.085V59.2791H189.945ZM246.457 37.3023H243.317V34.1628H246.457V37.3023ZM246.457 34.1628V31.0233H249.596V34.1628H246.457ZM221.34 27.8837V24.7442H252.736V31.0233H249.596V27.8837H221.34ZM230.759 59.2791V56.1395H237.038V40.4419H240.178V59.2791H230.759ZM240.178 40.4419V37.3023H243.317V40.4419H240.178ZM262.142 59.2791V34.1628H271.561V31.0233H274.7V34.1628H277.84V59.2791H271.561V56.1395H274.7V49.8605H265.282V59.2791H262.142ZM262.142 31.0233V27.8837H265.282V31.0233H262.142ZM290.398 46.7209V49.8605H296.677V53H290.398V59.2791H287.258V53H280.979V49.8605H287.258V46.7209H280.979V40.4419H284.119V43.5814H287.258V40.4419H290.398V43.5814H296.677V46.7209H290.398ZM290.398 37.3023V34.1628H293.538V27.8837H287.258V34.1628H284.119V27.8837H280.979V24.7442H296.677V37.3023H290.398ZM274.7 46.7209V43.5814H271.561V46.7209H274.7ZM274.7 37.3023H271.561V40.4419H274.7V37.3023ZM274.7 31.0233V27.8837H265.282V24.7442H277.84V31.0233H274.7ZM284.119 37.3023H280.979V34.1628H284.119V37.3023ZM268.421 46.7209V43.5814H265.282V46.7209H268.421ZM268.421 37.3023H265.282V40.4419H268.421V37.3023ZM302.944 40.4419V37.3023H337.479V40.4419H302.944ZM368.862 37.3023V40.4419H365.722V37.3023H368.862ZM368.862 40.4419H372.001V43.5814H368.862V40.4419ZM343.746 27.8837V24.7442H378.28V27.8837H359.443V59.2791H356.304V27.8837H343.746ZM372.001 46.7209V43.5814H375.141V46.7209H372.001ZM362.583 37.3023V34.1628H365.722V37.3023H362.583ZM390.826 49.8605H393.966V56.1395H390.826V49.8605ZM390.826 43.5814V27.8837H393.966V43.5814H390.826ZM422.222 49.8605V31.0233H437.919V24.7442H441.059V31.0233H456.757V49.8605H441.059V59.2791H437.919V49.8605H422.222ZM425.361 46.7209H437.919V34.1628H425.361V46.7209ZM453.617 46.7209V34.1628H441.059V46.7209H453.617ZM463.023 59.2791V56.1395H469.302V59.2791H463.023ZM463.023 34.1628V31.0233H478.721V24.7442H481.861V31.0233H497.558V34.1628H491.279V40.4419H488.14V34.1628H472.442V40.4419H469.302V34.1628H463.023ZM491.279 53V56.1395H485V53H491.279ZM491.279 56.1395H497.558V59.2791H491.279V56.1395ZM469.302 56.1395V53H475.581V56.1395H469.302ZM475.581 46.7209V43.5814H478.721V46.7209H475.581ZM475.581 53V49.8605H478.721V53H475.581ZM475.581 40.4419V43.5814H472.442V40.4419H475.581ZM481.861 46.7209V49.8605H478.721V46.7209H481.861ZM481.861 49.8605H485V53H481.861V49.8605ZM481.861 43.5814H485V46.7209H481.861V43.5814ZM488.14 40.4419V43.5814H485V40.4419H488.14ZM503.825 49.8605V46.7209H510.104V43.5814H516.383V40.4419H522.662V43.5814H535.22V59.2791H510.104V49.8605H503.825ZM503.825 37.3023V34.1628H510.104V37.3023H503.825ZM532.081 46.7209H513.244V56.1395H532.081V46.7209ZM532.081 34.1628H528.941V31.0233H513.244V24.7442H516.383V27.8837H532.081V34.1628ZM510.104 37.3023H516.383V40.4419H510.104V37.3023ZM510.104 34.1628V31.0233H513.244V34.1628H510.104ZM522.662 40.4419V37.3023H525.802V40.4419H522.662ZM528.941 37.3023H525.802V34.1628H528.941V37.3023ZM544.627 49.8605V46.7209H560.324V43.5814H563.464V46.7209H579.162V49.8605H563.464V59.2791H554.045V56.1395H560.324V49.8605H544.627ZM544.627 37.3023V27.8837H560.324V24.7442H563.464V27.8837H579.162V37.3023H576.022V31.0233H547.766V37.3023H544.627ZM572.883 40.4419H569.743V37.3023H550.906V34.1628H572.883V40.4419ZM563.464 43.5814V40.4419H569.743V43.5814H563.464ZM597.987 56.1395H594.847V53H591.707V46.7209H597.987V56.1395ZM591.707 59.2791V56.1395H594.847V59.2791H591.707ZM648.219 37.3023H645.08V34.1628H648.219V37.3023ZM648.219 34.1628V31.0233H651.359V34.1628H648.219ZM623.103 27.8837V24.7442H654.498V31.0233H651.359V27.8837H623.103ZM632.521 59.2791V56.1395H638.801V40.4419H641.94V59.2791H632.521ZM641.94 40.4419V37.3023H645.08V40.4419H641.94ZM663.904 59.2791V34.1628H673.323V31.0233H676.463V34.1628H679.602V59.2791H673.323V56.1395H676.463V49.8605H667.044V59.2791H663.904ZM663.904 31.0233V27.8837H667.044V31.0233H663.904ZM692.16 46.7209V49.8605H698.439V53H692.16V59.2791H689.021V53H682.742V49.8605H689.021V46.7209H682.742V40.4419H685.881V43.5814H689.021V40.4419H692.16V43.5814H698.439V46.7209H692.16ZM692.16 37.3023V34.1628H695.3V27.8837H689.021V34.1628H685.881V27.8837H682.742V24.7442H698.439V37.3023H692.16ZM676.463 46.7209V43.5814H673.323V46.7209H676.463ZM676.463 37.3023H673.323V40.4419H676.463V37.3023ZM676.463 31.0233V27.8837H667.044V24.7442H679.602V31.0233H676.463ZM685.881 37.3023H682.742V34.1628H685.881V37.3023ZM670.184 46.7209V43.5814H667.044V46.7209H670.184ZM670.184 37.3023H667.044V40.4419H670.184V37.3023ZM704.706 40.4419V37.3023H739.241V40.4419H704.706ZM770.624 37.3023V40.4419H767.485V37.3023H770.624ZM770.624 40.4419H773.764V43.5814H770.624V40.4419ZM745.508 27.8837V24.7442H780.043V27.8837H761.206V59.2791H758.066V27.8837H745.508ZM773.764 46.7209V43.5814H776.903V46.7209H773.764ZM764.345 37.3023V34.1628H767.485V37.3023H764.345ZM792.589 49.8605H795.728V56.1395H792.589V49.8605ZM792.589 43.5814V27.8837H795.728V43.5814H792.589ZM823.984 49.8605V31.0233H839.682V24.7442H842.821V31.0233H858.519V49.8605H842.821V59.2791H839.682V49.8605H823.984ZM827.124 46.7209H839.682V34.1628H827.124V46.7209ZM855.379 46.7209V34.1628H842.821V46.7209H855.379ZM864.786 59.2791V56.1395H871.065V59.2791H864.786ZM864.786 34.1628V31.0233H880.483V24.7442H883.623V31.0233H899.321V34.1628H893.042V40.4419H889.902V34.1628H874.204V40.4419H871.065V34.1628H864.786ZM893.042 53V56.1395H886.762V53H893.042ZM893.042 56.1395H899.321V59.2791H893.042V56.1395ZM871.065 56.1395V53H877.344V56.1395H871.065ZM877.344 46.7209V43.5814H880.483V46.7209H877.344ZM877.344 53V49.8605H880.483V53H877.344ZM877.344 40.4419V43.5814H874.204V40.4419H877.344ZM883.623 46.7209V49.8605H880.483V46.7209H883.623ZM883.623 49.8605H886.762V53H883.623V49.8605ZM883.623 43.5814H886.762V46.7209H883.623V43.5814ZM889.902 40.4419V43.5814H886.762V40.4419H889.902ZM905.587 49.8605V46.7209H911.866V43.5814H918.145V40.4419H924.425V43.5814H936.983V59.2791H911.866V49.8605H905.587ZM905.587 37.3023V34.1628H911.866V37.3023H905.587ZM933.843 46.7209H915.006V56.1395H933.843V46.7209ZM933.843 34.1628H930.704V31.0233H915.006V24.7442H918.145V27.8837H933.843V34.1628ZM911.866 37.3023H918.145V40.4419H911.866V37.3023ZM911.866 34.1628V31.0233H915.006V34.1628H911.866ZM924.425 40.4419V37.3023H927.564V40.4419H924.425ZM930.704 37.3023H927.564V34.1628H930.704V37.3023ZM946.389 49.8605V46.7209H962.087V43.5814H965.226V46.7209H980.924V49.8605H965.226V59.2791H955.808V56.1395H962.087V49.8605H946.389ZM946.389 37.3023V27.8837H962.087V24.7442H965.226V27.8837H980.924V37.3023H977.784V31.0233H949.529V37.3023H946.389ZM974.645 40.4419H971.505V37.3023H952.668V34.1628H974.645V40.4419ZM965.226 43.5814V40.4419H971.505V43.5814H965.226ZM999.749 56.1395H996.609V53H993.47V46.7209H999.749V56.1395ZM993.47 59.2791V56.1395H996.609V59.2791H993.47ZM1049.98 37.3023H1046.84V34.1628H1049.98V37.3023ZM1049.98 34.1628V31.0233H1053.12V34.1628H1049.98ZM1024.87 27.8837V24.7442H1056.26V31.0233H1053.12V27.8837H1024.87ZM1034.28 59.2791V56.1395H1040.56V40.4419H1043.7V59.2791H1034.28ZM1043.7 40.4419V37.3023H1046.84V40.4419H1043.7ZM1065.67 59.2791V34.1628H1075.09V31.0233H1078.22V34.1628H1081.36V59.2791H1075.09V56.1395H1078.22V49.8605H1068.81V59.2791H1065.67ZM1065.67 31.0233V27.8837H1068.81V31.0233H1065.67ZM1093.92 46.7209V49.8605H1100.2V53H1093.92V59.2791H1090.78V53H1084.5V49.8605H1090.78V46.7209H1084.5V40.4419H1087.64V43.5814H1090.78V40.4419H1093.92V43.5814H1100.2V46.7209H1093.92ZM1093.92 37.3023V34.1628H1097.06V27.8837H1090.78V34.1628H1087.64V27.8837H1084.5V24.7442H1100.2V37.3023H1093.92ZM1078.22 46.7209V43.5814H1075.09V46.7209H1078.22ZM1078.22 37.3023H1075.09V40.4419H1078.22V37.3023ZM1078.22 31.0233V27.8837H1068.81V24.7442H1081.36V31.0233H1078.22ZM1087.64 37.3023H1084.5V34.1628H1087.64V37.3023ZM1071.95 46.7209V43.5814H1068.81V46.7209H1071.95ZM1071.95 37.3023H1068.81V40.4419H1071.95V37.3023ZM1106.47 40.4419V37.3023H1141V40.4419H1106.47ZM1172.39 37.3023V40.4419H1169.25V37.3023H1172.39ZM1172.39 40.4419H1175.53V43.5814H1172.39V40.4419ZM1147.27 27.8837V24.7442H1181.81V27.8837H1162.97V59.2791H1159.83V27.8837H1147.27ZM1175.53 46.7209V43.5814H1178.67V46.7209H1175.53ZM1166.11 37.3023V34.1628H1169.25V37.3023H1166.11ZM1194.35 49.8605H1197.49V56.1395H1194.35V49.8605ZM1194.35 43.5814V27.8837H1197.49V43.5814H1194.35ZM1225.75 49.8605V31.0233H1241.44V24.7442H1244.58V31.0233H1260.28V49.8605H1244.58V59.2791H1241.44V49.8605H1225.75ZM1228.89 46.7209H1241.44V34.1628H1228.89V46.7209ZM1257.14 46.7209V34.1628H1244.58V46.7209H1257.14ZM1266.55 59.2791V56.1395H1272.83V59.2791H1266.55ZM1266.55 34.1628V31.0233H1282.25V24.7442H1285.39V31.0233H1301.08V34.1628H1294.8V40.4419H1291.66V34.1628H1275.97V40.4419H1272.83V34.1628H1266.55ZM1294.8 53V56.1395H1288.52V53H1294.8ZM1294.8 56.1395H1301.08V59.2791H1294.8V56.1395ZM1272.83 56.1395V53H1279.11V56.1395H1272.83ZM1279.11 46.7209V43.5814H1282.25V46.7209H1279.11ZM1279.11 53V49.8605H1282.25V53H1279.11ZM1279.11 40.4419V43.5814H1275.97V40.4419H1279.11ZM1285.39 46.7209V49.8605H1282.25V46.7209H1285.39ZM1285.39 49.8605H1288.52V53H1285.39V49.8605ZM1285.39 43.5814H1288.52V46.7209H1285.39V43.5814ZM1291.66 40.4419V43.5814H1288.52V40.4419H1291.66ZM1307.35 49.8605V46.7209H1313.63V43.5814H1319.91V40.4419H1326.19V43.5814H1338.75V59.2791H1313.63V49.8605H1307.35ZM1307.35 37.3023V34.1628H1313.63V37.3023H1307.35ZM1335.61 46.7209H1316.77V56.1395H1335.61V46.7209ZM1335.61 34.1628H1332.47V31.0233H1316.77V24.7442H1319.91V27.8837H1335.61V34.1628ZM1313.63 37.3023H1319.91V40.4419H1313.63V37.3023ZM1313.63 34.1628V31.0233H1316.77V34.1628H1313.63ZM1326.19 40.4419V37.3023H1329.33V40.4419H1326.19ZM1332.47 37.3023H1329.33V34.1628H1332.47V37.3023ZM1348.15 49.8605V46.7209H1363.85V43.5814H1366.99V46.7209H1382.69V49.8605H1366.99V59.2791H1357.57V56.1395H1363.85V49.8605H1348.15ZM1348.15 37.3023V27.8837H1363.85V24.7442H1366.99V27.8837H1382.69V37.3023H1379.55V31.0233H1351.29V37.3023H1348.15ZM1376.41 40.4419H1373.27V37.3023H1354.43V34.1628H1376.41V40.4419ZM1366.99 43.5814V40.4419H1373.27V43.5814H1366.99ZM1401.51 56.1395H1398.37V53H1395.23V46.7209H1401.51V56.1395ZM1395.23 59.2791V56.1395H1398.37V59.2791H1395.23ZM1451.74 37.3023H1448.6V34.1628H1451.74V37.3023ZM1451.74 34.1628V31.0233H1454.88V34.1628H1451.74ZM1426.63 27.8837V24.7442H1458.02V31.0233H1454.88V27.8837H1426.63ZM1436.05 59.2791V56.1395H1442.33V40.4419H1445.46V59.2791H1436.05ZM1445.46 40.4419V37.3023H1448.6V40.4419H1445.46ZM1467.43 59.2791V34.1628H1476.85V31.0233H1479.99V34.1628H1483.13V59.2791H1476.85V56.1395H1479.99V49.8605H1470.57V59.2791H1467.43ZM1467.43 31.0233V27.8837H1470.57V31.0233H1467.43ZM1495.69 46.7209V49.8605H1501.96V53H1495.69V59.2791H1492.55V53H1486.27V49.8605H1492.55V46.7209H1486.27V40.4419H1489.41V43.5814H1492.55V40.4419H1495.69V43.5814H1501.96V46.7209H1495.69ZM1495.69 37.3023V34.1628H1498.82V27.8837H1492.55V34.1628H1489.41V27.8837H1486.27V24.7442H1501.96V37.3023H1495.69ZM1479.99 46.7209V43.5814H1476.85V46.7209H1479.99ZM1479.99 37.3023H1476.85V40.4419H1479.99V37.3023ZM1479.99 31.0233V27.8837H1470.57V24.7442H1483.13V31.0233H1479.99ZM1489.41 37.3023H1486.27V34.1628H1489.41V37.3023ZM1473.71 46.7209V43.5814H1470.57V46.7209H1473.71ZM1473.71 37.3023H1470.57V40.4419H1473.71V37.3023ZM1508.23 40.4419V37.3023H1542.77V40.4419H1508.23ZM1574.15 37.3023V40.4419H1571.01V37.3023H1574.15ZM1574.15 40.4419H1577.29V43.5814H1574.15V40.4419ZM1549.03 27.8837V24.7442H1583.57V27.8837H1564.73V59.2791H1561.59V27.8837H1549.03ZM1577.29 46.7209V43.5814H1580.43V46.7209H1577.29ZM1567.87 37.3023V34.1628H1571.01V37.3023H1567.87ZM1596.11 49.8605H1599.25V56.1395H1596.11V49.8605ZM1596.11 43.5814V27.8837H1599.25V43.5814H1596.11ZM1627.51 49.8605V31.0233H1643.21V24.7442H1646.35V31.0233H1662.04V49.8605H1646.35V59.2791H1643.21V49.8605H1627.51ZM1630.65 46.7209H1643.21V34.1628H1630.65V46.7209ZM1658.9 46.7209V34.1628H1646.35V46.7209H1658.9ZM1668.31 59.2791V56.1395H1674.59V59.2791H1668.31ZM1668.31 34.1628V31.0233H1684.01V24.7442H1687.15V31.0233H1702.85V34.1628H1696.57V40.4419H1693.43V34.1628H1677.73V40.4419H1674.59V34.1628H1668.31ZM1696.57 53V56.1395H1690.29V53H1696.57ZM1696.57 56.1395H1702.85V59.2791H1696.57V56.1395ZM1674.59 56.1395V53H1680.87V56.1395H1674.59ZM1680.87 46.7209V43.5814H1684.01V46.7209H1680.87ZM1680.87 53V49.8605H1684.01V53H1680.87ZM1680.87 40.4419V43.5814H1677.73V40.4419H1680.87ZM1687.15 46.7209V49.8605H1684.01V46.7209H1687.15ZM1687.15 49.8605H1690.29V53H1687.15V49.8605ZM1687.15 43.5814H1690.29V46.7209H1687.15V43.5814ZM1693.43 40.4419V43.5814H1690.29V40.4419H1693.43ZM1709.11 49.8605V46.7209H1715.39V43.5814H1721.67V40.4419H1727.95V43.5814H1740.51V59.2791H1715.39V49.8605H1709.11ZM1709.11 37.3023V34.1628H1715.39V37.3023H1709.11ZM1737.37 46.7209H1718.53V56.1395H1737.37V46.7209ZM1737.37 34.1628H1734.23V31.0233H1718.53V24.7442H1721.67V27.8837H1737.37V34.1628ZM1715.39 37.3023H1721.67V40.4419H1715.39V37.3023ZM1715.39 34.1628V31.0233H1718.53V34.1628H1715.39ZM1727.95 40.4419V37.3023H1731.09V40.4419H1727.95ZM1734.23 37.3023H1731.09V34.1628H1734.23V37.3023ZM1749.91 49.8605V46.7209H1765.61V43.5814H1768.75V46.7209H1784.45V49.8605H1768.75V59.2791H1759.33V56.1395H1765.61V49.8605H1749.91ZM1749.91 37.3023V27.8837H1765.61V24.7442H1768.75V27.8837H1784.45V37.3023H1781.31V31.0233H1753.05V37.3023H1749.91ZM1778.17 40.4419H1775.03V37.3023H1756.19V34.1628H1778.17V40.4419ZM1768.75 43.5814V40.4419H1775.03V43.5814H1768.75ZM1803.27 56.1395H1800.13V53H1796.99V46.7209H1803.27V56.1395ZM1796.99 59.2791V56.1395H1800.13V59.2791H1796.99ZM1853.51 37.3023H1850.37V34.1628H1853.51V37.3023ZM1853.51 34.1628V31.0233H1856.65V34.1628H1853.51ZM1828.39 27.8837V24.7442H1859.79V31.0233H1856.65V27.8837H1828.39ZM1837.81 59.2791V56.1395H1844.09V40.4419H1847.23V59.2791H1837.81ZM1847.23 40.4419V37.3023H1850.37V40.4419H1847.23ZM1869.19 59.2791V34.1628H1878.61V31.0233H1881.75V34.1628H1884.89V59.2791H1878.61V56.1395H1881.75V49.8605H1872.33V59.2791H1869.19ZM1869.19 31.0233V27.8837H1872.33V31.0233H1869.19ZM1897.45 46.7209V49.8605H1903.73V53H1897.45V59.2791H1894.31V53H1888.03V49.8605H1894.31V46.7209H1888.03V40.4419H1891.17V43.5814H1894.31V40.4419H1897.45V43.5814H1903.73V46.7209H1897.45ZM1897.45 37.3023V34.1628H1900.59V27.8837H1894.31V34.1628H1891.17V27.8837H1888.03V24.7442H1903.73V37.3023H1897.45ZM1881.75 46.7209V43.5814H1878.61V46.7209H1881.75ZM1881.75 37.3023H1878.61V40.4419H1881.75V37.3023ZM1881.75 31.0233V27.8837H1872.33V24.7442H1884.89V31.0233H1881.75ZM1891.17 37.3023H1888.03V34.1628H1891.17V37.3023ZM1875.47 46.7209V43.5814H1872.33V46.7209H1875.47ZM1875.47 37.3023H1872.33V40.4419H1875.47V37.3023ZM1909.99 40.4419V37.3023H1944.53V40.4419H1909.99ZM1975.91 37.3023V40.4419H1972.77V37.3023H1975.91ZM1975.91 40.4419H1979.05V43.5814H1975.91V40.4419ZM1950.79 27.8837V24.7442H1985.33V27.8837H1966.49V59.2791H1963.35V27.8837H1950.79ZM1979.05 46.7209V43.5814H1982.19V46.7209H1979.05ZM1969.63 37.3023V34.1628H1972.77V37.3023H1969.63ZM1997.88 49.8605H2001.02V56.1395H1997.88V49.8605ZM1997.88 43.5814V27.8837H2001.02V43.5814H1997.88ZM2029.27 49.8605V31.0233H2044.97V24.7442H2048.11V31.0233H2063.81V49.8605H2048.11V59.2791H2044.97V49.8605H2029.27ZM2032.41 46.7209H2044.97V34.1628H2032.41V46.7209ZM2060.67 46.7209V34.1628H2048.11V46.7209H2060.67ZM2070.07 59.2791V56.1395H2076.35V59.2791H2070.07ZM2070.07 34.1628V31.0233H2085.77V24.7442H2088.91V31.0233H2104.61V34.1628H2098.33V40.4419H2095.19V34.1628H2079.49V40.4419H2076.35V34.1628H2070.07ZM2098.33 53V56.1395H2092.05V53H2098.33ZM2098.33 56.1395H2104.61V59.2791H2098.33V56.1395ZM2076.35 56.1395V53H2082.63V56.1395H2076.35ZM2082.63 46.7209V43.5814H2085.77V46.7209H2082.63ZM2082.63 53V49.8605H2085.77V53H2082.63ZM2082.63 40.4419V43.5814H2079.49V40.4419H2082.63ZM2088.91 46.7209V49.8605H2085.77V46.7209H2088.91ZM2088.91 49.8605H2092.05V53H2088.91V49.8605ZM2088.91 43.5814H2092.05V46.7209H2088.91V43.5814ZM2095.19 40.4419V43.5814H2092.05V40.4419H2095.19ZM2110.87 49.8605V46.7209H2117.15V43.5814H2123.43V40.4419H2129.71V43.5814H2142.27V59.2791H2117.15V49.8605H2110.87ZM2110.87 37.3023V34.1628H2117.15V37.3023H2110.87ZM2139.13 46.7209H2120.29V56.1395H2139.13V46.7209ZM2139.13 34.1628H2135.99V31.0233H2120.29V24.7442H2123.43V27.8837H2139.13V34.1628ZM2117.15 37.3023H2123.43V40.4419H2117.15V37.3023ZM2117.15 34.1628V31.0233H2120.29V34.1628H2117.15ZM2129.71 40.4419V37.3023H2132.85V40.4419H2129.71ZM2135.99 37.3023H2132.85V34.1628H2135.99V37.3023ZM2151.68 49.8605V46.7209H2167.37V43.5814H2170.51V46.7209H2186.21V49.8605H2170.51V59.2791H2161.09V56.1395H2167.37V49.8605H2151.68ZM2151.68 37.3023V27.8837H2167.37V24.7442H2170.51V27.8837H2186.21V37.3023H2183.07V31.0233H2154.82V37.3023H2151.68ZM2179.93 40.4419H2176.79V37.3023H2157.96V34.1628H2179.93V40.4419ZM2170.51 43.5814V40.4419H2176.79V43.5814H2170.51ZM2205.04 56.1395H2201.9V53H2198.76V46.7209H2205.04V56.1395ZM2198.76 59.2791V56.1395H2201.9V59.2791H2198.76ZM2255.27 37.3023H2252.13V34.1628H2255.27V37.3023ZM2255.27 34.1628V31.0233H2258.41V34.1628H2255.27ZM2230.15 27.8837V24.7442H2261.55V31.0233H2258.41V27.8837H2230.15ZM2239.57 59.2791V56.1395H2245.85V40.4419H2248.99V59.2791H2239.57ZM2248.99 40.4419V37.3023H2252.13V40.4419H2248.99ZM2270.95 59.2791V34.1628H2280.37V31.0233H2283.51V34.1628H2286.65V59.2791H2280.37V56.1395H2283.51V49.8605H2274.09V59.2791H2270.95ZM2270.95 31.0233V27.8837H2274.09V31.0233H2270.95ZM2299.21 46.7209V49.8605H2305.49V53H2299.21V59.2791H2296.07V53H2289.79V49.8605H2296.07V46.7209H2289.79V40.4419H2292.93V43.5814H2296.07V40.4419H2299.21V43.5814H2305.49V46.7209H2299.21ZM2299.21 37.3023V34.1628H2302.35V27.8837H2296.07V34.1628H2292.93V27.8837H2289.79V24.7442H2305.49V37.3023H2299.21ZM2283.51 46.7209V43.5814H2280.37V46.7209H2283.51ZM2283.51 37.3023H2280.37V40.4419H2283.51V37.3023ZM2283.51 31.0233V27.8837H2274.09V24.7442H2286.65V31.0233H2283.51ZM2292.93 37.3023H2289.79V34.1628H2292.93V37.3023ZM2277.23 46.7209V43.5814H2274.09V46.7209H2277.23ZM2277.23 37.3023H2274.09V40.4419H2277.23V37.3023ZM2311.76 40.4419V37.3023H2346.29V40.4419H2311.76ZM2377.67 37.3023V40.4419H2374.53V37.3023H2377.67ZM2377.67 40.4419H2380.81V43.5814H2377.67V40.4419ZM2352.56 27.8837V24.7442H2387.09V27.8837H2368.25V59.2791H2365.12V27.8837H2352.56ZM2380.81 46.7209V43.5814H2383.95V46.7209H2380.81ZM2371.39 37.3023V34.1628H2374.53V37.3023H2371.39ZM2399.64 49.8605H2402.78V56.1395H2399.64V49.8605ZM2399.64 43.5814V27.8837H2402.78V43.5814H2399.64ZM2431.03 49.8605V31.0233H2446.73V24.7442H2449.87V31.0233H2465.57V49.8605H2449.87V59.2791H2446.73V49.8605H2431.03ZM2434.17 46.7209H2446.73V34.1628H2434.17V46.7209ZM2462.43 46.7209V34.1628H2449.87V46.7209H2462.43ZM2471.84 59.2791V56.1395H2478.11V59.2791H2471.84ZM2471.84 34.1628V31.0233H2487.53V24.7442H2490.67V31.0233H2506.37V34.1628H2500.09V40.4419H2496.95V34.1628H2481.25V40.4419H2478.11V34.1628H2471.84ZM2500.09 53V56.1395H2493.81V53H2500.09ZM2500.09 56.1395H2506.37V59.2791H2500.09V56.1395ZM2478.11 56.1395V53H2484.39V56.1395H2478.11ZM2484.39 46.7209V43.5814H2487.53V46.7209H2484.39ZM2484.39 53V49.8605H2487.53V53H2484.39ZM2484.39 40.4419V43.5814H2481.25V40.4419H2484.39ZM2490.67 46.7209V49.8605H2487.53V46.7209H2490.67ZM2490.67 49.8605H2493.81V53H2490.67V49.8605ZM2490.67 43.5814H2493.81V46.7209H2490.67V43.5814ZM2496.95 40.4419V43.5814H2493.81V40.4419H2496.95ZM2512.64 49.8605V46.7209H2518.92V43.5814H2525.19V40.4419H2531.47V43.5814H2544.03V59.2791H2518.92V49.8605H2512.64ZM2512.64 37.3023V34.1628H2518.92V37.3023H2512.64ZM2540.89 46.7209H2522.06V56.1395H2540.89V46.7209ZM2540.89 34.1628H2537.75V31.0233H2522.06V24.7442H2525.19V27.8837H2540.89V34.1628ZM2518.92 37.3023H2525.19V40.4419H2518.92V37.3023ZM2518.92 34.1628V31.0233H2522.06V34.1628H2518.92ZM2531.47 40.4419V37.3023H2534.61V40.4419H2531.47ZM2537.75 37.3023H2534.61V34.1628H2537.75V37.3023ZM2553.44 49.8605V46.7209H2569.14V43.5814H2572.28V46.7209H2587.97V49.8605H2572.28V59.2791H2562.86V56.1395H2569.14V49.8605H2553.44ZM2553.44 37.3023V27.8837H2569.14V24.7442H2572.28V27.8837H2587.97V37.3023H2584.83V31.0233H2556.58V37.3023H2553.44ZM2581.69 40.4419H2578.55V37.3023H2559.72V34.1628H2581.69V40.4419ZM2572.28 43.5814V40.4419H2578.55V43.5814H2572.28ZM2606.8 56.1395H2603.66V53H2600.52V46.7209H2606.8V56.1395ZM2600.52 59.2791V56.1395H2603.66V59.2791H2600.52ZM2657.03 37.3023H2653.89V34.1628H2657.03V37.3023ZM2657.03 34.1628V31.0233H2660.17V34.1628H2657.03ZM2631.91 27.8837V24.7442H2663.31V31.0233H2660.17V27.8837H2631.91ZM2641.33 59.2791V56.1395H2647.61V40.4419H2650.75V59.2791H2641.33ZM2650.75 40.4419V37.3023H2653.89V40.4419H2650.75ZM2672.72 59.2791V34.1628H2682.13V31.0233H2685.27V34.1628H2688.41V59.2791H2682.13V56.1395H2685.27V49.8605H2675.86V59.2791H2672.72ZM2672.72 31.0233V27.8837H2675.86V31.0233H2672.72ZM2700.97 46.7209V49.8605H2707.25V53H2700.97V59.2791H2697.83V53H2691.55V49.8605H2697.83V46.7209H2691.55V40.4419H2694.69V43.5814H2697.83V40.4419H2700.97V43.5814H2707.25V46.7209H2700.97ZM2700.97 37.3023V34.1628H2704.11V27.8837H2697.83V34.1628H2694.69V27.8837H2691.55V24.7442H2707.25V37.3023H2700.97ZM2685.27 46.7209V43.5814H2682.13V46.7209H2685.27ZM2685.27 37.3023H2682.13V40.4419H2685.27V37.3023ZM2685.27 31.0233V27.8837H2675.86V24.7442H2688.41V31.0233H2685.27ZM2694.69 37.3023H2691.55V34.1628H2694.69V37.3023ZM2679 46.7209V43.5814H2675.86V46.7209H2679ZM2679 37.3023H2675.86V40.4419H2679V37.3023ZM2713.52 40.4419V37.3023H2748.05V40.4419H2713.52ZM2779.44 37.3023V40.4419H2776.3V37.3023H2779.44ZM2779.44 40.4419H2782.58V43.5814H2779.44V40.4419ZM2754.32 27.8837V24.7442H2788.85V27.8837H2770.02V59.2791H2766.88V27.8837H2754.32ZM2782.58 46.7209V43.5814H2785.71V46.7209H2782.58ZM2773.16 37.3023V34.1628H2776.3V37.3023H2773.16ZM2801.4 49.8605H2804.54V56.1395H2801.4V49.8605ZM2801.4 43.5814V27.8837H2804.54V43.5814H2801.4ZM2832.8 49.8605V31.0233H2848.49V24.7442H2851.63V31.0233H2867.33V49.8605H2851.63V59.2791H2848.49V49.8605H2832.8ZM2835.94 46.7209H2848.49V34.1628H2835.94V46.7209ZM2864.19 46.7209V34.1628H2851.63V46.7209H2864.19ZM2873.6 59.2791V56.1395H2879.88V59.2791H2873.6ZM2873.6 34.1628V31.0233H2889.3V24.7442H2892.43V31.0233H2908.13V34.1628H2901.85V40.4419H2898.71V34.1628H2883.02V40.4419H2879.88V34.1628H2873.6ZM2901.85 53V56.1395H2895.57V53H2901.85ZM2901.85 56.1395H2908.13V59.2791H2901.85V56.1395ZM2879.88 56.1395V53H2886.16V56.1395H2879.88ZM2886.16 46.7209V43.5814H2889.3V46.7209H2886.16ZM2886.16 53V49.8605H2889.3V53H2886.16ZM2886.16 40.4419V43.5814H2883.02V40.4419H2886.16ZM2892.43 46.7209V49.8605H2889.3V46.7209H2892.43ZM2892.43 49.8605H2895.57V53H2892.43V49.8605ZM2892.43 43.5814H2895.57V46.7209H2892.43V43.5814ZM2898.71 40.4419V43.5814H2895.57V40.4419H2898.71ZM2914.4 49.8605V46.7209H2920.68V43.5814H2926.96V40.4419H2933.24V43.5814H2945.79V59.2791H2920.68V49.8605H2914.4ZM2914.4 37.3023V34.1628H2920.68V37.3023H2914.4ZM2942.66 46.7209H2923.82V56.1395H2942.66V46.7209ZM2942.66 34.1628H2939.52V31.0233H2923.82V24.7442H2926.96V27.8837H2942.66V34.1628ZM2920.68 37.3023H2926.96V40.4419H2920.68V37.3023ZM2920.68 34.1628V31.0233H2923.82V34.1628H2920.68ZM2933.24 40.4419V37.3023H2936.38V40.4419H2933.24ZM2939.52 37.3023H2936.38V34.1628H2939.52V37.3023ZM2955.2 49.8605V46.7209H2970.9V43.5814H2974.04V46.7209H2989.74V49.8605H2974.04V59.2791H2964.62V56.1395H2970.9V49.8605H2955.2ZM2955.2 37.3023V27.8837H2970.9V24.7442H2974.04V27.8837H2989.74V37.3023H2986.6V31.0233H2958.34V37.3023H2955.2ZM2983.46 40.4419H2980.32V37.3023H2961.48V34.1628H2983.46V40.4419ZM2974.04 43.5814V40.4419H2980.32V43.5814H2974.04ZM3008.56 56.1395H3005.42V53H3002.28V46.7209H3008.56V56.1395ZM3002.28 59.2791V56.1395H3005.42V59.2791H3002.28ZM3058.79 37.3023H3055.65V34.1628H3058.79V37.3023ZM3058.79 34.1628V31.0233H3061.93V34.1628H3058.79ZM3033.68 27.8837V24.7442H3065.07V31.0233H3061.93V27.8837H3033.68ZM3043.1 59.2791V56.1395H3049.37V40.4419H3052.51V59.2791H3043.1ZM3052.51 40.4419V37.3023H3055.65V40.4419H3052.51ZM3074.48 59.2791V34.1628H3083.9V31.0233H3087.04V34.1628H3090.18V59.2791H3083.9V56.1395H3087.04V49.8605H3077.62V59.2791H3074.48ZM3074.48 31.0233V27.8837H3077.62V31.0233H3074.48ZM3102.73 46.7209V49.8605H3109.01V53H3102.73V59.2791H3099.59V53H3093.32V49.8605H3099.59V46.7209H3093.32V40.4419H3096.46V43.5814H3099.59V40.4419H3102.73V43.5814H3109.01V46.7209H3102.73ZM3102.73 37.3023V34.1628H3105.87V27.8837H3099.59V34.1628H3096.46V27.8837H3093.32V24.7442H3109.01V37.3023H3102.73ZM3087.04 46.7209V43.5814H3083.9V46.7209H3087.04ZM3087.04 37.3023H3083.9V40.4419H3087.04V37.3023ZM3087.04 31.0233V27.8837H3077.62V24.7442H3090.18V31.0233H3087.04ZM3096.46 37.3023H3093.32V34.1628H3096.46V37.3023ZM3080.76 46.7209V43.5814H3077.62V46.7209H3080.76ZM3080.76 37.3023H3077.62V40.4419H3080.76V37.3023ZM3115.28 40.4419V37.3023H3149.82V40.4419H3115.28ZM3181.2 37.3023V40.4419H3178.06V37.3023H3181.2ZM3181.2 40.4419H3184.34V43.5814H3181.2V40.4419ZM3156.08 27.8837V24.7442H3190.62V27.8837H3171.78V59.2791H3168.64V27.8837H3156.08ZM3184.34 46.7209V43.5814H3187.48V46.7209H3184.34ZM3174.92 37.3023V34.1628H3178.06V37.3023H3174.92ZM3203.16 49.8605H3206.3V56.1395H3203.16V49.8605ZM3203.16 43.5814V27.8837H3206.3V43.5814H3203.16ZM3234.56 49.8605V31.0233H3250.26V24.7442H3253.4V31.0233H3269.09V49.8605H3253.4V59.2791H3250.26V49.8605H3234.56ZM3237.7 46.7209H3250.26V34.1628H3237.7V46.7209ZM3265.95 46.7209V34.1628H3253.4V46.7209H3265.95ZM3275.36 59.2791V56.1395H3281.64V59.2791H3275.36ZM3275.36 34.1628V31.0233H3291.06V24.7442H3294.2V31.0233H3309.89V34.1628H3303.62V40.4419H3300.48V34.1628H3284.78V40.4419H3281.64V34.1628H3275.36ZM3303.62 53V56.1395H3297.34V53H3303.62ZM3303.62 56.1395H3309.89V59.2791H3303.62V56.1395ZM3281.64 56.1395V53H3287.92V56.1395H3281.64ZM3287.92 46.7209V43.5814H3291.06V46.7209H3287.92ZM3287.92 53V49.8605H3291.06V53H3287.92ZM3287.92 40.4419V43.5814H3284.78V40.4419H3287.92ZM3294.2 46.7209V49.8605H3291.06V46.7209H3294.2ZM3294.2 49.8605H3297.34V53H3294.2V49.8605ZM3294.2 43.5814H3297.34V46.7209H3294.2V43.5814ZM3300.48 40.4419V43.5814H3297.34V40.4419H3300.48ZM3316.16 49.8605V46.7209H3322.44V43.5814H3328.72V40.4419H3335V43.5814H3347.56V59.2791H3322.44V49.8605H3316.16ZM3316.16 37.3023V34.1628H3322.44V37.3023H3316.16ZM3344.42 46.7209H3325.58V56.1395H3344.42V46.7209ZM3344.42 34.1628H3341.28V31.0233H3325.58V24.7442H3328.72V27.8837H3344.42V34.1628ZM3322.44 37.3023H3328.72V40.4419H3322.44V37.3023ZM3322.44 34.1628V31.0233H3325.58V34.1628H3322.44ZM3335 40.4419V37.3023H3338.14V40.4419H3335ZM3341.28 37.3023H3338.14V34.1628H3341.28V37.3023ZM3356.96 49.8605V46.7209H3372.66V43.5814H3375.8V46.7209H3391.5V49.8605H3375.8V59.2791H3366.38V56.1395H3372.66V49.8605H3356.96ZM3356.96 37.3023V27.8837H3372.66V24.7442H3375.8V27.8837H3391.5V37.3023H3388.36V31.0233H3360.1V37.3023H3356.96ZM3385.22 40.4419H3382.08V37.3023H3363.24V34.1628H3385.22V40.4419ZM3375.8 43.5814V40.4419H3382.08V43.5814H3375.8ZM3410.32 56.1395H3407.18V53H3404.04V46.7209H3410.32V56.1395ZM3404.04 59.2791V56.1395H3407.18V59.2791H3404.04ZM3460.56 37.3023H3457.42V34.1628H3460.56V37.3023ZM3460.56 34.1628V31.0233H3463.7V34.1628H3460.56ZM3435.44 27.8837V24.7442H3466.83V31.0233H3463.7V27.8837H3435.44ZM3444.86 59.2791V56.1395H3451.14V40.4419H3454.28V59.2791H3444.86ZM3454.28 40.4419V37.3023H3457.42V40.4419H3454.28ZM3476.24 59.2791V34.1628H3485.66V31.0233H3488.8V34.1628H3491.94V59.2791H3485.66V56.1395H3488.8V49.8605H3479.38V59.2791H3476.24ZM3476.24 31.0233V27.8837H3479.38V31.0233H3476.24ZM3504.5 46.7209V49.8605H3510.78V53H3504.5V59.2791H3501.36V53H3495.08V49.8605H3501.36V46.7209H3495.08V40.4419H3498.22V43.5814H3501.36V40.4419H3504.5V43.5814H3510.78V46.7209H3504.5ZM3504.5 37.3023V34.1628H3507.64V27.8837H3501.36V34.1628H3498.22V27.8837H3495.08V24.7442H3510.78V37.3023H3504.5ZM3488.8 46.7209V43.5814H3485.66V46.7209H3488.8ZM3488.8 37.3023H3485.66V40.4419H3488.8V37.3023ZM3488.8 31.0233V27.8837H3479.38V24.7442H3491.94V31.0233H3488.8ZM3498.22 37.3023H3495.08V34.1628H3498.22V37.3023ZM3482.52 46.7209V43.5814H3479.38V46.7209H3482.52ZM3482.52 37.3023H3479.38V40.4419H3482.52V37.3023ZM3517.04 40.4419V37.3023H3551.58V40.4419H3517.04ZM3582.96 37.3023V40.4419H3579.82V37.3023H3582.96ZM3582.96 40.4419H3586.1V43.5814H3582.96V40.4419ZM3557.84 27.8837V24.7442H3592.38V27.8837H3573.54V59.2791H3570.4V27.8837H3557.84ZM3586.1 46.7209V43.5814H3589.24V46.7209H3586.1ZM3576.68 37.3023V34.1628H3579.82V37.3023H3576.68ZM3604.93 49.8605H3608.06V56.1395H3604.93V49.8605ZM3604.93 43.5814V27.8837H3608.06V43.5814H3604.93ZM3636.32 49.8605V31.0233H3652.02V24.7442H3655.16V31.0233H3670.86V49.8605H3655.16V59.2791H3652.02V49.8605H3636.32ZM3639.46 46.7209H3652.02V34.1628H3639.46V46.7209ZM3667.72 46.7209V34.1628H3655.16V46.7209H3667.72ZM3677.12 59.2791V56.1395H3683.4V59.2791H3677.12ZM3677.12 34.1628V31.0233H3692.82V24.7442H3695.96V31.0233H3711.66V34.1628H3705.38V40.4419H3702.24V34.1628H3686.54V40.4419H3683.4V34.1628H3677.12ZM3705.38 53V56.1395H3699.1V53H3705.38ZM3705.38 56.1395H3711.66V59.2791H3705.38V56.1395ZM3683.4 56.1395V53H3689.68V56.1395H3683.4ZM3689.68 46.7209V43.5814H3692.82V46.7209H3689.68ZM3689.68 53V49.8605H3692.82V53H3689.68ZM3689.68 40.4419V43.5814H3686.54V40.4419H3689.68ZM3695.96 46.7209V49.8605H3692.82V46.7209H3695.96ZM3695.96 49.8605H3699.1V53H3695.96V49.8605ZM3695.96 43.5814H3699.1V46.7209H3695.96V43.5814ZM3702.24 40.4419V43.5814H3699.1V40.4419H3702.24ZM3717.92 49.8605V46.7209H3724.2V43.5814H3730.48V40.4419H3736.76V43.5814H3749.32V59.2791H3724.2V49.8605H3717.92ZM3717.92 37.3023V34.1628H3724.2V37.3023H3717.92ZM3746.18 46.7209H3727.34V56.1395H3746.18V46.7209ZM3746.18 34.1628H3743.04V31.0233H3727.34V24.7442H3730.48V27.8837H3746.18V34.1628ZM3724.2 37.3023H3730.48V40.4419H3724.2V37.3023ZM3724.2 34.1628V31.0233H3727.34V34.1628H3724.2ZM3736.76 40.4419V37.3023H3739.9V40.4419H3736.76ZM3743.04 37.3023H3739.9V34.1628H3743.04V37.3023ZM3758.73 49.8605V46.7209H3774.42V43.5814H3777.56V46.7209H3793.26V49.8605H3777.56V59.2791H3768.14V56.1395H3774.42V49.8605H3758.73ZM3758.73 37.3023V27.8837H3774.42V24.7442H3777.56V27.8837H3793.26V37.3023H3790.12V31.0233H3761.86V37.3023H3758.73ZM3786.98 40.4419H3783.84V37.3023H3765V34.1628H3786.98V40.4419ZM3777.56 43.5814V40.4419H3783.84V43.5814H3777.56ZM3812.09 56.1395H3808.95V53H3805.81V46.7209H3812.09V56.1395ZM3805.81 59.2791V56.1395H3808.95V59.2791H3805.81ZM3862.32 37.3023H3859.18V34.1628H3862.32V37.3023ZM3862.32 34.1628V31.0233H3865.46V34.1628H3862.32ZM3837.2 27.8837V24.7442H3868.6V31.0233H3865.46V27.8837H3837.2ZM3846.62 59.2791V56.1395H3852.9V40.4419H3856.04V59.2791H3846.62ZM3856.04 40.4419V37.3023H3859.18V40.4419H3856.04ZM3878 59.2791V34.1628H3887.42V31.0233H3890.56V34.1628H3893.7V59.2791H3887.42V56.1395H3890.56V49.8605H3881.14V59.2791H3878ZM3878 31.0233V27.8837H3881.14V31.0233H3878ZM3906.26 46.7209V49.8605H3912.54V53H3906.26V59.2791H3903.12V53H3896.84V49.8605H3903.12V46.7209H3896.84V40.4419H3899.98V43.5814H3903.12V40.4419H3906.26V43.5814H3912.54V46.7209H3906.26ZM3906.26 37.3023V34.1628H3909.4V27.8837H3903.12V34.1628H3899.98V27.8837H3896.84V24.7442H3912.54V37.3023H3906.26ZM3890.56 46.7209V43.5814H3887.42V46.7209H3890.56ZM3890.56 37.3023H3887.42V40.4419H3890.56V37.3023ZM3890.56 31.0233V27.8837H3881.14V24.7442H3893.7V31.0233H3890.56ZM3899.98 37.3023H3896.84V34.1628H3899.98V37.3023ZM3884.28 46.7209V43.5814H3881.14V46.7209H3884.28ZM3884.28 37.3023H3881.14V40.4419H3884.28V37.3023ZM3918.8 40.4419V37.3023H3953.34V40.4419H3918.8ZM3984.72 37.3023V40.4419H3981.58V37.3023H3984.72ZM3984.72 40.4419H3987.86V43.5814H3984.72V40.4419ZM3959.61 27.8837V24.7442H3994.14V27.8837H3975.3V59.2791H3972.16V27.8837H3959.61ZM3987.86 46.7209V43.5814H3991V46.7209H3987.86ZM3978.44 37.3023V34.1628H3981.58V37.3023H3978.44ZM4006.69 49.8605H4009.83V56.1395H4006.69V49.8605ZM4006.69 43.5814V27.8837H4009.83V43.5814H4006.69ZM4038.08 49.8605V31.0233H4053.78V24.7442H4056.92V31.0233H4072.62V49.8605H4056.92V59.2791H4053.78V49.8605H4038.08ZM4041.22 46.7209H4053.78V34.1628H4041.22V46.7209ZM4069.48 46.7209V34.1628H4056.92V46.7209H4069.48ZM4078.88 59.2791V56.1395H4085.16V59.2791H4078.88ZM4078.88 34.1628V31.0233H4094.58V24.7442H4097.72V31.0233H4113.42V34.1628H4107.14V40.4419H4104V34.1628H4088.3V40.4419H4085.16V34.1628H4078.88ZM4107.14 53V56.1395H4100.86V53H4107.14ZM4107.14 56.1395H4113.42V59.2791H4107.14V56.1395ZM4085.16 56.1395V53H4091.44V56.1395H4085.16ZM4091.44 46.7209V43.5814H4094.58V46.7209H4091.44ZM4091.44 53V49.8605H4094.58V53H4091.44ZM4091.44 40.4419V43.5814H4088.3V40.4419H4091.44ZM4097.72 46.7209V49.8605H4094.58V46.7209H4097.72ZM4097.72 49.8605H4100.86V53H4097.72V49.8605ZM4097.72 43.5814H4100.86V46.7209H4097.72V43.5814ZM4104 40.4419V43.5814H4100.86V40.4419H4104ZM4119.69 49.8605V46.7209H4125.97V43.5814H4132.24V40.4419H4138.52V43.5814H4151.08V59.2791H4125.97V49.8605H4119.69ZM4119.69 37.3023V34.1628H4125.97V37.3023H4119.69ZM4147.94 46.7209H4129.1V56.1395H4147.94V46.7209ZM4147.94 34.1628H4144.8V31.0233H4129.1V24.7442H4132.24V27.8837H4147.94V34.1628ZM4125.97 37.3023H4132.24V40.4419H4125.97V37.3023ZM4125.97 34.1628V31.0233H4129.1V34.1628H4125.97ZM4138.52 40.4419V37.3023H4141.66V40.4419H4138.52ZM4144.8 37.3023H4141.66V34.1628H4144.8V37.3023ZM4160.49 49.8605V46.7209H4176.19V43.5814H4179.33V46.7209H4195.02V49.8605H4179.33V59.2791H4169.91V56.1395H4176.19V49.8605H4160.49ZM4160.49 37.3023V27.8837H4176.19V24.7442H4179.33V27.8837H4195.02V37.3023H4191.88V31.0233H4163.63V37.3023H4160.49ZM4188.74 40.4419H4185.6V37.3023H4166.77V34.1628H4188.74V40.4419ZM4179.33 43.5814V40.4419H4185.6V43.5814H4179.33ZM4213.85 56.1395H4210.71V53H4207.57V46.7209H4213.85V56.1395ZM4207.57 59.2791V56.1395H4210.71V59.2791H4207.57ZM4264.08 37.3023H4260.94V34.1628H4264.08V37.3023ZM4264.08 34.1628V31.0233H4267.22V34.1628H4264.08ZM4238.96 27.8837V24.7442H4270.36V31.0233H4267.22V27.8837H4238.96ZM4248.38 59.2791V56.1395H4254.66V40.4419H4257.8V59.2791H4248.38ZM4257.8 40.4419V37.3023H4260.94V40.4419H4257.8ZM4279.77 59.2791V34.1628H4289.18V31.0233H4292.32V34.1628H4295.46V59.2791H4289.18V56.1395H4292.32V49.8605H4282.9V59.2791H4279.77ZM4279.77 31.0233V27.8837H4282.9V31.0233H4279.77ZM4308.02 46.7209V49.8605H4314.3V53H4308.02V59.2791H4304.88V53H4298.6V49.8605H4304.88V46.7209H4298.6V40.4419H4301.74V43.5814H4304.88V40.4419H4308.02V43.5814H4314.3V46.7209H4308.02ZM4308.02 37.3023V34.1628H4311.16V27.8837H4304.88V34.1628H4301.74V27.8837H4298.6V24.7442H4314.3V37.3023H4308.02ZM4292.32 46.7209V43.5814H4289.18V46.7209H4292.32ZM4292.32 37.3023H4289.18V40.4419H4292.32V37.3023ZM4292.32 31.0233V27.8837H4282.9V24.7442H4295.46V31.0233H4292.32ZM4301.74 37.3023H4298.6V34.1628H4301.74V37.3023ZM4286.04 46.7209V43.5814H4282.9V46.7209H4286.04ZM4286.04 37.3023H4282.9V40.4419H4286.04V37.3023ZM4320.57 40.4419V37.3023H4355.1V40.4419H4320.57ZM4386.49 37.3023V40.4419H4383.35V37.3023H4386.49ZM4386.49 40.4419H4389.62V43.5814H4386.49V40.4419ZM4361.37 27.8837V24.7442H4395.9V27.8837H4377.07V59.2791H4373.93V27.8837H4361.37ZM4389.62 46.7209V43.5814H4392.76V46.7209H4389.62ZM4380.21 37.3023V34.1628H4383.35V37.3023H4380.21ZM4408.45 49.8605H4411.59V56.1395H4408.45V49.8605ZM4408.45 43.5814V27.8837H4411.59V43.5814H4408.45Z" fill="#CF623F"/>
</svg>
