<svg width="4569" height="81" viewBox="0 0 4569 81" fill="none" xmlns="http://www.w3.org/2000/svg">
<rect width="4568" height="81" fill="black"/>
<path d="M20.4593 59.2791V56.1395H23.5988V59.2791H20.4593ZM20.4593 34.1628V31.0233H36.157V24.7442H39.2965V31.0233H54.9942V34.1628H39.2965V37.3023H36.157V34.1628H20.4593ZM48.7151 49.8605V53H45.5756V49.8605H48.7151ZM48.7151 53H51.8546V56.1395H48.7151V53ZM26.7384 53V49.8605H29.8779V53H26.7384ZM26.7384 56.1395H23.5988V53H26.7384V56.1395ZM54.9942 56.1395V59.2791H51.8546V56.1395H54.9942ZM33.0174 49.8605H29.8779V43.5814H33.0174V49.8605ZM33.0174 37.3023H36.157V43.5814H33.0174V37.3023ZM39.2965 37.3023H42.436V43.5814H39.2965V37.3023ZM45.5756 49.8605H42.436V43.5814H45.5756V49.8605ZM61.261 37.3023V27.8837H76.9587V24.7442H80.0982V27.8837H95.7959V37.3023H92.6563V31.0233H64.4005V37.3023H61.261ZM89.5168 49.8605H86.3773V56.1395H83.2377V49.8605H80.0982V46.7209H83.2377V43.5814H80.0982V40.4419H86.3773V43.5814H89.5168V49.8605ZM89.5168 53V49.8605H92.6563V53H89.5168ZM89.5168 43.5814V40.4419H92.6563V43.5814H89.5168ZM89.5168 37.3023H80.0982V40.4419H73.8191V37.3023H67.54V34.1628H89.5168V37.3023ZM73.8191 46.7209V49.8605H64.4005V46.7209H73.8191ZM73.8191 49.8605H80.0982V53H73.8191V49.8605ZM73.8191 53V56.1395H64.4005V53H73.8191ZM73.8191 40.4419V43.5814H64.4005V40.4419H73.8191ZM73.8191 43.5814H80.0982V46.7209H73.8191V43.5814ZM83.2377 56.1395V59.2791H76.9587V56.1395H83.2377ZM95.7959 53V56.1395H92.6563V53H95.7959ZM102.063 40.4419V37.3023H136.598V40.4419H102.063ZM142.864 53H146.004V59.2791H142.864V53ZM142.864 40.4419V37.3023H152.283V31.0233H146.004V27.8837H152.283V24.7442H155.422V27.8837H161.702V31.0233H155.422V37.3023H161.702V40.4419H155.422V46.7209H161.702V49.8605H155.422V56.1395H149.143V53H152.283V40.4419H142.864ZM155.422 56.1395H177.399V59.2791H155.422V56.1395ZM167.981 49.8605H174.26V43.5814H177.399V53H164.841V37.3023H174.26V27.8837H164.841V24.7442H177.399V40.4419H167.981V49.8605ZM149.143 53H146.004V46.7209H149.143V53ZM183.666 46.7209V43.5814H199.364V31.0233H186.806V27.8837H199.364V24.7442H202.503V27.8837H215.061V31.0233H202.503V43.5814H218.201V46.7209H208.782V49.8605H205.643V46.7209H202.503V59.2791H199.364V46.7209H196.224V49.8605H193.085V46.7209H183.666ZM183.666 56.1395V53H189.945V56.1395H183.666ZM211.922 49.8605V53H208.782V49.8605H211.922ZM211.922 53H218.201V56.1395H211.922V53ZM211.922 37.3023V40.4419H208.782V37.3023H211.922ZM211.922 34.1628H215.061V37.3023H211.922V34.1628ZM193.085 49.8605V53H189.945V49.8605H193.085ZM193.085 37.3023V40.4419H189.945V37.3023H193.085ZM189.945 37.3023H186.806V34.1628H189.945V37.3023ZM249.584 37.3023H246.444V34.1628H249.584V37.3023ZM249.584 34.1628V31.0233H252.724V34.1628H249.584ZM224.468 27.8837V24.7442H255.863V31.0233H252.724V27.8837H224.468ZM233.886 59.2791V56.1395H240.165V40.4419H243.305V59.2791H233.886ZM243.305 40.4419V37.3023H246.444V40.4419H243.305ZM265.269 59.2791V34.1628H274.688V31.0233H277.828V34.1628H280.967V59.2791H274.688V56.1395H277.828V49.8605H268.409V59.2791H265.269ZM265.269 31.0233V27.8837H268.409V31.0233H265.269ZM293.525 46.7209V49.8605H299.804V53H293.525V59.2791H290.386V53H284.107V49.8605H290.386V46.7209H284.107V40.4419H287.246V43.5814H290.386V40.4419H293.525V43.5814H299.804V46.7209H293.525ZM293.525 37.3023V34.1628H296.665V27.8837H290.386V34.1628H287.246V27.8837H284.107V24.7442H299.804V37.3023H293.525ZM277.828 46.7209V43.5814H274.688V46.7209H277.828ZM277.828 37.3023H274.688V40.4419H277.828V37.3023ZM277.828 31.0233V27.8837H268.409V24.7442H280.967V31.0233H277.828ZM287.246 37.3023H284.107V34.1628H287.246V37.3023ZM271.548 46.7209V43.5814H268.409V46.7209H271.548ZM271.548 37.3023H268.409V40.4419H271.548V37.3023ZM306.071 49.8605V31.0233H321.769V24.7442H324.908V31.0233H340.606V49.8605H324.908V59.2791H321.769V49.8605H306.071ZM309.211 46.7209H321.769V34.1628H309.211V46.7209ZM337.466 46.7209V34.1628H324.908V46.7209H337.466ZM346.873 59.2791V56.1395H353.152V59.2791H346.873ZM346.873 34.1628V31.0233H362.57V24.7442H365.71V31.0233H381.408V34.1628H375.129V40.4419H371.989V34.1628H356.291V40.4419H353.152V34.1628H346.873ZM375.129 53V56.1395H368.85V53H375.129ZM375.129 56.1395H381.408V59.2791H375.129V56.1395ZM353.152 56.1395V53H359.431V56.1395H353.152ZM359.431 46.7209V43.5814H362.57V46.7209H359.431ZM359.431 53V49.8605H362.57V53H359.431ZM359.431 40.4419V43.5814H356.291V40.4419H359.431ZM365.71 46.7209V49.8605H362.57V46.7209H365.71ZM365.71 49.8605H368.85V53H365.71V49.8605ZM365.71 43.5814H368.85V46.7209H365.71V43.5814ZM371.989 40.4419V43.5814H368.85V40.4419H371.989ZM387.674 49.8605V46.7209H393.954V43.5814H400.233V40.4419H406.512V43.5814H419.07V59.2791H393.954V49.8605H387.674ZM387.674 37.3023V34.1628H393.954V37.3023H387.674ZM415.93 46.7209H397.093V56.1395H415.93V46.7209ZM415.93 34.1628H412.791V31.0233H397.093V24.7442H400.233V27.8837H415.93V34.1628ZM393.954 37.3023H400.233V40.4419H393.954V37.3023ZM393.954 34.1628V31.0233H397.093V34.1628H393.954ZM406.512 40.4419V37.3023H409.651V40.4419H406.512ZM412.791 37.3023H409.651V34.1628H412.791V37.3023ZM428.476 49.8605V46.7209H444.174V43.5814H447.313V46.7209H463.011V49.8605H447.313V59.2791H437.895V56.1395H444.174V49.8605H428.476ZM428.476 37.3023V27.8837H444.174V24.7442H447.313V27.8837H463.011V37.3023H459.872V31.0233H431.616V37.3023H428.476ZM456.732 40.4419H453.592V37.3023H434.755V34.1628H456.732V40.4419ZM447.313 43.5814V40.4419H453.592V43.5814H447.313ZM469.278 59.2791V31.0233H475.557V27.8837H478.696V31.0233H484.976V59.2791H469.278ZM497.534 49.8605H494.394V43.5814H497.534V49.8605ZM503.813 59.2791H494.394V56.1395H500.673V34.1628H491.255V24.7442H494.394V31.0233H503.813V59.2791ZM481.836 46.7209H472.417V56.1395H481.836V46.7209ZM481.836 43.5814V34.1628H472.417V43.5814H481.836ZM481.836 24.7442V27.8837H478.696V24.7442H481.836ZM488.115 40.4419V34.1628H491.255V40.4419H488.115ZM494.394 40.4419V43.5814H491.255V40.4419H494.394ZM510.08 59.2791V56.1395H513.219V59.2791H510.08ZM510.08 37.3023V34.1628H513.219V37.3023H510.08ZM510.08 27.8837V24.7442H513.219V27.8837H510.08ZM538.335 53H535.196V46.7209H532.056V59.2791H528.917V46.7209H525.777V53H522.638V46.7209H516.359V43.5814H528.917V40.4419H532.056V43.5814H544.614V46.7209H538.335V53ZM538.335 56.1395V53H541.475V56.1395H538.335ZM538.335 37.3023H541.475V34.1628H544.614V40.4419H535.196V31.0233H538.335V37.3023ZM522.638 53V56.1395H519.498V53H522.638ZM522.638 31.0233H519.498V24.7442H544.614V31.0233H541.475V27.8837H522.638V31.0233ZM519.498 56.1395V59.2791H516.359V56.1395H519.498ZM519.498 40.4419V37.3023H525.777V40.4419H519.498ZM516.359 46.7209V56.1395H513.219V46.7209H516.359ZM516.359 37.3023V40.4419H513.219V37.3023H516.359ZM516.359 31.0233H513.219V27.8837H516.359V31.0233ZM544.614 56.1395V59.2791H541.475V56.1395H544.614ZM528.917 37.3023H525.777V31.0233H528.917V37.3023ZM550.881 49.8605V46.7209H566.579V40.4419H563.439V37.3023H557.16V43.5814H554.021V27.8837H563.439V24.7442H566.579V27.8837H582.277V43.5814H579.137V37.3023H572.858V40.4419H569.718V46.7209H585.416V49.8605H572.858V53H569.718V49.8605H566.579V53H563.439V49.8605H550.881ZM550.881 59.2791V56.1395H557.16V59.2791H550.881ZM579.137 53V56.1395H572.858V53H579.137ZM579.137 56.1395H585.416V59.2791H579.137V56.1395ZM579.137 31.0233H575.998V34.1628H579.137V31.0233ZM563.439 53V56.1395H557.16V53H563.439ZM563.439 40.4419V43.5814H560.3V40.4419H563.439ZM563.439 31.0233V34.1628H566.579V31.0233H563.439ZM575.998 40.4419V43.5814H572.858V40.4419H575.998ZM560.3 31.0233H557.16V34.1628H560.3V31.0233ZM572.858 31.0233H569.718V34.1628H572.858V31.0233ZM591.683 53V27.8837H601.102V53H591.683ZM597.962 49.8605V31.0233H594.822V49.8605H597.962ZM626.218 49.8605V59.2791H604.241V24.7442H626.218V43.5814H607.381V56.1395H623.078V49.8605H626.218ZM616.799 40.4419H623.078V27.8837H616.799V40.4419ZM607.381 40.4419H613.66V27.8837H607.381V40.4419ZM638.764 49.8605H641.903V56.1395H638.764V49.8605ZM638.764 43.5814V27.8837H641.903V43.5814H638.764ZM670.159 59.2791V56.1395H673.299V59.2791H670.159ZM670.159 34.1628V31.0233H685.857V24.7442H688.996V31.0233H704.694V34.1628H688.996V37.3023H685.857V34.1628H670.159ZM698.415 49.8605V53H695.275V49.8605H698.415ZM698.415 53H701.554V56.1395H698.415V53ZM676.438 53V49.8605H679.578V53H676.438ZM676.438 56.1395H673.299V53H676.438V56.1395ZM704.694 56.1395V59.2791H701.554V56.1395H704.694ZM682.717 49.8605H679.578V43.5814H682.717V49.8605ZM682.717 37.3023H685.857V43.5814H682.717V37.3023ZM688.996 37.3023H692.136V43.5814H688.996V37.3023ZM695.275 49.8605H692.136V43.5814H695.275V49.8605ZM710.961 37.3023V27.8837H726.658V24.7442H729.798V27.8837H745.496V37.3023H742.356V31.0233H714.1V37.3023H710.961ZM739.217 49.8605H736.077V56.1395H732.938V49.8605H729.798V46.7209H732.938V43.5814H729.798V40.4419H736.077V43.5814H739.217V49.8605ZM739.217 53V49.8605H742.356V53H739.217ZM739.217 43.5814V40.4419H742.356V43.5814H739.217ZM739.217 37.3023H729.798V40.4419H723.519V37.3023H717.24V34.1628H739.217V37.3023ZM723.519 46.7209V49.8605H714.1V46.7209H723.519ZM723.519 49.8605H729.798V53H723.519V49.8605ZM723.519 53V56.1395H714.1V53H723.519ZM723.519 40.4419V43.5814H714.1V40.4419H723.519ZM723.519 43.5814H729.798V46.7209H723.519V43.5814ZM732.938 56.1395V59.2791H726.658V56.1395H732.938ZM745.496 53V56.1395H742.356V53H745.496ZM751.762 40.4419V37.3023H786.297V40.4419H751.762ZM792.564 53H795.704V59.2791H792.564V53ZM792.564 40.4419V37.3023H801.983V31.0233H795.704V27.8837H801.983V24.7442H805.122V27.8837H811.401V31.0233H805.122V37.3023H811.401V40.4419H805.122V46.7209H811.401V49.8605H805.122V56.1395H798.843V53H801.983V40.4419H792.564ZM805.122 56.1395H827.099V59.2791H805.122V56.1395ZM817.68 49.8605H823.959V43.5814H827.099V53H814.541V37.3023H823.959V27.8837H814.541V24.7442H827.099V40.4419H817.68V49.8605ZM798.843 53H795.704V46.7209H798.843V53ZM833.366 46.7209V43.5814H849.063V31.0233H836.505V27.8837H849.063V24.7442H852.203V27.8837H864.761V31.0233H852.203V43.5814H867.901V46.7209H858.482V49.8605H855.343V46.7209H852.203V59.2791H849.063V46.7209H845.924V49.8605H842.784V46.7209H833.366ZM833.366 56.1395V53H839.645V56.1395H833.366ZM861.622 49.8605V53H858.482V49.8605H861.622ZM861.622 53H867.901V56.1395H861.622V53ZM861.622 37.3023V40.4419H858.482V37.3023H861.622ZM861.622 34.1628H864.761V37.3023H861.622V34.1628ZM842.784 49.8605V53H839.645V49.8605H842.784ZM842.784 37.3023V40.4419H839.645V37.3023H842.784ZM839.645 37.3023H836.505V34.1628H839.645V37.3023ZM899.284 37.3023H896.144V34.1628H899.284V37.3023ZM899.284 34.1628V31.0233H902.423V34.1628H899.284ZM874.167 27.8837V24.7442H905.563V31.0233H902.423V27.8837H874.167ZM883.586 59.2791V56.1395H889.865V40.4419H893.005V59.2791H883.586ZM893.005 40.4419V37.3023H896.144V40.4419H893.005ZM914.969 59.2791V34.1628H924.388V31.0233H927.527V34.1628H930.667V59.2791H924.388V56.1395H927.527V49.8605H918.109V59.2791H914.969ZM914.969 31.0233V27.8837H918.109V31.0233H914.969ZM943.225 46.7209V49.8605H949.504V53H943.225V59.2791H940.085V53H933.806V49.8605H940.085V46.7209H933.806V40.4419H936.946V43.5814H940.085V40.4419H943.225V43.5814H949.504V46.7209H943.225ZM943.225 37.3023V34.1628H946.365V27.8837H940.085V34.1628H936.946V27.8837H933.806V24.7442H949.504V37.3023H943.225ZM927.527 46.7209V43.5814H924.388V46.7209H927.527ZM927.527 37.3023H924.388V40.4419H927.527V37.3023ZM927.527 31.0233V27.8837H918.109V24.7442H930.667V31.0233H927.527ZM936.946 37.3023H933.806V34.1628H936.946V37.3023ZM921.248 46.7209V43.5814H918.109V46.7209H921.248ZM921.248 37.3023H918.109V40.4419H921.248V37.3023ZM955.771 49.8605V31.0233H971.469V24.7442H974.608V31.0233H990.306V49.8605H974.608V59.2791H971.469V49.8605H955.771ZM958.91 46.7209H971.469V34.1628H958.91V46.7209ZM987.166 46.7209V34.1628H974.608V46.7209H987.166ZM996.573 59.2791V56.1395H1002.85V59.2791H996.573ZM996.573 34.1628V31.0233H1012.27V24.7442H1015.41V31.0233H1031.11V34.1628H1024.83V40.4419H1021.69V34.1628H1005.99V40.4419H1002.85V34.1628H996.573ZM1024.83 53V56.1395H1018.55V53H1024.83ZM1024.83 56.1395H1031.11V59.2791H1024.83V56.1395ZM1002.85 56.1395V53H1009.13V56.1395H1002.85ZM1009.13 46.7209V43.5814H1012.27V46.7209H1009.13ZM1009.13 53V49.8605H1012.27V53H1009.13ZM1009.13 40.4419V43.5814H1005.99V40.4419H1009.13ZM1015.41 46.7209V49.8605H1012.27V46.7209H1015.41ZM1015.41 49.8605H1018.55V53H1015.41V49.8605ZM1015.41 43.5814H1018.55V46.7209H1015.41V43.5814ZM1021.69 40.4419V43.5814H1018.55V40.4419H1021.69ZM1037.37 49.8605V46.7209H1043.65V43.5814H1049.93V40.4419H1056.21V43.5814H1068.77V59.2791H1043.65V49.8605H1037.37ZM1037.37 37.3023V34.1628H1043.65V37.3023H1037.37ZM1065.63 46.7209H1046.79V56.1395H1065.63V46.7209ZM1065.63 34.1628H1062.49V31.0233H1046.79V24.7442H1049.93V27.8837H1065.63V34.1628ZM1043.65 37.3023H1049.93V40.4419H1043.65V37.3023ZM1043.65 34.1628V31.0233H1046.79V34.1628H1043.65ZM1056.21 40.4419V37.3023H1059.35V40.4419H1056.21ZM1062.49 37.3023H1059.35V34.1628H1062.49V37.3023ZM1078.18 49.8605V46.7209H1093.87V43.5814H1097.01V46.7209H1112.71V49.8605H1097.01V59.2791H1087.59V56.1395H1093.87V49.8605H1078.18ZM1078.18 37.3023V27.8837H1093.87V24.7442H1097.01V27.8837H1112.71V37.3023H1109.57V31.0233H1081.32V37.3023H1078.18ZM1106.43 40.4419H1103.29V37.3023H1084.46V34.1628H1106.43V40.4419ZM1097.01 43.5814V40.4419H1103.29V43.5814H1097.01ZM1118.98 59.2791V31.0233H1125.26V27.8837H1128.4V31.0233H1134.68V59.2791H1118.98ZM1147.23 49.8605H1144.09V43.5814H1147.23V49.8605ZM1153.51 59.2791H1144.09V56.1395H1150.37V34.1628H1140.95V24.7442H1144.09V31.0233H1153.51V59.2791ZM1131.54 46.7209H1122.12V56.1395H1131.54V46.7209ZM1131.54 43.5814V34.1628H1122.12V43.5814H1131.54ZM1131.54 24.7442V27.8837H1128.4V24.7442H1131.54ZM1137.81 40.4419V34.1628H1140.95V40.4419H1137.81ZM1144.09 40.4419V43.5814H1140.95V40.4419H1144.09ZM1159.78 59.2791V56.1395H1162.92V59.2791H1159.78ZM1159.78 37.3023V34.1628H1162.92V37.3023H1159.78ZM1159.78 27.8837V24.7442H1162.92V27.8837H1159.78ZM1188.04 53H1184.9V46.7209H1181.76V59.2791H1178.62V46.7209H1175.48V53H1172.34V46.7209H1166.06V43.5814H1178.62V40.4419H1181.76V43.5814H1194.31V46.7209H1188.04V53ZM1188.04 56.1395V53H1191.17V56.1395H1188.04ZM1188.04 37.3023H1191.17V34.1628H1194.31V40.4419H1184.9V31.0233H1188.04V37.3023ZM1172.34 53V56.1395H1169.2V53H1172.34ZM1172.34 31.0233H1169.2V24.7442H1194.31V31.0233H1191.17V27.8837H1172.34V31.0233ZM1169.2 56.1395V59.2791H1166.06V56.1395H1169.2ZM1169.2 40.4419V37.3023H1175.48V40.4419H1169.2ZM1166.06 46.7209V56.1395H1162.92V46.7209H1166.06ZM1166.06 37.3023V40.4419H1162.92V37.3023H1166.06ZM1166.06 31.0233H1162.92V27.8837H1166.06V31.0233ZM1194.31 56.1395V59.2791H1191.17V56.1395H1194.31ZM1178.62 37.3023H1175.48V31.0233H1178.62V37.3023ZM1200.58 49.8605V46.7209H1216.28V40.4419H1213.14V37.3023H1206.86V43.5814H1203.72V27.8837H1213.14V24.7442H1216.28V27.8837H1231.98V43.5814H1228.84V37.3023H1222.56V40.4419H1219.42V46.7209H1235.12V49.8605H1222.56V53H1219.42V49.8605H1216.28V53H1213.14V49.8605H1200.58ZM1200.58 59.2791V56.1395H1206.86V59.2791H1200.58ZM1228.84 53V56.1395H1222.56V53H1228.84ZM1228.84 56.1395H1235.12V59.2791H1228.84V56.1395ZM1228.84 31.0233H1225.7V34.1628H1228.84V31.0233ZM1213.14 53V56.1395H1206.86V53H1213.14ZM1213.14 40.4419V43.5814H1210V40.4419H1213.14ZM1213.14 31.0233V34.1628H1216.28V31.0233H1213.14ZM1225.7 40.4419V43.5814H1222.56V40.4419H1225.7ZM1210 31.0233H1206.86V34.1628H1210V31.0233ZM1222.56 31.0233H1219.42V34.1628H1222.56V31.0233ZM1241.38 53V27.8837H1250.8V53H1241.38ZM1247.66 49.8605V31.0233H1244.52V49.8605H1247.66ZM1275.92 49.8605V59.2791H1253.94V24.7442H1275.92V43.5814H1257.08V56.1395H1272.78V49.8605H1275.92ZM1266.5 40.4419H1272.78V27.8837H1266.5V40.4419ZM1257.08 40.4419H1263.36V27.8837H1257.08V40.4419ZM1288.46 49.8605H1291.6V56.1395H1288.46V49.8605ZM1288.46 43.5814V27.8837H1291.6V43.5814H1288.46ZM1319.86 59.2791V56.1395H1323V59.2791H1319.86ZM1319.86 34.1628V31.0233H1335.56V24.7442H1338.7V31.0233H1354.39V34.1628H1338.7V37.3023H1335.56V34.1628H1319.86ZM1348.11 49.8605V53H1344.98V49.8605H1348.11ZM1348.11 53H1351.25V56.1395H1348.11V53ZM1326.14 53V49.8605H1329.28V53H1326.14ZM1326.14 56.1395H1323V53H1326.14V56.1395ZM1354.39 56.1395V59.2791H1351.25V56.1395H1354.39ZM1332.42 49.8605H1329.28V43.5814H1332.42V49.8605ZM1332.42 37.3023H1335.56V43.5814H1332.42V37.3023ZM1338.7 37.3023H1341.84V43.5814H1338.7V37.3023ZM1344.98 49.8605H1341.84V43.5814H1344.98V49.8605ZM1360.66 37.3023V27.8837H1376.36V24.7442H1379.5V27.8837H1395.2V37.3023H1392.06V31.0233H1363.8V37.3023H1360.66ZM1388.92 49.8605H1385.78V56.1395H1382.64V49.8605H1379.5V46.7209H1382.64V43.5814H1379.5V40.4419H1385.78V43.5814H1388.92V49.8605ZM1388.92 53V49.8605H1392.06V53H1388.92ZM1388.92 43.5814V40.4419H1392.06V43.5814H1388.92ZM1388.92 37.3023H1379.5V40.4419H1373.22V37.3023H1366.94V34.1628H1388.92V37.3023ZM1373.22 46.7209V49.8605H1363.8V46.7209H1373.22ZM1373.22 49.8605H1379.5V53H1373.22V49.8605ZM1373.22 53V56.1395H1363.8V53H1373.22ZM1373.22 40.4419V43.5814H1363.8V40.4419H1373.22ZM1373.22 43.5814H1379.5V46.7209H1373.22V43.5814ZM1382.64 56.1395V59.2791H1376.36V56.1395H1382.64ZM1395.2 53V56.1395H1392.06V53H1395.2ZM1401.46 40.4419V37.3023H1436V40.4419H1401.46ZM1442.26 53H1445.4V59.2791H1442.26V53ZM1442.26 40.4419V37.3023H1451.68V31.0233H1445.4V27.8837H1451.68V24.7442H1454.82V27.8837H1461.1V31.0233H1454.82V37.3023H1461.1V40.4419H1454.82V46.7209H1461.1V49.8605H1454.82V56.1395H1448.54V53H1451.68V40.4419H1442.26ZM1454.82 56.1395H1476.8V59.2791H1454.82V56.1395ZM1467.38 49.8605H1473.66V43.5814H1476.8V53H1464.24V37.3023H1473.66V27.8837H1464.24V24.7442H1476.8V40.4419H1467.38V49.8605ZM1448.54 53H1445.4V46.7209H1448.54V53ZM1483.07 46.7209V43.5814H1498.76V31.0233H1486.21V27.8837H1498.76V24.7442H1501.9V27.8837H1514.46V31.0233H1501.9V43.5814H1517.6V46.7209H1508.18V49.8605H1505.04V46.7209H1501.9V59.2791H1498.76V46.7209H1495.62V49.8605H1492.48V46.7209H1483.07ZM1483.07 56.1395V53H1489.34V56.1395H1483.07ZM1511.32 49.8605V53H1508.18V49.8605H1511.32ZM1511.32 53H1517.6V56.1395H1511.32V53ZM1511.32 37.3023V40.4419H1508.18V37.3023H1511.32ZM1511.32 34.1628H1514.46V37.3023H1511.32V34.1628ZM1492.48 49.8605V53H1489.34V49.8605H1492.48ZM1492.48 37.3023V40.4419H1489.34V37.3023H1492.48ZM1489.34 37.3023H1486.21V34.1628H1489.34V37.3023ZM1548.98 37.3023H1545.84V34.1628H1548.98V37.3023ZM1548.98 34.1628V31.0233H1552.12V34.1628H1548.98ZM1523.87 27.8837V24.7442H1555.26V31.0233H1552.12V27.8837H1523.87ZM1533.29 59.2791V56.1395H1539.56V40.4419H1542.7V59.2791H1533.29ZM1542.7 40.4419V37.3023H1545.84V40.4419H1542.7ZM1564.67 59.2791V34.1628H1574.09V31.0233H1577.23V34.1628H1580.37V59.2791H1574.09V56.1395H1577.23V49.8605H1567.81V59.2791H1564.67ZM1564.67 31.0233V27.8837H1567.81V31.0233H1564.67ZM1592.92 46.7209V49.8605H1599.2V53H1592.92V59.2791H1589.79V53H1583.51V49.8605H1589.79V46.7209H1583.51V40.4419H1586.65V43.5814H1589.79V40.4419H1592.92V43.5814H1599.2V46.7209H1592.92ZM1592.92 37.3023V34.1628H1596.06V27.8837H1589.79V34.1628H1586.65V27.8837H1583.51V24.7442H1599.2V37.3023H1592.92ZM1577.23 46.7209V43.5814H1574.09V46.7209H1577.23ZM1577.23 37.3023H1574.09V40.4419H1577.23V37.3023ZM1577.23 31.0233V27.8837H1567.81V24.7442H1580.37V31.0233H1577.23ZM1586.65 37.3023H1583.51V34.1628H1586.65V37.3023ZM1570.95 46.7209V43.5814H1567.81V46.7209H1570.95ZM1570.95 37.3023H1567.81V40.4419H1570.95V37.3023ZM1605.47 49.8605V31.0233H1621.17V24.7442H1624.31V31.0233H1640.01V49.8605H1624.31V59.2791H1621.17V49.8605H1605.47ZM1608.61 46.7209H1621.17V34.1628H1608.61V46.7209ZM1636.87 46.7209V34.1628H1624.31V46.7209H1636.87ZM1646.27 59.2791V56.1395H1652.55V59.2791H1646.27ZM1646.27 34.1628V31.0233H1661.97V24.7442H1665.11V31.0233H1680.81V34.1628H1674.53V40.4419H1671.39V34.1628H1655.69V40.4419H1652.55V34.1628H1646.27ZM1674.53 53V56.1395H1668.25V53H1674.53ZM1674.53 56.1395H1680.81V59.2791H1674.53V56.1395ZM1652.55 56.1395V53H1658.83V56.1395H1652.55ZM1658.83 46.7209V43.5814H1661.97V46.7209H1658.83ZM1658.83 53V49.8605H1661.97V53H1658.83ZM1658.83 40.4419V43.5814H1655.69V40.4419H1658.83ZM1665.11 46.7209V49.8605H1661.97V46.7209H1665.11ZM1665.11 49.8605H1668.25V53H1665.11V49.8605ZM1665.11 43.5814H1668.25V46.7209H1665.11V43.5814ZM1671.39 40.4419V43.5814H1668.25V40.4419H1671.39ZM1687.07 49.8605V46.7209H1693.35V43.5814H1699.63V40.4419H1705.91V43.5814H1718.47V59.2791H1693.35V49.8605H1687.07ZM1687.07 37.3023V34.1628H1693.35V37.3023H1687.07ZM1715.33 46.7209H1696.49V56.1395H1715.33V46.7209ZM1715.33 34.1628H1712.19V31.0233H1696.49V24.7442H1699.63V27.8837H1715.33V34.1628ZM1693.35 37.3023H1699.63V40.4419H1693.35V37.3023ZM1693.35 34.1628V31.0233H1696.49V34.1628H1693.35ZM1705.91 40.4419V37.3023H1709.05V40.4419H1705.91ZM1712.19 37.3023H1709.05V34.1628H1712.19V37.3023ZM1727.88 49.8605V46.7209H1743.57V43.5814H1746.71V46.7209H1762.41V49.8605H1746.71V59.2791H1737.29V56.1395H1743.57V49.8605H1727.88ZM1727.88 37.3023V27.8837H1743.57V24.7442H1746.71V27.8837H1762.41V37.3023H1759.27V31.0233H1731.02V37.3023H1727.88ZM1756.13 40.4419H1752.99V37.3023H1734.15V34.1628H1756.13V40.4419ZM1746.71 43.5814V40.4419H1752.99V43.5814H1746.71ZM1768.68 59.2791V31.0233H1774.96V27.8837H1778.1V31.0233H1784.38V59.2791H1768.68ZM1796.93 49.8605H1793.79V43.5814H1796.93V49.8605ZM1803.21 59.2791H1793.79V56.1395H1800.07V34.1628H1790.65V24.7442H1793.79V31.0233H1803.21V59.2791ZM1781.24 46.7209H1771.82V56.1395H1781.24V46.7209ZM1781.24 43.5814V34.1628H1771.82V43.5814H1781.24ZM1781.24 24.7442V27.8837H1778.1V24.7442H1781.24ZM1787.51 40.4419V34.1628H1790.65V40.4419H1787.51ZM1793.79 40.4419V43.5814H1790.65V40.4419H1793.79ZM1809.48 59.2791V56.1395H1812.62V59.2791H1809.48ZM1809.48 37.3023V34.1628H1812.62V37.3023H1809.48ZM1809.48 27.8837V24.7442H1812.62V27.8837H1809.48ZM1837.73 53H1834.6V46.7209H1831.46V59.2791H1828.32V46.7209H1825.18V53H1822.04V46.7209H1815.76V43.5814H1828.32V40.4419H1831.46V43.5814H1844.01V46.7209H1837.73V53ZM1837.73 56.1395V53H1840.87V56.1395H1837.73ZM1837.73 37.3023H1840.87V34.1628H1844.01V40.4419H1834.6V31.0233H1837.73V37.3023ZM1822.04 53V56.1395H1818.9V53H1822.04ZM1822.04 31.0233H1818.9V24.7442H1844.01V31.0233H1840.87V27.8837H1822.04V31.0233ZM1818.9 56.1395V59.2791H1815.76V56.1395H1818.9ZM1818.9 40.4419V37.3023H1825.18V40.4419H1818.9ZM1815.76 46.7209V56.1395H1812.62V46.7209H1815.76ZM1815.76 37.3023V40.4419H1812.62V37.3023H1815.76ZM1815.76 31.0233H1812.62V27.8837H1815.76V31.0233ZM1844.01 56.1395V59.2791H1840.87V56.1395H1844.01ZM1828.32 37.3023H1825.18V31.0233H1828.32V37.3023ZM1850.28 49.8605V46.7209H1865.98V40.4419H1862.84V37.3023H1856.56V43.5814H1853.42V27.8837H1862.84V24.7442H1865.98V27.8837H1881.68V43.5814H1878.54V37.3023H1872.26V40.4419H1869.12V46.7209H1884.82V49.8605H1872.26V53H1869.12V49.8605H1865.98V53H1862.84V49.8605H1850.28ZM1850.28 59.2791V56.1395H1856.56V59.2791H1850.28ZM1878.54 53V56.1395H1872.26V53H1878.54ZM1878.54 56.1395H1884.82V59.2791H1878.54V56.1395ZM1878.54 31.0233H1875.4V34.1628H1878.54V31.0233ZM1862.84 53V56.1395H1856.56V53H1862.84ZM1862.84 40.4419V43.5814H1859.7V40.4419H1862.84ZM1862.84 31.0233V34.1628H1865.98V31.0233H1862.84ZM1875.4 40.4419V43.5814H1872.26V40.4419H1875.4ZM1859.7 31.0233H1856.56V34.1628H1859.7V31.0233ZM1872.26 31.0233H1869.12V34.1628H1872.26V31.0233ZM1891.08 53V27.8837H1900.5V53H1891.08ZM1897.36 49.8605V31.0233H1894.22V49.8605H1897.36ZM1925.62 49.8605V59.2791H1903.64V24.7442H1925.62V43.5814H1906.78V56.1395H1922.48V49.8605H1925.62ZM1916.2 40.4419H1922.48V27.8837H1916.2V40.4419ZM1906.78 40.4419H1913.06V27.8837H1906.78V40.4419ZM1938.16 49.8605H1941.3V56.1395H1938.16V49.8605ZM1938.16 43.5814V27.8837H1941.3V43.5814H1938.16ZM1969.56 59.2791V56.1395H1972.7V59.2791H1969.56ZM1969.56 34.1628V31.0233H1985.26V24.7442H1988.4V31.0233H2004.09V34.1628H1988.4V37.3023H1985.26V34.1628H1969.56ZM1997.81 49.8605V53H1994.67V49.8605H1997.81ZM1997.81 53H2000.95V56.1395H1997.81V53ZM1975.84 53V49.8605H1978.98V53H1975.84ZM1975.84 56.1395H1972.7V53H1975.84V56.1395ZM2004.09 56.1395V59.2791H2000.95V56.1395H2004.09ZM1982.12 49.8605H1978.98V43.5814H1982.12V49.8605ZM1982.12 37.3023H1985.26V43.5814H1982.12V37.3023ZM1988.4 37.3023H1991.54V43.5814H1988.4V37.3023ZM1994.67 49.8605H1991.54V43.5814H1994.67V49.8605ZM2010.36 37.3023V27.8837H2026.06V24.7442H2029.2V27.8837H2044.9V37.3023H2041.76V31.0233H2013.5V37.3023H2010.36ZM2038.62 49.8605H2035.48V56.1395H2032.34V49.8605H2029.2V46.7209H2032.34V43.5814H2029.2V40.4419H2035.48V43.5814H2038.62V49.8605ZM2038.62 53V49.8605H2041.76V53H2038.62ZM2038.62 43.5814V40.4419H2041.76V43.5814H2038.62ZM2038.62 37.3023H2029.2V40.4419H2022.92V37.3023H2016.64V34.1628H2038.62V37.3023ZM2022.92 46.7209V49.8605H2013.5V46.7209H2022.92ZM2022.92 49.8605H2029.2V53H2022.92V49.8605ZM2022.92 53V56.1395H2013.5V53H2022.92ZM2022.92 40.4419V43.5814H2013.5V40.4419H2022.92ZM2022.92 43.5814H2029.2V46.7209H2022.92V43.5814ZM2032.34 56.1395V59.2791H2026.06V56.1395H2032.34ZM2044.9 53V56.1395H2041.76V53H2044.9ZM2051.16 40.4419V37.3023H2085.7V40.4419H2051.16ZM2091.96 53H2095.1V59.2791H2091.96V53ZM2091.96 40.4419V37.3023H2101.38V31.0233H2095.1V27.8837H2101.38V24.7442H2104.52V27.8837H2110.8V31.0233H2104.52V37.3023H2110.8V40.4419H2104.52V46.7209H2110.8V49.8605H2104.52V56.1395H2098.24V53H2101.38V40.4419H2091.96ZM2104.52 56.1395H2126.5V59.2791H2104.52V56.1395ZM2117.08 49.8605H2123.36V43.5814H2126.5V53H2113.94V37.3023H2123.36V27.8837H2113.94V24.7442H2126.5V40.4419H2117.08V49.8605ZM2098.24 53H2095.1V46.7209H2098.24V53ZM2132.77 46.7209V43.5814H2148.46V31.0233H2135.9V27.8837H2148.46V24.7442H2151.6V27.8837H2164.16V31.0233H2151.6V43.5814H2167.3V46.7209H2157.88V49.8605H2154.74V46.7209H2151.6V59.2791H2148.46V46.7209H2145.32V49.8605H2142.18V46.7209H2132.77ZM2132.77 56.1395V53H2139.04V56.1395H2132.77ZM2161.02 49.8605V53H2157.88V49.8605H2161.02ZM2161.02 53H2167.3V56.1395H2161.02V53ZM2161.02 37.3023V40.4419H2157.88V37.3023H2161.02ZM2161.02 34.1628H2164.16V37.3023H2161.02V34.1628ZM2142.18 49.8605V53H2139.04V49.8605H2142.18ZM2142.18 37.3023V40.4419H2139.04V37.3023H2142.18ZM2139.04 37.3023H2135.9V34.1628H2139.04V37.3023ZM2198.68 37.3023H2195.54V34.1628H2198.68V37.3023ZM2198.68 34.1628V31.0233H2201.82V34.1628H2198.68ZM2173.57 27.8837V24.7442H2204.96V31.0233H2201.82V27.8837H2173.57ZM2182.99 59.2791V56.1395H2189.26V40.4419H2192.4V59.2791H2182.99ZM2192.4 40.4419V37.3023H2195.54V40.4419H2192.4ZM2214.37 59.2791V34.1628H2223.79V31.0233H2226.93V34.1628H2230.07V59.2791H2223.79V56.1395H2226.93V49.8605H2217.51V59.2791H2214.37ZM2214.37 31.0233V27.8837H2217.51V31.0233H2214.37ZM2242.62 46.7209V49.8605H2248.9V53H2242.62V59.2791H2239.48V53H2233.21V49.8605H2239.48V46.7209H2233.21V40.4419H2236.35V43.5814H2239.48V40.4419H2242.62V43.5814H2248.9V46.7209H2242.62ZM2242.62 37.3023V34.1628H2245.76V27.8837H2239.48V34.1628H2236.35V27.8837H2233.21V24.7442H2248.9V37.3023H2242.62ZM2226.93 46.7209V43.5814H2223.79V46.7209H2226.93ZM2226.93 37.3023H2223.79V40.4419H2226.93V37.3023ZM2226.93 31.0233V27.8837H2217.51V24.7442H2230.07V31.0233H2226.93ZM2236.35 37.3023H2233.21V34.1628H2236.35V37.3023ZM2220.65 46.7209V43.5814H2217.51V46.7209H2220.65ZM2220.65 37.3023H2217.51V40.4419H2220.65V37.3023ZM2255.17 49.8605V31.0233H2270.87V24.7442H2274.01V31.0233H2289.71V49.8605H2274.01V59.2791H2270.87V49.8605H2255.17ZM2258.31 46.7209H2270.87V34.1628H2258.31V46.7209ZM2286.57 46.7209V34.1628H2274.01V46.7209H2286.57ZM2295.97 59.2791V56.1395H2302.25V59.2791H2295.97ZM2295.97 34.1628V31.0233H2311.67V24.7442H2314.81V31.0233H2330.51V34.1628H2324.23V40.4419H2321.09V34.1628H2305.39V40.4419H2302.25V34.1628H2295.97ZM2324.23 53V56.1395H2317.95V53H2324.23ZM2324.23 56.1395H2330.51V59.2791H2324.23V56.1395ZM2302.25 56.1395V53H2308.53V56.1395H2302.25ZM2308.53 46.7209V43.5814H2311.67V46.7209H2308.53ZM2308.53 53V49.8605H2311.67V53H2308.53ZM2308.53 40.4419V43.5814H2305.39V40.4419H2308.53ZM2314.81 46.7209V49.8605H2311.67V46.7209H2314.81ZM2314.81 49.8605H2317.95V53H2314.81V49.8605ZM2314.81 43.5814H2317.95V46.7209H2314.81V43.5814ZM2321.09 40.4419V43.5814H2317.95V40.4419H2321.09ZM2336.77 49.8605V46.7209H2343.05V43.5814H2349.33V40.4419H2355.61V43.5814H2368.17V59.2791H2343.05V49.8605H2336.77ZM2336.77 37.3023V34.1628H2343.05V37.3023H2336.77ZM2365.03 46.7209H2346.19V56.1395H2365.03V46.7209ZM2365.03 34.1628H2361.89V31.0233H2346.19V24.7442H2349.33V27.8837H2365.03V34.1628ZM2343.05 37.3023H2349.33V40.4419H2343.05V37.3023ZM2343.05 34.1628V31.0233H2346.19V34.1628H2343.05ZM2355.61 40.4419V37.3023H2358.75V40.4419H2355.61ZM2361.89 37.3023H2358.75V34.1628H2361.89V37.3023ZM2377.58 49.8605V46.7209H2393.27V43.5814H2396.41V46.7209H2412.11V49.8605H2396.41V59.2791H2386.99V56.1395H2393.27V49.8605H2377.58ZM2377.58 37.3023V27.8837H2393.27V24.7442H2396.41V27.8837H2412.11V37.3023H2408.97V31.0233H2380.72V37.3023H2377.58ZM2405.83 40.4419H2402.69V37.3023H2383.85V34.1628H2405.83V40.4419ZM2396.41 43.5814V40.4419H2402.69V43.5814H2396.41ZM2418.38 59.2791V31.0233H2424.66V27.8837H2427.8V31.0233H2434.07V59.2791H2418.38ZM2446.63 49.8605H2443.49V43.5814H2446.63V49.8605ZM2452.91 59.2791H2443.49V56.1395H2449.77V34.1628H2440.35V24.7442H2443.49V31.0233H2452.91V59.2791ZM2430.94 46.7209H2421.52V56.1395H2430.94V46.7209ZM2430.94 43.5814V34.1628H2421.52V43.5814H2430.94ZM2430.94 24.7442V27.8837H2427.8V24.7442H2430.94ZM2437.21 40.4419V34.1628H2440.35V40.4419H2437.21ZM2443.49 40.4419V43.5814H2440.35V40.4419H2443.49ZM2459.18 59.2791V56.1395H2462.32V59.2791H2459.18ZM2459.18 37.3023V34.1628H2462.32V37.3023H2459.18ZM2459.18 27.8837V24.7442H2462.32V27.8837H2459.18ZM2487.43 53H2484.3V46.7209H2481.16V59.2791H2478.02V46.7209H2474.88V53H2471.74V46.7209H2465.46V43.5814H2478.02V40.4419H2481.16V43.5814H2493.71V46.7209H2487.43V53ZM2487.43 56.1395V53H2490.57V56.1395H2487.43ZM2487.43 37.3023H2490.57V34.1628H2493.71V40.4419H2484.3V31.0233H2487.43V37.3023ZM2471.74 53V56.1395H2468.6V53H2471.74ZM2471.74 31.0233H2468.6V24.7442H2493.71V31.0233H2490.57V27.8837H2471.74V31.0233ZM2468.6 56.1395V59.2791H2465.46V56.1395H2468.6ZM2468.6 40.4419V37.3023H2474.88V40.4419H2468.6ZM2465.46 46.7209V56.1395H2462.32V46.7209H2465.46ZM2465.46 37.3023V40.4419H2462.32V37.3023H2465.46ZM2465.46 31.0233H2462.32V27.8837H2465.46V31.0233ZM2493.71 56.1395V59.2791H2490.57V56.1395H2493.71ZM2478.02 37.3023H2474.88V31.0233H2478.02V37.3023ZM2499.98 49.8605V46.7209H2515.68V40.4419H2512.54V37.3023H2506.26V43.5814H2503.12V27.8837H2512.54V24.7442H2515.68V27.8837H2531.38V43.5814H2528.24V37.3023H2521.96V40.4419H2518.82V46.7209H2534.52V49.8605H2521.96V53H2518.82V49.8605H2515.68V53H2512.54V49.8605H2499.98ZM2499.98 59.2791V56.1395H2506.26V59.2791H2499.98ZM2528.24 53V56.1395H2521.96V53H2528.24ZM2528.24 56.1395H2534.52V59.2791H2528.24V56.1395ZM2528.24 31.0233H2525.1V34.1628H2528.24V31.0233ZM2512.54 53V56.1395H2506.26V53H2512.54ZM2512.54 40.4419V43.5814H2509.4V40.4419H2512.54ZM2512.54 31.0233V34.1628H2515.68V31.0233H2512.54ZM2525.1 40.4419V43.5814H2521.96V40.4419H2525.1ZM2509.4 31.0233H2506.26V34.1628H2509.4V31.0233ZM2521.96 31.0233H2518.82V34.1628H2521.96V31.0233ZM2540.78 53V27.8837H2550.2V53H2540.78ZM2547.06 49.8605V31.0233H2543.92V49.8605H2547.06ZM2575.32 49.8605V59.2791H2553.34V24.7442H2575.32V43.5814H2556.48V56.1395H2572.18V49.8605H2575.32ZM2565.9 40.4419H2572.18V27.8837H2565.9V40.4419ZM2556.48 40.4419H2562.76V27.8837H2556.48V40.4419ZM2587.86 49.8605H2591V56.1395H2587.86V49.8605ZM2587.86 43.5814V27.8837H2591V43.5814H2587.86ZM2619.26 59.2791V56.1395H2622.4V59.2791H2619.26ZM2619.26 34.1628V31.0233H2634.96V24.7442H2638.1V31.0233H2653.79V34.1628H2638.1V37.3023H2634.96V34.1628H2619.26ZM2647.51 49.8605V53H2644.37V49.8605H2647.51ZM2647.51 53H2650.65V56.1395H2647.51V53ZM2625.54 53V49.8605H2628.68V53H2625.54ZM2625.54 56.1395H2622.4V53H2625.54V56.1395ZM2653.79 56.1395V59.2791H2650.65V56.1395H2653.79ZM2631.82 49.8605H2628.68V43.5814H2631.82V49.8605ZM2631.82 37.3023H2634.96V43.5814H2631.82V37.3023ZM2638.1 37.3023H2641.24V43.5814H2638.1V37.3023ZM2644.37 49.8605H2641.24V43.5814H2644.37V49.8605ZM2660.06 37.3023V27.8837H2675.76V24.7442H2678.9V27.8837H2694.6V37.3023H2691.46V31.0233H2663.2V37.3023H2660.06ZM2688.32 49.8605H2685.18V56.1395H2682.04V49.8605H2678.9V46.7209H2682.04V43.5814H2678.9V40.4419H2685.18V43.5814H2688.32V49.8605ZM2688.32 53V49.8605H2691.46V53H2688.32ZM2688.32 43.5814V40.4419H2691.46V43.5814H2688.32ZM2688.32 37.3023H2678.9V40.4419H2672.62V37.3023H2666.34V34.1628H2688.32V37.3023ZM2672.62 46.7209V49.8605H2663.2V46.7209H2672.62ZM2672.62 49.8605H2678.9V53H2672.62V49.8605ZM2672.62 53V56.1395H2663.2V53H2672.62ZM2672.62 40.4419V43.5814H2663.2V40.4419H2672.62ZM2672.62 43.5814H2678.9V46.7209H2672.62V43.5814ZM2682.04 56.1395V59.2791H2675.76V56.1395H2682.04ZM2694.6 53V56.1395H2691.46V53H2694.6ZM2700.86 40.4419V37.3023H2735.4V40.4419H2700.86ZM2741.66 53H2744.8V59.2791H2741.66V53ZM2741.66 40.4419V37.3023H2751.08V31.0233H2744.8V27.8837H2751.08V24.7442H2754.22V27.8837H2760.5V31.0233H2754.22V37.3023H2760.5V40.4419H2754.22V46.7209H2760.5V49.8605H2754.22V56.1395H2747.94V53H2751.08V40.4419H2741.66ZM2754.22 56.1395H2776.2V59.2791H2754.22V56.1395ZM2766.78 49.8605H2773.06V43.5814H2776.2V53H2763.64V37.3023H2773.06V27.8837H2763.64V24.7442H2776.2V40.4419H2766.78V49.8605ZM2747.94 53H2744.8V46.7209H2747.94V53ZM2782.47 46.7209V43.5814H2798.16V31.0233H2785.6V27.8837H2798.16V24.7442H2801.3V27.8837H2813.86V31.0233H2801.3V43.5814H2817V46.7209H2807.58V49.8605H2804.44V46.7209H2801.3V59.2791H2798.16V46.7209H2795.02V49.8605H2791.88V46.7209H2782.47ZM2782.47 56.1395V53H2788.74V56.1395H2782.47ZM2810.72 49.8605V53H2807.58V49.8605H2810.72ZM2810.72 53H2817V56.1395H2810.72V53ZM2810.72 37.3023V40.4419H2807.58V37.3023H2810.72ZM2810.72 34.1628H2813.86V37.3023H2810.72V34.1628ZM2791.88 49.8605V53H2788.74V49.8605H2791.88ZM2791.88 37.3023V40.4419H2788.74V37.3023H2791.88ZM2788.74 37.3023H2785.6V34.1628H2788.74V37.3023ZM2848.38 37.3023H2845.24V34.1628H2848.38V37.3023ZM2848.38 34.1628V31.0233H2851.52V34.1628H2848.38ZM2823.27 27.8837V24.7442H2854.66V31.0233H2851.52V27.8837H2823.27ZM2832.69 59.2791V56.1395H2838.96V40.4419H2842.1V59.2791H2832.69ZM2842.1 40.4419V37.3023H2845.24V40.4419H2842.1ZM2864.07 59.2791V34.1628H2873.49V31.0233H2876.63V34.1628H2879.77V59.2791H2873.49V56.1395H2876.63V49.8605H2867.21V59.2791H2864.07ZM2864.07 31.0233V27.8837H2867.21V31.0233H2864.07ZM2892.32 46.7209V49.8605H2898.6V53H2892.32V59.2791H2889.18V53H2882.91V49.8605H2889.18V46.7209H2882.91V40.4419H2886.05V43.5814H2889.18V40.4419H2892.32V43.5814H2898.6V46.7209H2892.32ZM2892.32 37.3023V34.1628H2895.46V27.8837H2889.18V34.1628H2886.05V27.8837H2882.91V24.7442H2898.6V37.3023H2892.32ZM2876.63 46.7209V43.5814H2873.49V46.7209H2876.63ZM2876.63 37.3023H2873.49V40.4419H2876.63V37.3023ZM2876.63 31.0233V27.8837H2867.21V24.7442H2879.77V31.0233H2876.63ZM2886.05 37.3023H2882.91V34.1628H2886.05V37.3023ZM2870.35 46.7209V43.5814H2867.21V46.7209H2870.35ZM2870.35 37.3023H2867.21V40.4419H2870.35V37.3023ZM2904.87 49.8605V31.0233H2920.57V24.7442H2923.71V31.0233H2939.41V49.8605H2923.71V59.2791H2920.57V49.8605H2904.87ZM2908.01 46.7209H2920.57V34.1628H2908.01V46.7209ZM2936.27 46.7209V34.1628H2923.71V46.7209H2936.27ZM2945.67 59.2791V56.1395H2951.95V59.2791H2945.67ZM2945.67 34.1628V31.0233H2961.37V24.7442H2964.51V31.0233H2980.21V34.1628H2973.93V40.4419H2970.79V34.1628H2955.09V40.4419H2951.95V34.1628H2945.67ZM2973.93 53V56.1395H2967.65V53H2973.93ZM2973.93 56.1395H2980.21V59.2791H2973.93V56.1395ZM2951.95 56.1395V53H2958.23V56.1395H2951.95ZM2958.23 46.7209V43.5814H2961.37V46.7209H2958.23ZM2958.23 53V49.8605H2961.37V53H2958.23ZM2958.23 40.4419V43.5814H2955.09V40.4419H2958.23ZM2964.51 46.7209V49.8605H2961.37V46.7209H2964.51ZM2964.51 49.8605H2967.65V53H2964.51V49.8605ZM2964.51 43.5814H2967.65V46.7209H2964.51V43.5814ZM2970.79 40.4419V43.5814H2967.65V40.4419H2970.79ZM2986.47 49.8605V46.7209H2992.75V43.5814H2999.03V40.4419H3005.31V43.5814H3017.87V59.2791H2992.75V49.8605H2986.47ZM2986.47 37.3023V34.1628H2992.75V37.3023H2986.47ZM3014.73 46.7209H2995.89V56.1395H3014.73V46.7209ZM3014.73 34.1628H3011.59V31.0233H2995.89V24.7442H2999.03V27.8837H3014.73V34.1628ZM2992.75 37.3023H2999.03V40.4419H2992.75V37.3023ZM2992.75 34.1628V31.0233H2995.89V34.1628H2992.75ZM3005.31 40.4419V37.3023H3008.45V40.4419H3005.31ZM3011.59 37.3023H3008.45V34.1628H3011.59V37.3023ZM3027.28 49.8605V46.7209H3042.97V43.5814H3046.11V46.7209H3061.81V49.8605H3046.11V59.2791H3036.69V56.1395H3042.97V49.8605H3027.28ZM3027.28 37.3023V27.8837H3042.97V24.7442H3046.11V27.8837H3061.81V37.3023H3058.67V31.0233H3030.41V37.3023H3027.28ZM3055.53 40.4419H3052.39V37.3023H3033.55V34.1628H3055.53V40.4419ZM3046.11 43.5814V40.4419H3052.39V43.5814H3046.11ZM3068.08 59.2791V31.0233H3074.36V27.8837H3077.5V31.0233H3083.77V59.2791H3068.08ZM3096.33 49.8605H3093.19V43.5814H3096.33V49.8605ZM3102.61 59.2791H3093.19V56.1395H3099.47V34.1628H3090.05V24.7442H3093.19V31.0233H3102.61V59.2791ZM3080.64 46.7209H3071.22V56.1395H3080.64V46.7209ZM3080.64 43.5814V34.1628H3071.22V43.5814H3080.64ZM3080.64 24.7442V27.8837H3077.5V24.7442H3080.64ZM3086.91 40.4419V34.1628H3090.05V40.4419H3086.91ZM3093.19 40.4419V43.5814H3090.05V40.4419H3093.19ZM3108.88 59.2791V56.1395H3112.02V59.2791H3108.88ZM3108.88 37.3023V34.1628H3112.02V37.3023H3108.88ZM3108.88 27.8837V24.7442H3112.02V27.8837H3108.88ZM3137.13 53H3133.99V46.7209H3130.86V59.2791H3127.72V46.7209H3124.58V53H3121.44V46.7209H3115.16V43.5814H3127.72V40.4419H3130.86V43.5814H3143.41V46.7209H3137.13V53ZM3137.13 56.1395V53H3140.27V56.1395H3137.13ZM3137.13 37.3023H3140.27V34.1628H3143.41V40.4419H3133.99V31.0233H3137.13V37.3023ZM3121.44 53V56.1395H3118.3V53H3121.44ZM3121.44 31.0233H3118.3V24.7442H3143.41V31.0233H3140.27V27.8837H3121.44V31.0233ZM3118.3 56.1395V59.2791H3115.16V56.1395H3118.3ZM3118.3 40.4419V37.3023H3124.58V40.4419H3118.3ZM3115.16 46.7209V56.1395H3112.02V46.7209H3115.16ZM3115.16 37.3023V40.4419H3112.02V37.3023H3115.16ZM3115.16 31.0233H3112.02V27.8837H3115.16V31.0233ZM3143.41 56.1395V59.2791H3140.27V56.1395H3143.41ZM3127.72 37.3023H3124.58V31.0233H3127.72V37.3023ZM3149.68 49.8605V46.7209H3165.38V40.4419H3162.24V37.3023H3155.96V43.5814H3152.82V27.8837H3162.24V24.7442H3165.38V27.8837H3181.08V43.5814H3177.94V37.3023H3171.66V40.4419H3168.52V46.7209H3184.22V49.8605H3171.66V53H3168.52V49.8605H3165.38V53H3162.24V49.8605H3149.68ZM3149.68 59.2791V56.1395H3155.96V59.2791H3149.68ZM3177.94 53V56.1395H3171.66V53H3177.94ZM3177.94 56.1395H3184.22V59.2791H3177.94V56.1395ZM3177.94 31.0233H3174.8V34.1628H3177.94V31.0233ZM3162.24 53V56.1395H3155.96V53H3162.24ZM3162.24 40.4419V43.5814H3159.1V40.4419H3162.24ZM3162.24 31.0233V34.1628H3165.38V31.0233H3162.24ZM3174.8 40.4419V43.5814H3171.66V40.4419H3174.8ZM3159.1 31.0233H3155.96V34.1628H3159.1V31.0233ZM3171.66 31.0233H3168.52V34.1628H3171.66V31.0233ZM3190.48 53V27.8837H3199.9V53H3190.48ZM3196.76 49.8605V31.0233H3193.62V49.8605H3196.76ZM3225.02 49.8605V59.2791H3203.04V24.7442H3225.02V43.5814H3206.18V56.1395H3221.88V49.8605H3225.02ZM3215.6 40.4419H3221.88V27.8837H3215.6V40.4419ZM3206.18 40.4419H3212.46V27.8837H3206.18V40.4419ZM3237.56 49.8605H3240.7V56.1395H3237.56V49.8605ZM3237.56 43.5814V27.8837H3240.7V43.5814H3237.56ZM3268.96 59.2791V56.1395H3272.1V59.2791H3268.96ZM3268.96 34.1628V31.0233H3284.66V24.7442H3287.8V31.0233H3303.49V34.1628H3287.8V37.3023H3284.66V34.1628H3268.96ZM3297.21 49.8605V53H3294.07V49.8605H3297.21ZM3297.21 53H3300.35V56.1395H3297.21V53ZM3275.24 53V49.8605H3278.38V53H3275.24ZM3275.24 56.1395H3272.1V53H3275.24V56.1395ZM3303.49 56.1395V59.2791H3300.35V56.1395H3303.49ZM3281.52 49.8605H3278.38V43.5814H3281.52V49.8605ZM3281.52 37.3023H3284.66V43.5814H3281.52V37.3023ZM3287.8 37.3023H3290.93V43.5814H3287.8V37.3023ZM3294.07 49.8605H3290.93V43.5814H3294.07V49.8605ZM3309.76 37.3023V27.8837H3325.46V24.7442H3328.6V27.8837H3344.29V37.3023H3341.16V31.0233H3312.9V37.3023H3309.76ZM3338.02 49.8605H3334.88V56.1395H3331.74V49.8605H3328.6V46.7209H3331.74V43.5814H3328.6V40.4419H3334.88V43.5814H3338.02V49.8605ZM3338.02 53V49.8605H3341.16V53H3338.02ZM3338.02 43.5814V40.4419H3341.16V43.5814H3338.02ZM3338.02 37.3023H3328.6V40.4419H3322.32V37.3023H3316.04V34.1628H3338.02V37.3023ZM3322.32 46.7209V49.8605H3312.9V46.7209H3322.32ZM3322.32 49.8605H3328.6V53H3322.32V49.8605ZM3322.32 53V56.1395H3312.9V53H3322.32ZM3322.32 40.4419V43.5814H3312.9V40.4419H3322.32ZM3322.32 43.5814H3328.6V46.7209H3322.32V43.5814ZM3331.74 56.1395V59.2791H3325.46V56.1395H3331.74ZM3344.29 53V56.1395H3341.16V53H3344.29ZM3350.56 40.4419V37.3023H3385.1V40.4419H3350.56ZM3391.36 53H3394.5V59.2791H3391.36V53ZM3391.36 40.4419V37.3023H3400.78V31.0233H3394.5V27.8837H3400.78V24.7442H3403.92V27.8837H3410.2V31.0233H3403.92V37.3023H3410.2V40.4419H3403.92V46.7209H3410.2V49.8605H3403.92V56.1395H3397.64V53H3400.78V40.4419H3391.36ZM3403.92 56.1395H3425.9V59.2791H3403.92V56.1395ZM3416.48 49.8605H3422.76V43.5814H3425.9V53H3413.34V37.3023H3422.76V27.8837H3413.34V24.7442H3425.9V40.4419H3416.48V49.8605ZM3397.64 53H3394.5V46.7209H3397.64V53ZM3432.16 46.7209V43.5814H3447.86V31.0233H3435.3V27.8837H3447.86V24.7442H3451V27.8837H3463.56V31.0233H3451V43.5814H3466.7V46.7209H3457.28V49.8605H3454.14V46.7209H3451V59.2791H3447.86V46.7209H3444.72V49.8605H3441.58V46.7209H3432.16ZM3432.16 56.1395V53H3438.44V56.1395H3432.16ZM3460.42 49.8605V53H3457.28V49.8605H3460.42ZM3460.42 53H3466.7V56.1395H3460.42V53ZM3460.42 37.3023V40.4419H3457.28V37.3023H3460.42ZM3460.42 34.1628H3463.56V37.3023H3460.42V34.1628ZM3441.58 49.8605V53H3438.44V49.8605H3441.58ZM3441.58 37.3023V40.4419H3438.44V37.3023H3441.58ZM3438.44 37.3023H3435.3V34.1628H3438.44V37.3023ZM3498.08 37.3023H3494.94V34.1628H3498.08V37.3023ZM3498.08 34.1628V31.0233H3501.22V34.1628H3498.08ZM3472.97 27.8837V24.7442H3504.36V31.0233H3501.22V27.8837H3472.97ZM3482.39 59.2791V56.1395H3488.66V40.4419H3491.8V59.2791H3482.39ZM3491.8 40.4419V37.3023H3494.94V40.4419H3491.8ZM3513.77 59.2791V34.1628H3523.19V31.0233H3526.33V34.1628H3529.47V59.2791H3523.19V56.1395H3526.33V49.8605H3516.91V59.2791H3513.77ZM3513.77 31.0233V27.8837H3516.91V31.0233H3513.77ZM3542.02 46.7209V49.8605H3548.3V53H3542.02V59.2791H3538.88V53H3532.61V49.8605H3538.88V46.7209H3532.61V40.4419H3535.74V43.5814H3538.88V40.4419H3542.02V43.5814H3548.3V46.7209H3542.02ZM3542.02 37.3023V34.1628H3545.16V27.8837H3538.88V34.1628H3535.74V27.8837H3532.61V24.7442H3548.3V37.3023H3542.02ZM3526.33 46.7209V43.5814H3523.19V46.7209H3526.33ZM3526.33 37.3023H3523.19V40.4419H3526.33V37.3023ZM3526.33 31.0233V27.8837H3516.91V24.7442H3529.47V31.0233H3526.33ZM3535.74 37.3023H3532.61V34.1628H3535.74V37.3023ZM3520.05 46.7209V43.5814H3516.91V46.7209H3520.05ZM3520.05 37.3023H3516.91V40.4419H3520.05V37.3023ZM3554.57 49.8605V31.0233H3570.27V24.7442H3573.41V31.0233H3589.1V49.8605H3573.41V59.2791H3570.27V49.8605H3554.57ZM3557.71 46.7209H3570.27V34.1628H3557.71V46.7209ZM3585.97 46.7209V34.1628H3573.41V46.7209H3585.97ZM3595.37 59.2791V56.1395H3601.65V59.2791H3595.37ZM3595.37 34.1628V31.0233H3611.07V24.7442H3614.21V31.0233H3629.91V34.1628H3623.63V40.4419H3620.49V34.1628H3604.79V40.4419H3601.65V34.1628H3595.37ZM3623.63 53V56.1395H3617.35V53H3623.63ZM3623.63 56.1395H3629.91V59.2791H3623.63V56.1395ZM3601.65 56.1395V53H3607.93V56.1395H3601.65ZM3607.93 46.7209V43.5814H3611.07V46.7209H3607.93ZM3607.93 53V49.8605H3611.07V53H3607.93ZM3607.93 40.4419V43.5814H3604.79V40.4419H3607.93ZM3614.21 46.7209V49.8605H3611.07V46.7209H3614.21ZM3614.21 49.8605H3617.35V53H3614.21V49.8605ZM3614.21 43.5814H3617.35V46.7209H3614.21V43.5814ZM3620.49 40.4419V43.5814H3617.35V40.4419H3620.49ZM3636.17 49.8605V46.7209H3642.45V43.5814H3648.73V40.4419H3655.01V43.5814H3667.57V59.2791H3642.45V49.8605H3636.17ZM3636.17 37.3023V34.1628H3642.45V37.3023H3636.17ZM3664.43 46.7209H3645.59V56.1395H3664.43V46.7209ZM3664.43 34.1628H3661.29V31.0233H3645.59V24.7442H3648.73V27.8837H3664.43V34.1628ZM3642.45 37.3023H3648.73V40.4419H3642.45V37.3023ZM3642.45 34.1628V31.0233H3645.59V34.1628H3642.45ZM3655.01 40.4419V37.3023H3658.15V40.4419H3655.01ZM3661.29 37.3023H3658.15V34.1628H3661.29V37.3023ZM3676.97 49.8605V46.7209H3692.67V43.5814H3695.81V46.7209H3711.51V49.8605H3695.81V59.2791H3686.39V56.1395H3692.67V49.8605H3676.97ZM3676.97 37.3023V27.8837H3692.67V24.7442H3695.81V27.8837H3711.51V37.3023H3708.37V31.0233H3680.11V37.3023H3676.97ZM3705.23 40.4419H3702.09V37.3023H3683.25V34.1628H3705.23V40.4419ZM3695.81 43.5814V40.4419H3702.09V43.5814H3695.81ZM3717.78 59.2791V31.0233H3724.06V27.8837H3727.2V31.0233H3733.47V59.2791H3717.78ZM3746.03 49.8605H3742.89V43.5814H3746.03V49.8605ZM3752.31 59.2791H3742.89V56.1395H3749.17V34.1628H3739.75V24.7442H3742.89V31.0233H3752.31V59.2791ZM3730.33 46.7209H3720.92V56.1395H3730.33V46.7209ZM3730.33 43.5814V34.1628H3720.92V43.5814H3730.33ZM3730.33 24.7442V27.8837H3727.2V24.7442H3730.33ZM3736.61 40.4419V34.1628H3739.75V40.4419H3736.61ZM3742.89 40.4419V43.5814H3739.75V40.4419H3742.89ZM3758.58 59.2791V56.1395H3761.72V59.2791H3758.58ZM3758.58 37.3023V34.1628H3761.72V37.3023H3758.58ZM3758.58 27.8837V24.7442H3761.72V27.8837H3758.58ZM3786.83 53H3783.69V46.7209H3780.56V59.2791H3777.42V46.7209H3774.28V53H3771.14V46.7209H3764.86V43.5814H3777.42V40.4419H3780.56V43.5814H3793.11V46.7209H3786.83V53ZM3786.83 56.1395V53H3789.97V56.1395H3786.83ZM3786.83 37.3023H3789.97V34.1628H3793.11V40.4419H3783.69V31.0233H3786.83V37.3023ZM3771.14 53V56.1395H3768V53H3771.14ZM3771.14 31.0233H3768V24.7442H3793.11V31.0233H3789.97V27.8837H3771.14V31.0233ZM3768 56.1395V59.2791H3764.86V56.1395H3768ZM3768 40.4419V37.3023H3774.28V40.4419H3768ZM3764.86 46.7209V56.1395H3761.72V46.7209H3764.86ZM3764.86 37.3023V40.4419H3761.72V37.3023H3764.86ZM3764.86 31.0233H3761.72V27.8837H3764.86V31.0233ZM3793.11 56.1395V59.2791H3789.97V56.1395H3793.11ZM3777.42 37.3023H3774.28V31.0233H3777.42V37.3023ZM3799.38 49.8605V46.7209H3815.08V40.4419H3811.94V37.3023H3805.66V43.5814H3802.52V27.8837H3811.94V24.7442H3815.08V27.8837H3830.78V43.5814H3827.64V37.3023H3821.36V40.4419H3818.22V46.7209H3833.91V49.8605H3821.36V53H3818.22V49.8605H3815.08V53H3811.94V49.8605H3799.38ZM3799.38 59.2791V56.1395H3805.66V59.2791H3799.38ZM3827.64 53V56.1395H3821.36V53H3827.64ZM3827.64 56.1395H3833.91V59.2791H3827.64V56.1395ZM3827.64 31.0233H3824.5V34.1628H3827.64V31.0233ZM3811.94 53V56.1395H3805.66V53H3811.94ZM3811.94 40.4419V43.5814H3808.8V40.4419H3811.94ZM3811.94 31.0233V34.1628H3815.08V31.0233H3811.94ZM3824.5 40.4419V43.5814H3821.36V40.4419H3824.5ZM3808.8 31.0233H3805.66V34.1628H3808.8V31.0233ZM3821.36 31.0233H3818.22V34.1628H3821.36V31.0233ZM3840.18 53V27.8837H3849.6V53H3840.18ZM3846.46 49.8605V31.0233H3843.32V49.8605H3846.46ZM3874.72 49.8605V59.2791H3852.74V24.7442H3874.72V43.5814H3855.88V56.1395H3871.58V49.8605H3874.72ZM3865.3 40.4419H3871.58V27.8837H3865.3V40.4419ZM3855.88 40.4419H3862.16V27.8837H3855.88V40.4419ZM3887.26 49.8605H3890.4V56.1395H3887.26V49.8605ZM3887.26 43.5814V27.8837H3890.4V43.5814H3887.26ZM3918.66 59.2791V56.1395H3921.8V59.2791H3918.66ZM3918.66 34.1628V31.0233H3934.36V24.7442H3937.49V31.0233H3953.19V34.1628H3937.49V37.3023H3934.36V34.1628H3918.66ZM3946.91 49.8605V53H3943.77V49.8605H3946.91ZM3946.91 53H3950.05V56.1395H3946.91V53ZM3924.94 53V49.8605H3928.08V53H3924.94ZM3924.94 56.1395H3921.8V53H3924.94V56.1395ZM3953.19 56.1395V59.2791H3950.05V56.1395H3953.19ZM3931.22 49.8605H3928.08V43.5814H3931.22V49.8605ZM3931.22 37.3023H3934.36V43.5814H3931.22V37.3023ZM3937.49 37.3023H3940.63V43.5814H3937.49V37.3023ZM3943.77 49.8605H3940.63V43.5814H3943.77V49.8605ZM3959.46 37.3023V27.8837H3975.16V24.7442H3978.3V27.8837H3993.99V37.3023H3990.85V31.0233H3962.6V37.3023H3959.46ZM3987.72 49.8605H3984.58V56.1395H3981.44V49.8605H3978.3V46.7209H3981.44V43.5814H3978.3V40.4419H3984.58V43.5814H3987.72V49.8605ZM3987.72 53V49.8605H3990.85V53H3987.72ZM3987.72 43.5814V40.4419H3990.85V43.5814H3987.72ZM3987.72 37.3023H3978.3V40.4419H3972.02V37.3023H3965.74V34.1628H3987.72V37.3023ZM3972.02 46.7209V49.8605H3962.6V46.7209H3972.02ZM3972.02 49.8605H3978.3V53H3972.02V49.8605ZM3972.02 53V56.1395H3962.6V53H3972.02ZM3972.02 40.4419V43.5814H3962.6V40.4419H3972.02ZM3972.02 43.5814H3978.3V46.7209H3972.02V43.5814ZM3981.44 56.1395V59.2791H3975.16V56.1395H3981.44ZM3993.99 53V56.1395H3990.85V53H3993.99ZM4000.26 40.4419V37.3023H4034.8V40.4419H4000.26ZM4041.06 53H4044.2V59.2791H4041.06V53ZM4041.06 40.4419V37.3023H4050.48V31.0233H4044.2V27.8837H4050.48V24.7442H4053.62V27.8837H4059.9V31.0233H4053.62V37.3023H4059.9V40.4419H4053.62V46.7209H4059.9V49.8605H4053.62V56.1395H4047.34V53H4050.48V40.4419H4041.06ZM4053.62 56.1395H4075.6V59.2791H4053.62V56.1395ZM4066.18 49.8605H4072.46V43.5814H4075.6V53H4063.04V37.3023H4072.46V27.8837H4063.04V24.7442H4075.6V40.4419H4066.18V49.8605ZM4047.34 53H4044.2V46.7209H4047.34V53ZM4081.86 46.7209V43.5814H4097.56V31.0233H4085V27.8837H4097.56V24.7442H4100.7V27.8837H4113.26V31.0233H4100.7V43.5814H4116.4V46.7209H4106.98V49.8605H4103.84V46.7209H4100.7V59.2791H4097.56V46.7209H4094.42V49.8605H4091.28V46.7209H4081.86ZM4081.86 56.1395V53H4088.14V56.1395H4081.86ZM4110.12 49.8605V53H4106.98V49.8605H4110.12ZM4110.12 53H4116.4V56.1395H4110.12V53ZM4110.12 37.3023V40.4419H4106.98V37.3023H4110.12ZM4110.12 34.1628H4113.26V37.3023H4110.12V34.1628ZM4091.28 49.8605V53H4088.14V49.8605H4091.28ZM4091.28 37.3023V40.4419H4088.14V37.3023H4091.28ZM4088.14 37.3023H4085V34.1628H4088.14V37.3023ZM4147.78 37.3023H4144.64V34.1628H4147.78V37.3023ZM4147.78 34.1628V31.0233H4150.92V34.1628H4147.78ZM4122.67 27.8837V24.7442H4154.06V31.0233H4150.92V27.8837H4122.67ZM4132.08 59.2791V56.1395H4138.36V40.4419H4141.5V59.2791H4132.08ZM4141.5 40.4419V37.3023H4144.64V40.4419H4141.5ZM4163.47 59.2791V34.1628H4172.89V31.0233H4176.03V34.1628H4179.17V59.2791H4172.89V56.1395H4176.03V49.8605H4166.61V59.2791H4163.47ZM4163.47 31.0233V27.8837H4166.61V31.0233H4163.47ZM4191.72 46.7209V49.8605H4198V53H4191.72V59.2791H4188.58V53H4182.31V49.8605H4188.58V46.7209H4182.31V40.4419H4185.44V43.5814H4188.58V40.4419H4191.72V43.5814H4198V46.7209H4191.72ZM4191.72 37.3023V34.1628H4194.86V27.8837H4188.58V34.1628H4185.44V27.8837H4182.31V24.7442H4198V37.3023H4191.72ZM4176.03 46.7209V43.5814H4172.89V46.7209H4176.03ZM4176.03 37.3023H4172.89V40.4419H4176.03V37.3023ZM4176.03 31.0233V27.8837H4166.61V24.7442H4179.17V31.0233H4176.03ZM4185.44 37.3023H4182.31V34.1628H4185.44V37.3023ZM4169.75 46.7209V43.5814H4166.61V46.7209H4169.75ZM4169.75 37.3023H4166.61V40.4419H4169.75V37.3023ZM4204.27 49.8605V31.0233H4219.97V24.7442H4223.11V31.0233H4238.8V49.8605H4223.11V59.2791H4219.97V49.8605H4204.27ZM4207.41 46.7209H4219.97V34.1628H4207.41V46.7209ZM4235.67 46.7209V34.1628H4223.11V46.7209H4235.67ZM4245.07 59.2791V56.1395H4251.35V59.2791H4245.07ZM4245.07 34.1628V31.0233H4260.77V24.7442H4263.91V31.0233H4279.61V34.1628H4273.33V40.4419H4270.19V34.1628H4254.49V40.4419H4251.35V34.1628H4245.07ZM4273.33 53V56.1395H4267.05V53H4273.33ZM4273.33 56.1395H4279.61V59.2791H4273.33V56.1395ZM4251.35 56.1395V53H4257.63V56.1395H4251.35ZM4257.63 46.7209V43.5814H4260.77V46.7209H4257.63ZM4257.63 53V49.8605H4260.77V53H4257.63ZM4257.63 40.4419V43.5814H4254.49V40.4419H4257.63ZM4263.91 46.7209V49.8605H4260.77V46.7209H4263.91ZM4263.91 49.8605H4267.05V53H4263.91V49.8605ZM4263.91 43.5814H4267.05V46.7209H4263.91V43.5814ZM4270.19 40.4419V43.5814H4267.05V40.4419H4270.19ZM4285.87 49.8605V46.7209H4292.15V43.5814H4298.43V40.4419H4304.71V43.5814H4317.27V59.2791H4292.15V49.8605H4285.87ZM4285.87 37.3023V34.1628H4292.15V37.3023H4285.87ZM4314.13 46.7209H4295.29V56.1395H4314.13V46.7209ZM4314.13 34.1628H4310.99V31.0233H4295.29V24.7442H4298.43V27.8837H4314.13V34.1628ZM4292.15 37.3023H4298.43V40.4419H4292.15V37.3023ZM4292.15 34.1628V31.0233H4295.29V34.1628H4292.15ZM4304.71 40.4419V37.3023H4307.85V40.4419H4304.71ZM4310.99 37.3023H4307.85V34.1628H4310.99V37.3023ZM4326.67 49.8605V46.7209H4342.37V43.5814H4345.51V46.7209H4361.21V49.8605H4345.51V59.2791H4336.09V56.1395H4342.37V49.8605H4326.67ZM4326.67 37.3023V27.8837H4342.37V24.7442H4345.51V27.8837H4361.21V37.3023H4358.07V31.0233H4329.81V37.3023H4326.67ZM4354.93 40.4419H4351.79V37.3023H4332.95V34.1628H4354.93V40.4419ZM4345.51 43.5814V40.4419H4351.79V43.5814H4345.51ZM4367.48 59.2791V31.0233H4373.76V27.8837H4376.89V31.0233H4383.17V59.2791H4367.48ZM4395.73 49.8605H4392.59V43.5814H4395.73V49.8605ZM4402.01 59.2791H4392.59V56.1395H4398.87V34.1628H4389.45V24.7442H4392.59V31.0233H4402.01V59.2791ZM4380.03 46.7209H4370.62V56.1395H4380.03V46.7209ZM4380.03 43.5814V34.1628H4370.62V43.5814H4380.03ZM4380.03 24.7442V27.8837H4376.89V24.7442H4380.03ZM4386.31 40.4419V34.1628H4389.45V40.4419H4386.31ZM4392.59 40.4419V43.5814H4389.45V40.4419H4392.59ZM4408.28 59.2791V56.1395H4411.42V59.2791H4408.28ZM4408.28 37.3023V34.1628H4411.42V37.3023H4408.28ZM4408.28 27.8837V24.7442H4411.42V27.8837H4408.28ZM4436.53 53H4433.39V46.7209H4430.25V59.2791H4427.12V46.7209H4423.98V53H4420.84V46.7209H4414.56V43.5814H4427.12V40.4419H4430.25V43.5814H4442.81V46.7209H4436.53V53ZM4436.53 56.1395V53H4439.67V56.1395H4436.53ZM4436.53 37.3023H4439.67V34.1628H4442.81V40.4419H4433.39V31.0233H4436.53V37.3023ZM4420.84 53V56.1395H4417.7V53H4420.84ZM4420.84 31.0233H4417.7V24.7442H4442.81V31.0233H4439.67V27.8837H4420.84V31.0233ZM4417.7 56.1395V59.2791H4414.56V56.1395H4417.7ZM4417.7 40.4419V37.3023H4423.98V40.4419H4417.7ZM4414.56 46.7209V56.1395H4411.42V46.7209H4414.56ZM4414.56 37.3023V40.4419H4411.42V37.3023H4414.56ZM4414.56 31.0233H4411.42V27.8837H4414.56V31.0233ZM4442.81 56.1395V59.2791H4439.67V56.1395H4442.81ZM4427.12 37.3023H4423.98V31.0233H4427.12V37.3023ZM4449.08 49.8605V46.7209H4464.78V40.4419H4461.64V37.3023H4455.36V43.5814H4452.22V27.8837H4461.64V24.7442H4464.78V27.8837H4480.48V43.5814H4477.34V37.3023H4471.06V40.4419H4467.92V46.7209H4483.61V49.8605H4471.06V53H4467.92V49.8605H4464.78V53H4461.64V49.8605H4449.08ZM4449.08 59.2791V56.1395H4455.36V59.2791H4449.08ZM4477.34 53V56.1395H4471.06V53H4477.34ZM4477.34 56.1395H4483.61V59.2791H4477.34V56.1395ZM4477.34 31.0233H4474.2V34.1628H4477.34V31.0233ZM4461.64 53V56.1395H4455.36V53H4461.64ZM4461.64 40.4419V43.5814H4458.5V40.4419H4461.64ZM4461.64 31.0233V34.1628H4464.78V31.0233H4461.64ZM4474.2 40.4419V43.5814H4471.06V40.4419H4474.2ZM4458.5 31.0233H4455.36V34.1628H4458.5V31.0233ZM4471.06 31.0233H4467.92V34.1628H4471.06V31.0233ZM4489.88 53V27.8837H4499.3V53H4489.88ZM4496.16 49.8605V31.0233H4493.02V49.8605H4496.16ZM4524.42 49.8605V59.2791H4502.44V24.7442H4524.42V43.5814H4505.58V56.1395H4521.28V49.8605H4524.42ZM4515 40.4419H4521.28V27.8837H4515V40.4419ZM4505.58 40.4419H4511.86V27.8837H4505.58V40.4419ZM4536.96 49.8605H4540.1V56.1395H4536.96V49.8605ZM4536.96 43.5814V27.8837H4540.1V43.5814H4536.96Z" fill="#CF623F"/>
</svg>
